<svg width="418" height="258" fill="none" xmlns="http://www.w3.org/2000/svg"><path d="M416.364 207.488c-1.275-3.815-3.315-7.376-5.609-11.445-4.335-7.375-9.179-15.514-8.159-24.669.51-5.85 2.804-15.26 5.099-24.924 4.334-18.82 9.434-39.929 6.884-52.9-2.295-11.444-8.924-28.992-19.632-44.76-6.629-9.665-14.533-17.549-22.946-23.907-10.199-7.375-21.927-12.208-34.42-14.242-10.708-1.78-21.417-2.543-32.38-2.543-18.612 0-34.419 2.543-46.913 4.323-8.413 1.017-15.297 2.289-20.396 2.289h-1.275c-6.119-.254-9.944-2.543-14.788-5.595-6.119-4.07-13.768-8.901-26.771-8.901h-.51c-18.867.254-28.555 5.595-36.969 10.427-4.334 2.543-8.668 4.832-14.277 6.612-7.394 2.29-29.576 3.56-48.443 3.815-.765-.763-1.53-1.78-2.55-2.798-5.609-5.849-10.453-8.392-15.297-8.392-4.08 0-7.904 2.034-10.198 5.595-2.805 4.578-5.865 12.462-7.904 18.057-2.04.763-4.844 1.78-7.649 3.052-12.493 5.34-16.063 8.393-17.847 11.953-1.02 2.289-2.295 5.087-3.315 7.376-2.294.762-5.354 1.78-8.668 2.797-11.474 4.07-17.083 7.884-19.632 12.97-4.59 9.92 4.334 21.11 14.787 32.554.51.509 1.02 1.017 1.275 1.526 4.08 4.578 11.473 5.849 33.655 8.393 8.159 1.017 24.986 2.797 28.555 4.578 7.14 5.086 21.927 9.664 45.128 13.479 6.629 1.017 13.003 10.173 18.357 25.941 4.845 13.988 8.669 33.571 11.729 59.257-6.884 4.832-18.103 13.225-18.867 30.519 0 2.543.764 5.087 2.549 6.867 1.785 1.78 4.08 2.798 6.629 2.798h73.684c4.844 0 8.923-3.561 9.178-8.393 0-.509 1.02-10.936 2.295-23.652.51-6.613 9.433-28.993 18.357-49.594 4.079 2.544 8.924 5.087 14.023 6.613.765 8.647 3.824 15.768 4.334 16.785l.255.509c.255.509.51 1.017 1.02 1.526l.255.254c1.02 1.272 5.354 6.358 10.963 12.462-10.963 9.156-10.963 20.092-10.963 21.618.255 5.086 4.334 8.901 9.178 8.901l62.721.509c3.569 0 6.883-2.035 8.413-5.341 0-.254 2.04-4.069 3.825-9.41 2.039 1.271 3.824 2.289 5.864 3.306l-3.315 6.358c-2.039 3.815-1.785 8.393.51 11.953 2.295 3.561 6.119 5.85 10.453 5.85h34.42c1.02 0 2.04-.254 2.805-.763l.765-.254c3.314-1.781 4.079-4.324 4.844-6.613.255-.763.765-2.034 1.275-3.56.764-2.798 2.039-6.867 3.314-11.445 3.315-13.479 4.079-21.872 2.295-27.721zm-8.414 25.941c-1.02 4.323-2.295 8.392-3.059 11.19-.51 1.526-.765 2.798-1.02 3.561-.51 1.78-.765 2.543-2.04 3.051l-.765.255h-34.165c-4.589 0-7.393-4.832-5.354-8.902l6.119-11.953c-4.334-1.78-11.728-5.086-17.847-10.936-.765 4.324-2.294 8.647-3.569 11.953-1.275 3.307-2.295 5.341-2.295 5.596-.51 1.017-1.53 1.78-2.805 1.78l-62.465-.763c-.765 0-1.529-.254-2.039-.763-.51-.509-1.02-1.272-1.02-2.035 0-.508-.255-12.462 14.278-20.346-8.159-8.392-15.553-17.039-15.808-17.548l-.255-.254-.255-.509c-.255-.509-4.079-9.41-4.079-19.074-8.159-1.526-17.847-7.63-22.692-10.936-6.884 15.768-20.906 48.576-21.671 58.24-.51 6.358-1.275 12.462-1.53 16.531-.51 4.324-.765 6.867-.765 7.121-.255 1.526-1.53 2.798-3.059 2.798h-73.939c-1.785 0-3.059-1.272-3.059-3.052.51-14.242 9.688-20.855 16.572-25.687 1.02-.763 2.04-1.526 2.805-2.034-3.315-27.976-7.394-48.831-12.493-64.09-6.12-18.311-14.023-28.484-23.202-30.01-22.181-3.815-36.46-8.139-42.578-12.462-3.315-2.544-19.632-4.324-31.36-5.595-19.122-2.544-27.281-3.815-29.83-6.613-.51-.508-.765-1.017-1.275-1.526-8.669-9.41-16.828-19.328-13.768-25.94 1.02-2.29 3.824-5.342 16.062-9.665 4.59-1.526 8.924-2.798 10.964-3.56 1.02-2.29 2.804-6.613 4.334-9.665 1.02-1.78 3.314-4.324 14.533-9.156 4.079-1.78 8.158-3.306 10.198-4.069 1.275-3.815 5.1-14.75 8.159-19.583 1.02-1.78 2.804-2.797 4.844-2.797 3.06 0 6.374 2.034 10.708 6.612 1.785 1.78 3.315 3.56 4.08 4.578 14.787 0 43.343-1.017 53.031-4.07 6.374-2.034 10.964-4.577 15.553-7.12 8.159-4.578 16.827-9.41 34.165-9.665h.509c11.219 0 17.848 4.07 23.457 7.884 5.099 3.306 9.943 6.104 17.847 6.613h1.53c5.354 0 12.493-1.017 20.906-2.29 12.493-2.034 27.791-4.323 46.148-4.323 10.709 0 20.907.763 31.36 2.544 11.474 1.78 22.182 6.358 31.615 13.224 7.904 5.85 15.298 13.225 21.417 22.381 10.453 15.005 16.572 31.79 18.867 42.472 2.55 11.699-2.55 32.045-6.629 50.356-2.295 10.173-4.589 19.583-5.354 25.941-1.02 11.191 4.589 20.855 9.178 28.485 2.295 3.815 4.08 7.121 5.1 10.427 1.529 3.815.765 11.699-2.295 23.398z" fill="#457C30"/><path d="M404.636 234.955c-2.805 3.052-3.57 7.884-6.374 11.699-.765 1.017-1.275 2.543-3.06 1.271-1.275-1.017 0-2.034.51-2.797 3.314-5.087 1.53-9.665-1.275-13.988-2.295-3.815-5.609-6.613-8.923-9.664-1.53-1.272-3.06-2.798-4.59-4.07-5.099-5.086-5.609-7.375-2.294-13.987 2.039-4.324 1.274-8.902.764-13.225-.764-7.121 1.785-11.191 8.159-13.988 1.02-.509 2.295-1.526 2.55.508 1.02 8.902 6.884 15.26 10.963 22.635 3.315 6.104 6.119 12.208 6.629 19.329.765 5.086-.51 10.427-3.059 16.277zm-3.57-14.242c-2.04-10.936-10.708-19.075-12.493-31.282-2.295 6.103-.51 10.427 1.53 14.75 2.804 5.596 7.394 10.173 9.178 16.277.51 2.798.765 5.341 1.275 8.139 1.275-2.544 1.785-5.087.51-7.884z" fill="#457C30"/><path d="M303.416 226.053c-1.784.255-2.804 1.272-3.824 2.544-1.275 1.271-2.04 2.797-2.805 4.323-.255.509-.255 1.017-.764 1.526-.51-3.56-.255-6.612 2.294-9.156 1.53-1.271 3.06-2.289 4.844-3.56 2.295-1.526 4.08-3.306 4.335-6.613 1.784 1.272 3.059 2.798 3.314 5.087a7.24 7.24 0 010 3.306c-.255 1.78-1.53 2.289-3.059 1.78-.51-.254-1.275-.508-1.785.255-.51.508-.255 1.017 0 1.78.255.763.765 1.526.51 2.289-.51 1.526-1.53 1.78-2.55.763-.51-.509-1.02-.254-1.529 0-.765.763-1.785 1.526-2.55 2.289-.255.254-.51.763-1.02.508-.51-.254-.255-.763 0-1.017.51-1.78 1.785-3.306 3.315-4.578.255-.254.764-1.017 1.274-1.526z" fill="#BACF1E"/><path d="M148.656 245.636c2.549-3.815 4.844-7.375 7.139-10.936 1.274-2.034 2.804-4.323 3.569-6.866.51-1.272.765-1.272 1.785-.255 2.039 2.289 1.785 4.832.51 7.376 1.784.254 3.314-.255 5.099 0 2.04.254 2.295 1.017 1.275 2.797-.765 1.018-2.295 1.781-2.55 2.798 0 1.271 2.04 1.271 2.805 2.289.255.763.765 1.271 1.02 2.034.254.763.764 1.781.254 2.544-.509.508-1.274-.255-2.039-.509-5.609-1.272-11.473-1.78-17.337-1.526-.765.254-1.02.254-1.53.254zm15.807-1.271c-3.059-2.289-7.139-2.798-9.433-1.018 3.059.255 6.374.255 9.433 1.018z" fill="#2EB9CD"/><path d="M286.844 153.062c8.414-1.526 16.572-10.173 16.827-18.311.255-4.324 0-8.393-.765-12.716-.254-1.018-1.019-2.543.51-2.798 1.53-.254 2.805.763 3.06 2.543.765 4.833 1.02 9.41 0 14.243-.255.763-1.02 1.78.51 2.034 1.02.255 1.02-1.017 1.02-1.78 1.02-4.324 1.02-8.647.51-12.971 0-.763-.765-2.034.764-2.034 1.275 0 2.04.763 2.04 2.034 0 4.833.765 9.919-.51 14.751 0 .509-.765 1.272.255 1.526.765.254 1.02-.763 1.275-1.271 1.275-4.07 1.275-8.393 1.275-12.717 0-.763-.765-2.289.765-2.289 1.529 0 2.039.763 2.039 2.289.255 16.277-4.589 30.519-17.082 41.964-1.53 1.271-2.04 2.034.255 3.052 1.275.508 2.04 1.526 1.785 2.797-.255 1.526.51 1.781 2.039 1.781 4.08-.255 7.649 0 8.924 4.577.255 1.018 1.275.255 1.785.255 3.059-.763 6.119-1.018 9.433 0 1.275.508 1.53 1.017.51 2.034-10.453 10.428-31.615 15.514-45.128.763-1.53-1.78-2.804-3.815-3.569-6.104-.51-1.525-1.275-2.034-2.805-2.288-3.059-.255-6.119-.763-8.923-2.035-2.295-.763-4.08-2.035-5.355-4.324-.764-1.78-2.804-1.78-4.334-2.288-1.785-.509-3.314-1.018-5.354-1.781 2.04-1.526 4.334-1.78 6.119-2.289 1.785-.508 3.06-1.271 4.079-2.543 2.55-3.306 6.374-3.815 10.199-4.069 2.039-.254 4.844.509 5.609-.763.765-1.526-1.785-3.052-2.805-4.578-2.549-4.323-3.569-8.901-1.274-13.733 3.824-7.884 9.178-14.497 15.297-21.109 1.785 2.797 1.785 5.341.51 8.138-.255.763-1.275 1.272-.255 2.035 3.06 2.034 2.04 4.578.765 7.121-.765 1.526-1.53 2.289.765 3.052 2.04.763 1.785 2.797 1.275 4.323-.255 1.017-1.02 2.035-1.53 2.543-1.53 1.526-1.53 2.289 0 4.07 2.55 2.543.765 4.577-.51 6.866zm-18.357 10.936c0-1.526-.765-2.289-2.295-2.289-1.53 0-2.549.509-2.549 2.035 0 1.526.765 2.543 2.549 2.543 1.275 0 2.04-.763 2.295-2.289z" fill="#3DB8BE"/><path d="M65.029 60.488c.255 1.272.255 2.544-.765 3.56-.255.255-.255.51 0 .764.51.508 1.02 1.017 1.02 1.78.255 1.526-.51 2.798-2.295 3.306-1.53.509-3.06.255-4.334-.763-1.53-1.017-1.02-1.017-2.295 0l-1.53.763c-1.02.509-2.294 0-3.059-.763-.765-.763-.765-2.034-.255-3.052.255-.508.51-1.017 1.275-1.271.51-.254.51-.763 0-1.017-1.53-1.526-1.785-3.307-.765-4.578 1.02-1.272 2.55-1.78 4.08-1.78 1.53 0 2.549.762 3.569 2.034.51.254.765.254 1.02 0 1.02-.763 2.04-1.017 3.06-.254.509.254.764 1.017 1.274 1.271zm-6.63 4.832c1.276 0 2.04-.762 2.04-1.78 0-1.017-.764-1.78-1.784-1.78-1.275 0-2.295.763-2.295 2.035 0 .763.765 1.78 2.04 1.525zm167.255 131.232c.51 1.78.51 3.56-1.02 4.832-.51.509-.255.763 0 1.017.765.763 1.275 1.526 1.53 2.543.255 2.035-1.02 3.815-3.06 4.578-2.295.763-4.334.255-6.119-1.017-2.04-1.272-1.53-1.272-3.314 0-.765.509-1.53.763-2.295 1.272-1.275.508-3.06 0-4.079-1.272-1.02-1.272-1.02-3.052-.255-4.069.509-.763.764-1.272 1.784-1.78.765-.509.765-1.018 0-1.526-2.039-2.289-2.549-4.578-1.275-6.359 1.275-1.78 3.57-2.288 5.865-2.288 2.294 0 3.824 1.271 5.099 2.797.51.509 1.02.254 1.53-.254 1.274-1.272 2.804-1.272 4.334-.509.51.763.765 1.526 1.275 2.035zm-9.179 6.866c1.785 0 3.06-1.017 3.06-2.543 0-1.526-1.02-2.543-2.805-2.543-2.04 0-3.059 1.017-3.059 2.798 0 1.271 1.019 2.543 2.804 2.288z" fill="#E31E4C"/><path d="M90.78 70.661c3.06-.763 6.119-1.271 9.178-2.034 1.275-.255 1.53 0 1.275 1.017-.255 2.543 0 2.797-2.805 3.56-5.354 1.272-10.963 2.544-16.572 2.035-3.314-.254-3.824-1.272-3.06-4.323.51-1.526 0-2.035-1.53-2.035a39.523 39.523 0 01-7.903-1.526c-1.53-.509-2.295-1.272-2.55-2.797-.51-2.035-.764-4.324-.255-6.359.765-3.051 2.04-4.069 5.355-3.306 2.04.255 3.824.763 5.864 1.272.51 0 1.02.254 1.275-.255.254-.254-.255-.762-.255-1.017-.51-1.017-1.275-1.78-1.53-2.797-.255-1.018 0-1.272 1.02-1.526 3.824-.763 7.138.254 10.453 2.034 3.57 1.78 6.629 4.832 9.434 7.63.764.763 0 3.56-1.02 3.815-.51.254-.765-.255-1.02-.509-3.06-2.289-6.12-5.086-9.689-6.867-.764-.254-1.53-.763-2.55-1.017 1.276 2.29 3.825 3.052 5.1 4.578 1.53 1.78 3.57 2.543 5.1 4.832-4.08-.763-8.16-1.272-12.239-2.035-2.04-.762-4.08-.762-6.119-1.017 1.785 1.272 3.57 2.035 5.864 2.544 2.55 1.017 5.354 1.271 7.904 1.78 1.785.254 3.57.508 5.609 1.017-1.275 1.272-2.805 1.526-4.08 2.035-2.039.508-4.079 1.271-6.118 2.289 1.784 0 3.824-.255 5.864-1.018z" fill="#457C30"/><path d="M268.742 145.941v1.018c-.255.763-.765 1.017-1.53 1.017-.51 0-.51 0-.51.508 0 1.018-.51 1.526-1.53 1.781h-2.294c-.765-.255-1.02-.763-1.02-1.526 0-.509 0-.763-.51-.763-1.02 0-1.53-.763-1.785-1.526 0-.763 0-1.272.255-2.035.255-.763 1.02-1.017 1.785-.763.51 0 .51 0 .51-.508 0-1.272 1.02-1.781 2.04-1.781.765 0 1.784 0 2.294.763.255.509.255.763.255 1.272 0 .254 0 .254.255.254 1.02-.254 1.785.255 2.04 1.272-.255.509-.255.763-.255 1.017zm-4.589.509c.51 0 1.019-.254 1.019-.763s-.509-.763-1.019-.763c-.51 0-1.02.509-1.02.763s.51.763 1.02.763zm-71.644-51.628v1.017c-.255.763-.765 1.018-1.53 1.018-.51 0-.51 0-.51.508 0 1.018-.51 1.526-1.53 1.78h-2.294c-.765-.254-1.02-.762-1.02-1.525 0-.509 0-.763-.51-.763-1.02 0-1.53-.763-1.785-1.526 0-.763 0-1.272.255-2.035.255-.763 1.02-1.017 1.785-.763.51 0 .51 0 .51-.508 0-1.272 1.02-1.78 2.039-1.78.765 0 1.785 0 2.295.762.255.509.255.763.255 1.272 0 .254 0 .254.255.254 1.02-.254 1.785.254 2.04 1.272-.255.254-.255.508-.255 1.017zm-4.335.254c.51 0 1.02-.254 1.02-.763 0-.508-.51-.763-1.02-.763-.509 0-1.019.51-1.019.763 0 .51.51.763 1.019.763zm-110.142 7.376v1.017c-.51.763-.765 1.017-1.785 1.017-.51 0-.51 0-.51.509 0 1.017-.51 1.526-1.53 1.78h-2.294c-.765-.254-1.02-.763-1.02-1.526 0-.508 0-.763-.51-.763-1.02 0-1.53-.763-1.785-1.525 0-.763 0-1.272.255-2.035.255-.763 1.02-1.017 1.785-.763.51 0 .51 0 .51-.509 0-1.271 1.02-1.78 2.04-1.78.764 0 1.784 0 2.294.763.255.509.255.763.255 1.272 0 .254 0 .254.255.254 1.02-.254 1.785.254 2.04 1.272v1.017zm-4.59.509c.51 0 1.02-.255 1.02-.763 0-.509-.51-.763-1.02-.763s-1.02.508-1.02.763c0 .254.51.763 1.02.763z" fill="#E31E4C"/><path d="M204.237 211.303c-6.119 7.629-12.493 15.259-17.337 23.652 2.804-1.018 4.589-3.052 6.374-4.832 5.609-5.087 10.963-10.428 16.317-15.514.51-.509 1.02-1.272 1.785-1.018.765.255.765 1.272.765 1.781 1.275 6.103 1.02 11.953-3.06 17.294-2.294 3.052-5.354 4.323-9.433 3.56-1.275-.254-1.785 0-2.04 1.272-.255 1.017-.51 1.78-1.02 2.797-1.785 3.307-4.589 3.815-7.649 1.526-1.274-.763-1.784-.763-2.549.255-2.55 3.56-6.374 5.595-10.454 6.867-1.529.508-2.039-.255-2.039-1.526 0-4.07 1.784-7.376 4.589-10.173 1.02-1.272 1.53-1.781 0-3.052-1.275-1.018-1.275-2.289-.255-3.815a21.37 21.37 0 015.864-5.85c1.275-.763 1.785-1.526.765-3.052-1.53-2.288-1.275-4.323.765-6.358 4.079-4.323 9.178-4.577 14.788-4.323 1.019-.509 2.549-.509 3.824.509z" fill="#457C30"/><path d="M115.001 34.802c1.275 1.526 2.55 2.034 4.589.508 1.785-1.271 4.08-1.271 6.119.255 5.354 3.814 10.454 8.392 15.808 12.461 2.04 1.526 4.079 3.052 6.374 4.324 2.549 1.526 3.314 1.272 4.589-1.526 2.295-5.34 3.57-10.936 5.354-16.277.255-1.017.765-2.034 1.02-3.306 1.275-3.56 1.53-3.815 4.844-1.526.51.763.255 1.272 0 2.035-1.274 4.323-2.804 8.647-4.079 12.97-1.02 3.052-2.55 5.85-3.314 9.665 5.864-6.613 7.393-14.243 10.453-21.618 2.549 1.526 3.059 3.306 1.785 5.595-.765 1.526-1.275 3.306-1.785 4.832-.765.509-.255 1.526-.51 2.035-1.02.254-1.02 1.017-1.53 1.78-1.02 2.035-2.039 4.07-3.569 6.104v-.254c1.53.508 2.294-.509 3.059-1.526 3.315-3.306 5.609-7.121 6.884-11.445 2.295 1.272 3.06 3.815 1.785 5.595-6.629 10.682-14.278 20.346-26.771 25.178-12.748 5.341-27.791 0-33.145-11.19-3.059-6.104-2.549-12.207.51-18.057.765-1.272 1.02-2.289.51-3.56.255-1.018-.51-2.29 1.02-3.052zm16.827 30.773c2.805 1.526 5.609.508 8.669.508-.255 0-.51-.254-.765-.254 1.785-.254 3.315-.763 5.099-1.017.765-.254 1.785-.254 1.02-1.526-3.059-5.087-6.374-9.919-12.238-12.208-3.059-1.271-6.119-.254-7.904 2.544-3.314 5.086-.765 9.918 6.119 11.953zm-5.864-23.398c0-2.035-1.784-3.815-3.569-3.815a3.625 3.625 0 00-3.57 4.07c0 2.034 1.785 3.814 3.825 3.56 2.039 0 3.569-1.526 3.314-3.815z" fill="#F5C337"/><path d="M238.657 74.222h9.178c1.275 0 2.55 0 2.295 1.78 0 1.272.765 3.052-1.785 3.306-.51 0-1.53-.254-1.53.509-.255.763.51 1.272 1.02 1.78 2.04 1.526 3.825 3.052 5.864 4.578 3.825 3.306 5.099 7.375 3.825 12.208-2.55 9.155-9.179 15.768-16.063 22.38-.765.763-1.53.763-2.295 0-7.138-5.341-14.022-10.936-17.337-19.329-2.804-7.375-1.275-12.716 4.844-17.04 1.275-1.017 2.55-1.78 3.825-2.797.765-.508 1.785-1.017 1.53-2.034-.765-.763-1.785-.509-2.55-.509-1.785 0-2.805-.254-2.805-2.289 0-2.034.51-3.052 2.805-2.797 3.06.254 6.119.254 9.179.254zm-9.944 26.958c-.51-1.78-.51-3.815-.51-5.595.255-1.78.51-3.815.765-5.595 0-.509.255-1.017-.255-1.526-.765-.509-1.275 0-1.785.509-2.294 2.034-3.059 8.9-.764 11.19.764.509 1.274 1.271 2.549 1.017z" fill="#C56D3F"/><path d="M40.808 71.17l-1.02-1.017c-.51-.255-.765-.763-.765-1.272s0-1.017.51-1.526a1.63 1.63 0 011.53 0c.51.254 1.02.509 1.274 1.017.255.255.255.509.765.509 0-.509.255-1.017.255-1.526.255-.508.51-1.017 1.02-1.272 1.02-.254 1.785.255 1.785 1.526 0 .763-.255 1.526-.51 2.29.51-.255 1.02-.255 1.53-.51.51-.254 1.274 0 1.784 0 .765.255 1.275.764 1.275 1.527.255.763-.255 1.271-1.02 1.78-.51.509-1.274.763-2.04.763-.51 0-.51.254-.254.508.51.51.765 1.018 1.02 1.78.255.764.255 1.272-.51 1.781-.51.509-1.275.254-1.785 0a5.95 5.95 0 01-1.785-1.78c-.255.508-.765 1.017-1.02 1.526-.255.508-.764.763-1.02.763-1.02.254-1.784-.255-1.784-1.272 0-.763.255-1.526.765-2.289-.255 0-.51 0-.765.255-.765.254-1.275 0-1.785-.255-1.02-.763-.765-1.78 0-2.289.51-.763 1.53-.763 2.55-1.017zm3.06-.763c-.766 0-1.53.763-1.53 1.526s.764 1.526 1.53 1.526c.764 0 1.529-.763 1.529-1.526s-.765-1.526-1.53-1.526z" fill="#F5C337"/><path d="M116.531 107.03c-.51-1.018-1.02-2.035-1.785-3.052-2.55-4.324-4.079-9.156-3.314-14.242 1.019-7.63-.765-13.988-6.119-19.583-.255-.255-.255-.51-.255-.763 2.039-.509 3.824.508 5.609 1.017 7.394 2.035 14.022 5.086 18.357 11.699 1.53 2.543 2.549 5.595 2.804 8.647 0 4.069 0 8.138-.51 12.207-.509 5.087 1.275 9.156 5.355 12.462.764.509 1.529.763 2.039 2.035-4.079 1.271-8.413 1.78-12.748 2.289-7.903 1.017-15.807.254-23.456-1.526-7.904-1.78-14.788-5.595-19.122-12.462-2.295-3.561-3.57-7.63-3.314-12.462 5.354 4.578 11.473 5.087 17.592 6.104 6.119.763 11.218 3.56 16.317 6.867.765.508 1.53 1.271 2.55 1.271.255.255.51.255.51.509.255 0 .255 0 .51.254 0-.254 0-.254-.255-.508-.51-.255-.51-.509-.765-.763zm4.334-24.415c0 .762.255 1.78.255 2.543.765 3.815 1.275 7.63-.255 11.699-1.785-3.56-3.059-6.867-5.354-10.173-1.53 9.664 1.53 17.039 10.453 22.126-.255-4.324-.255-8.393.255-12.462.255-5.087-.51-10.173-5.354-13.733zm-20.907 21.108c1.275 1.781 3.315 2.035 4.08 4.07-3.06-.509-6.12-1.018-9.179-1.272 6.374 5.849 13.513 7.63 21.672 6.104-3.06-4.578-11.218-8.902-16.573-8.902z" fill="#4C8184"/><path d="M247.325 48.026c0 .763 0 1.272-.255 2.035-.255.763-.51 1.017-1.529 1.017-.51 0-.765.255-.765.509 0 .763-.51 1.526-1.275 1.78-1.275.509-2.55.509-3.825 0-.764-.254-1.274-.763-1.274-1.78 0-.509 0-.763-.765-.509-.765.255-1.275 0-1.53-1.017-.51-1.272-.51-2.543 0-3.815.255-.763.765-1.017 1.785-.763.51 0 .765.255.51-.508-.255-1.272.255-1.78 1.529-2.035a6.232 6.232 0 013.06 0c1.275.254 1.785.763 1.53 2.035 0 .254-.255.508.255.508 1.274-.254 1.784 0 2.039 1.272.51.508.51 1.017.51 1.271zm-5.609-1.017c-.765 0-1.275.509-1.275 1.017 0 .51.51 1.018 1.275 1.018.51 0 1.275-.509 1.275-1.017 0-.51-.51-1.018-1.275-1.018zm-98.924 34.588c0 .763 0 1.272-.255 1.78-.255.763-.765 1.018-1.53 1.018-.51 0-.51.254-.51.508 0 .763-.51 1.272-1.275 1.526-1.275.509-2.294.255-3.569 0-.765-.254-1.275-.763-1.275-1.526 0-.508 0-.763-.51-.508-.765.254-1.275 0-1.53-.763-.51-1.272-.51-2.544 0-3.815.255-.763.765-1.017 1.53-.763.51 0 .765.254.51-.509-.255-1.017.255-1.78 1.53-2.034a6.228 6.228 0 013.059 0c1.275.254 1.53.763 1.53 2.034 0 .255-.255.509.255.509 1.275-.254 1.785 0 2.04 1.272v1.271zm-5.1-1.017c-.764 0-1.274.508-1.274 1.017 0 .509.51 1.018 1.274 1.018.51 0 1.02-.51 1.02-1.018s-.51-1.017-1.02-1.017z" fill="#816CAD"/><path d="M212.141 145.941c-.255-.508-.255-.508-.51-.508-8.669-3.052-11.218-9.919-11.983-17.803-.51-5.341-.51-5.341 5.099-4.832 7.394.508 12.238 4.832 15.807 10.681.765 1.018 1.275 2.035 2.295 3.561 1.02-5.85 4.844-9.156 9.434-12.208 1.784-1.017 2.294-1.017 2.804 1.018.765 4.323 2.805 8.138 3.57 12.462.764 4.323-.255 7.884-4.335 10.427-2.294 1.526-2.294 2.543-.255 4.069 2.04 1.78 3.825 4.069 5.864 5.849 1.02 1.018.765 1.526-.51 1.781-1.529.254-2.549.254-3.824-.763-1.785-2.035-3.824-3.815-5.609-5.595-.765-.763-1.275-1.018-2.295 0-6.374 7.884-10.453 7.121-19.122 4.069-2.549-1.018-5.099-2.289-7.903-2.543-2.55-.255-1.785-1.272-.765-2.289 3.059-3.815 6.884-6.867 12.238-7.376z" fill="#8FB22B"/><path d="M308.771 51.333c-.765-1.018-.765-2.29-.51-3.56.765-2.036 2.549-2.798 4.844-2.798-.765-1.272-1.785-1.78-3.06-1.272-1.019.254-.765-.254-.765-.763.51-2.289 3.06-3.56 5.61-3.052 1.019.254 1.784.763 2.549 1.017.255-1.78-1.275-2.288-2.549-2.797 1.019-1.272 2.039-1.526 3.569-1.272 2.55.509 3.569 2.035 3.824 4.578 1.53-1.017 1.275-2.035 1.02-3.56 3.315.254 5.099 3.814 3.315 6.358-.255.254-.765.508-.255.763.255.254.765 0 1.02 0 1.02-.255 1.274-1.272 1.784-1.78 1.275 1.017 1.02 2.288 1.02 3.56-.51 2.289-2.039 3.56-4.589 3.815.765 1.271 1.53 1.526 3.569.763.255 1.017-.255 1.78-1.019 2.543-1.785 1.272-3.57 1.78-5.61.763-.255-.255-.51-.509-1.019-.255-.255.255 0 .764 0 1.018.255 1.017 1.274 1.271 2.039 1.78-1.02 1.272-2.549 1.526-4.079 1.017-1.53-.254-2.295-1.271-2.805-2.797-.255-.509 0-1.526-.51-1.526-.764 0-1.274 1.017-1.274 2.035v.254c-.255.508.51 1.017 0 1.271-.51.255-1.275 0-1.785-.254-2.295-1.272-2.805-4.07-1.275-5.85.255-.254.765-.508.51-1.017-.255-.508-.765-.254-1.275-.254-.765.254-1.53.509-1.785 1.526 0 .509-.254 0-.509-.254zm10.708-6.613c-1.785 0-3.06 1.017-3.06 2.544 0 1.525 1.275 2.797 3.06 2.797 1.53 0 2.549-1.272 2.549-2.797 0-1.527-1.019-2.544-2.549-2.544z" fill="#F5C337"/><path d="M312.85 205.199c0-.509.255-1.272.765-1.78.765-.763.51-1.272-.255-1.781-.51-.254-1.02-.508-1.53-1.017-1.53-1.272-1.53-3.052.51-3.815 1.275-.509 1.275-1.017.51-2.289-.765-1.017-.51-2.034.255-3.052.765-1.017 2.04-1.271 3.314-1.017.255 0 .255 0 .51.254.765.255 1.275 1.018 2.04.763 1.02 0 .765-1.017 1.275-1.78 1.275-1.526 4.334-1.526 5.099.509.51 1.017 1.02 1.017 1.785.508.765-.254 1.274-.508 2.039-.508 1.02-.255 1.785 0 2.295.508.51.509 1.02 1.272.51 2.289-.255.763-.51 1.526-1.275 2.289-.51.509-.765 1.017.255 1.017.255 0 .765.255 1.02.255 1.02.254 1.785.763 2.04 1.78 0 1.017-.51 2.035-1.53 2.543-1.02.509-1.53 1.018-.51 2.035.51.508.765 1.271.765 2.034.255 2.035-1.275 3.307-3.315 2.798-1.02-.254-2.039-.763-2.804-1.526-.51-.509-.765-.509-.765.254-.255 1.272-.765 2.289-2.295 2.544-1.53.254-2.549-.509-3.314-1.781-1.02-1.271-1.02-1.271-2.55-.508l-1.53.763c-2.039.763-3.314 0-3.314-2.289zm9.688-10.682h-1.784c-1.785 0-2.805 1.017-2.805 2.798v2.543c0 1.017.51 1.526 1.02 2.289 1.275 1.272 2.804.763 4.334.763 2.55 0 4.59-1.272 4.335-4.324-.255-3.306-1.02-4.323-5.1-4.069z" fill="#E31E4C"/><path d="M201.432 11.658c6.629.763 9.179 7.121 5.355 13.48 2.804.762 4.079 0 5.354-3.307 5.099 4.323 2.039 10.682-6.119 13.734 1.784 2.288 3.059 2.543 6.629 1.017.765 5.595-6.374 8.392-14.278 5.34-.765 3.053 1.02 4.324 3.824 5.341-1.784 2.29-4.079 2.798-6.884 2.29-4.589-1.018-5.864-4.324-6.374-8.393-2.804 1.78-3.314 3.306-2.294 6.612-3.06.509-5.099-.763-6.629-3.052-1.785-2.543-1.53-5.086 0-7.884.51-.763 2.04-1.526 1.275-2.543-1.275-1.017-2.805 0-4.08.508-1.02.51-1.529 1.526-2.039 2.798-2.55-1.78-3.06-4.323-2.295-7.121 1.02-4.07 4.334-5.34 8.414-5.85-1.275-2.543-2.805-3.051-6.884-2.034-.255-2.798 1.02-4.832 3.569-6.358 4.08-2.289 8.159-1.526 11.983 1.017.255-2.797-.765-4.069-4.844-5.34 1.785-2.544 4.334-2.798 6.884-2.29 5.099 1.018 7.139 4.07 7.649 8.139 2.549-1.018 2.804-2.035 1.784-6.104zm-2.549 17.294c0-2.798-1.785-4.578-4.589-4.323-3.06 0-5.355 2.034-5.355 4.832 0 2.797 2.55 5.086 5.61 5.086 2.549-.508 4.334-2.797 4.334-5.595z" fill="#B7D271"/><path d="M247.835 62.269c-.255 1.017-.51 1.78-.765 2.543-.765 2.289-2.039 4.323-4.844 4.578-2.805.254-5.864-1.272-6.884-3.815-.765-1.78-1.275-1.78-2.804-1.017-1.275.762-2.805 1.271-4.335 1.78-1.53.508-3.314.763-4.589-.509-1.53-1.526-1.785-3.306-1.02-5.34.51-1.527 1.275-2.544 2.295-3.816.765-1.017.765-1.271-.51-1.78a30.466 30.466 0 01-4.08-2.035c-3.314-2.288-3.059-5.849.51-7.883 1.02-.51 2.04-1.018 3.315-1.526-1.53-1.78-3.315-3.561-3.06-5.85.255-1.271.51-2.543 1.785-3.56 4.334-3.815 7.904-.255 11.728 1.526 1.53-5.087 3.315-6.613 7.394-6.867 3.315 0 4.844 1.017 6.629 5.086 3.314-.763 7.139-3.56 9.943.255 3.06 4.069-1.019 6.866-3.059 10.172 1.53.255 2.804.51 4.079 1.018 4.59 1.526 5.354 4.832 1.785 7.884-1.02 1.017-3.314 1.272-3.569 2.543 0 1.272 1.529 2.289 2.294 3.815 1.02 1.78 2.04 3.815.255 5.85-1.785 2.034-4.334 2.034-6.884 1.271-2.294-.763-3.824-2.543-5.609-4.323zm-16.572-13.225c-.51 6.866 2.294 9.664 9.433 9.664 1.02 0 2.295 0 3.315-.254 6.119-.763 8.413-3.56 7.903-9.41 0-1.272-.254-2.544-.254-3.56-.51-3.307-2.55-5.087-5.865-5.087h-8.668c-3.06.254-5.354 2.289-5.609 5.34-.255 1.018-.255 2.035-.255 3.307z" fill="#F192A7"/><path d="M336.816 154.334c-5.354-.509-8.923-3.052-10.198-8.138-2.55-9.665-1.785-19.075 4.589-27.467 4.844-6.359 13.768-6.613 19.632-1.018 6.884 6.613 9.688 21.618 5.609 30.265-1.53 3.052-4.079 5.341-7.904 5.341-.51 0-1.019.254-1.529.508v-.254c0-.254-.255-.763-.51-.509-.255 2.289 0 4.578 0 6.613h.51v-.255c.765 2.289 1.529 4.833.51 7.121-3.06 1.018-3.315 1.018-3.315-2.288 0-4.833 0-9.919-.255-14.751 0-2.289.51-3.561 3.06-3.815 2.549-.509 4.589-1.526 5.609-4.069-2.295 1.017-4.335 1.78-6.629 2.289-1.275.254-2.295.254-2.55-1.272-.255-1.272-1.02-2.798 1.275-3.306 1.785-.255 3.569-.763 4.334-2.543.255 0 .51-.255.255-.509 0 .254-.255.254-.255.509-1.274.254-2.549.763-3.824 1.017-.765.254-2.295 1.271-2.55-.509 0-1.271-1.784-3.052 1.02-3.815 1.02-.254 2.295-.508 2.55-2.289-.51 0-1.02.255-1.275.255-2.295 1.017-3.06.254-3.06-2.035 0-1.526.255-3.306-1.019-4.832-1.02 1.526-.51 3.052-.255 4.578.255 3.052.255 3.052-3.06 2.543-1.53-.254-1.02.254-.765 1.017 0 .509 0 .763.51 1.018 3.06 1.526 3.06 1.526 1.53 4.323-1.785-.254-3.315-.763-5.099-1.017.51 1.78 1.784 2.034 3.059 2.543.255.509.765.763 1.275.763 1.275 0 1.785.254 1.785 1.526 0 1.526-1.275 1.526-2.295 1.526h-2.804c-1.275-.254-2.55-.763-3.825-1.017h-.255.255c-.255.763.255 1.271.765 1.526 1.785 1.526 3.824 2.034 5.864 2.034 1.785 0 2.55.763 2.55 2.798.765 3.56-.255 5.086-3.315 5.595z" fill="#8FB22B"/><path d="M290.158 60.743c.51-.255.51-1.018.51-1.526 0-2.035 0-4.07-.255-6.104 0-1.017 1.53-2.289 2.55-1.78.51.254.255.763.51 1.017 0 2.035.255 4.07.255 6.104 0 .508 0 1.017.51 1.526.765-2.035.51-3.815.765-5.85 0-.509-.51-1.78.51-1.78 1.019 0 1.784.509 2.039 1.78.51 3.052 1.02 5.85.765 8.901-.255 2.544-1.785 4.578-4.334 5.596-1.02.508-1.53 1.017-1.275 2.034v.763c.255.509-.255 1.526.51 1.78.765.255 1.275-.508 1.785-1.017 3.569-3.052 5.354-6.612 5.354-11.19v-7.121c0-1.017.255-1.272 1.02-1.526.51-.254 1.02 0 .765.509 0 4.832.255 9.41-1.02 13.987-1.02 3.56-3.06 6.104-6.119 8.139-1.53 1.017-1.785 1.78-1.53 3.306 0 .509.765 1.526-.51 1.78-1.53.255-3.06-.763-2.805-1.78.255-1.78-.509-2.543-2.039-3.306-5.099-2.543-7.394-7.121-7.904-12.462-.255-3.56 0-7.121.255-10.682 0-.254 0-1.017.51-.763.51 0 1.275 0 1.275.763v10.936c0 4.578 3.059 7.63 6.629 10.173.765.509 1.019.254 1.019-.508 0-.51-.254-1.018 0-1.526.255-1.272-.509-2.035-1.784-2.544-2.805-1.271-3.57-3.56-3.825-6.103-.255-3.052.51-5.85.765-8.648 0-.508.51-1.017 1.02-.762.765.254 1.785-.255 2.04 1.017.255 2.034.765 3.815 1.275 5.85.255.254.255.762.764 1.017z" fill="#3DB8BE"/><path d="M359.763 143.144c3.059-2.798 8.158-2.544 11.218.254 1.02 1.017 1.53.763 2.039-.254.765-1.272 1.785-2.544 2.805-3.815 1.53-1.78 1.785-1.78 3.315.254 1.019 1.526 1.784 3.052 2.804 4.578 3.315-4.069 7.394-3.306 11.473-1.526 0 .763-.765 1.017-1.275 1.272-2.804 2.289-3.569 5.34-2.549 8.647 1.53 4.069 2.804 8.138 2.804 12.716 0 7.121-4.079 11.19-11.473 12.207a46.356 46.356 0 01-8.413 0c-7.139-1.017-11.219-6.612-10.454-13.987.255-3.561 1.02-6.867 2.04-10.173 1.02-4.324.255-6.358-3.57-8.902 0-.763-.509-1.017-.764-1.271zm28.045 19.583c0-2.544-.51-3.815-3.059-4.833-4.845-2.034-9.689-2.034-14.533-.254-3.824 1.272-4.844 5.087-3.06 8.647.765 1.272 1.53 2.289 2.805 3.052 2.295 1.526 4.589 3.052 6.629 4.578 1.02.763 1.53.763 2.55 0 1.784-1.526 3.569-2.798 5.099-4.324 2.039-1.78 3.569-3.814 3.569-6.866zm-15.807-12.971c0-1.272 0-1.78-.51-2.289-.765-1.526-2.04-2.034-3.57-1.526-1.784.763-1.529 2.289-.51 3.561.255.508.765 1.271 1.275 1.78.51.509.765 1.78 1.785 1.526s1.02-1.272 1.275-2.289c.255-.509.255-.763.255-.763zm7.139-1.017c0-1.526-.51-3.052-2.295-3.052-2.04 0-2.805 1.526-1.785 3.815.51 1.271 1.02 3.306 2.295 3.052 1.53-.255 1.785-2.289 1.785-3.815zm6.883-.763c0-1.017 0-2.035-1.529-2.035-1.275 0-2.55.255-2.805 1.526-.255 1.78.51 3.561 1.275 5.087.255.254.51.254.765 0 1.275-1.272 2.294-2.544 2.294-4.578 0 .254 0 0 0 0z" fill="#816CAD"/><path d="M210.611 85.412c0 .254.255.509.255.763-2.295 2.035-2.805 4.832-4.079 7.375-2.805 4.833-5.1 9.665-7.649 14.497.255 0 .51.254.51.254 3.824-4.578 7.649-9.155 11.473-13.479 1.02-1.272 1.785-3.56 3.314-3.052 1.53.509 1.53 2.798 1.785 4.578.255 1.526 0 3.052-.765 4.578-.51 1.017-1.275 2.034-1.275 3.306-4.334 5.85-10.198 10.427-17.082 13.479-1.02.509-1.785.763-2.804 1.018-1.275.508-2.295 0-2.295-1.272.255-8.647-.255-17.548 5.099-25.178 1.02-1.526.765-2.29-1.02-2.798-7.649-3.052-14.023-7.63-19.632-13.479-1.784-1.78-1.529-2.034.765-3.052 4.844-2.034 9.434-4.069 14.533-5.34 1.785 0 3.314 0 5.099.254 7.394 1.017 11.728 3.815 13.258 9.918.765 2.798.255 3.052-2.55 2.544-6.119-1.272-12.238-2.798-18.357-3.561-.255 0-.255-.254-.51 0h.51c.255.763.765 1.017 1.53 1.272 2.55 1.017 5.099 2.289 7.904 3.306 4.079 1.017 7.904 3.052 11.983 4.07zm94.845-7.375c1.275.508 2.295 1.271 3.57 1.78.255 0 .255.254.509.254 1.53.763 1.53 1.272.255 2.29-1.019.762-2.039 1.525-3.569 1.525-.51 0-.765 0-.51-.508.255-.51 0-.763-.51-.51a3.543 3.543 0 01-2.294 0c-.51 0-.51-.253-.255-.762s.764-.763.764-1.272c-.255-.508-.764-.508-1.274-1.017-1.02-1.017-2.04-2.035-2.805-3.306-.51-.763-.255-1.018.51-1.272 1.02-.508 2.04-.508 3.06-.763.764 0 .764-.254.764-1.017 0-.509-.51-1.526.255-1.78.765-.255 1.53.254 2.295.508.51.255 1.02.509 1.53 1.017.51.255 1.02.51 1.275-.254.255-.763.764-.508 1.274 0 1.275 1.272 1.53 2.798 1.53 4.324 0 2.543 0 2.034-2.04 1.78-1.019-.254-2.294-.509-3.314-.763-.765-.509-.765-.509-1.02-.254 0-.255 0-.255 0 0z" fill="#457C30"/><path d="M325.598 151.536c-2.04 1.272-3.06 2.798-3.57 4.578-1.274 4.069-3.824 6.867-7.393 8.902l-.51.508c1.02 0 1.784-.254 2.549-.254 2.295-.254 4.335 0 6.374 1.272 2.55 1.525 5.354 2.797 8.414 1.017-1.02 5.849-5.099 9.918-11.218 7.375-1.275-.508-2.55-1.271-4.08-1.78-2.549-1.272-5.099-2.543-7.903-.509-.255-1.78 0-3.306.255-4.832 1.019-5.341 3.059-9.918 6.629-13.733 2.804-3.307 6.119-4.07 10.453-2.544zm-13.258 17.803c2.55.509 4.589 2.035 7.139 2.543 1.785.509 3.569 1.018 5.609.509.765-.254 1.785-.254 2.295-1.272-3.06-.508-5.864-.763-8.414-2.034 1.53-.255 3.059-.255 4.589-.763-4.334-2.035-7.649-2.289-11.218 1.017zm5.354-12.97c-3.314 1.526-4.844 4.069-5.609 7.375 0 .254-.255.509 0 .763s.51 0 .765-.254c1.53-1.018 3.059-2.035 4.334-3.561.255-.509.765-.763.765-1.526-.765-.254-1.02 1.017-2.04.763.51-1.272 1.02-2.289 1.785-3.56z" fill="#4C8184"/><path d="M221.829 113.642c1.275-.509 2.295-.763 3.315-.763s1.784.509 2.294 1.526c.255 1.017 0 1.526-1.019 2.543-.765.509-1.53.763-2.55 1.018-.765 0-.765.254-.255.763a4.909 4.909 0 011.275 2.288c.255.763 0 1.272-.51 1.781-.765.508-1.275.508-2.04 0-.765-.509-1.53-1.018-2.039-1.781-.255-.508-.51-.508-.765 0-.255.509-.765 1.272-1.275 1.781-.765.763-1.53 1.017-2.295.508-1.02-.508-1.02-1.271-1.02-2.034 0-.763.51-1.272.765-2.035-.765 0-1.53.509-2.294.255-1.02-.255-1.53-.763-1.785-1.781 0-1.017.765-1.271 1.53-1.78.765-.254 1.529-.254 2.549-.509-.51-.508-1.02-.763-1.275-1.271-.509-.509-.764-1.018-.764-1.781-.255-1.271 1.019-2.288 2.294-1.78 1.02.255 1.785 1.272 2.805 1.78 0-.508.255-1.271.255-1.78.255-1.271 1.02-1.78 2.039-1.78 1.02.254 1.275 1.017 1.275 2.289.255 1.017 0 1.526-.51 2.543zm-.255 2.543c0-1.017-1.02-1.78-1.784-1.78-1.02 0-1.785 1.017-1.785 1.78 0 1.018 1.02 1.781 1.785 1.781 1.019.254 1.784-.763 1.784-1.781z" fill="#F192A7"/><path d="M388.063 76.002V59.725c1.785 1.526 2.805 3.307 4.334 4.578 2.04 1.78 2.55 3.815 1.785 6.104 0 .254 0 .763-.255 1.017-.765 4.324-2.039 8.647-6.119 10.682-9.688 5.086-23.456-.763-22.436-13.48 0-1.017-.255-1.525-1.275-1.78-1.275-.508-2.55-.763-3.57-1.78 1.275-.254 2.55-.508 3.57-.508 1.53 0 2.295-.51 2.804-1.78 1.02-2.29 2.55-3.053 5.1-2.29 1.02.255 2.039 1.018 2.804 1.526 2.295 1.78 4.335 4.07 6.119 6.104 2.04 2.543 4.335 5.087 6.374 7.63.51.508.51.254.765.254zm-12.238-8.647c-1.275-1.017-2.55-.509-3.059 1.272-1.02 2.797.255 6.104 3.059 7.12 2.805 1.272 6.119 1.527 9.689 1.272-3.57-3.56-6.374-6.866-9.689-9.664z" fill="#816CAD"/><path d="M31.629 91.007c0 4.07-3.06 6.867-6.884 6.104-3.57-.509-5.864-2.797-7.139-6.104-.765-2.034-1.785-4.069-3.824-5.34-.765-.51-1.275-1.272-1.785-2.035-3.06-4.07-1.53-8.647 3.315-10.427 1.53-.51 3.314-.763 5.354-.51-2.805 2.799-6.12 5.087-4.59 10.174v-.509c1.275-4.832 4.845-7.375 8.924-9.155 2.55-1.018 4.844-2.544 5.1-5.85 1.529 1.526 2.039 3.306 1.02 5.087-.766 1.526-2.296 2.797-3.57 3.814-2.04 1.272-3.825 2.544-5.864 4.07-1.53 1.017-2.805 2.543-3.315 4.578 0 1.271.255 1.78 1.53 1.78 2.55.254 4.844-.255 6.884-1.526 2.04-1.272 4.08-2.798 6.119-3.815 2.804-1.526 4.59-1.017 5.864 1.526-3.315-.254-5.1 1.526-7.139 3.815-2.04 2.289-5.1 2.797-7.904 3.306-.765.254-1.53.254-2.804.509 3.57 3.56 7.139 1.78 10.708.508z" fill="#B7D271"/><path d="M152.99 76.51c2.55.51 5.609.764 7.649 3.053 1.02 1.271 2.039 1.271 3.569.254 1.53-1.017 3.06-2.035 4.844-2.543 5.1-1.78 9.434.763 10.709 6.103 1.53 5.596-1.275 9.665-4.335 13.734-2.804 3.561-6.119 7.121-9.688 10.173-1.02 1.017-1.785 2.035-1.785 3.306.255 4.832-.765 9.41 0 14.242.255 1.018 0 2.289-1.784 2.289-1.785 0-2.805-1.017-2.805-2.797.51-4.07 0-7.884.255-11.954.255-2.543-1.02-4.323-2.55-5.849-4.079-4.069-8.158-7.884-11.473-12.716-2.804-3.815-2.549-7.884-1.53-11.954 1.02-3.306 4.59-5.34 8.924-5.34zm1.53 15.514c0 .51 0 1.018.255 1.526 1.275 3.815 4.589 6.613 7.139 9.665.51.508 1.019.508 1.529-.255 2.04-3.56 5.1-6.103 6.884-9.918.765-1.78.51-3.052-.765-3.815-1.274-1.017-3.059-1.78-4.589-.509-1.785 1.526-3.059 1.272-4.844 0-2.55-1.526-5.609.509-5.609 3.306z" fill="#E31E4C"/><path d="M321.009 119.746c-1.275 2.034-3.06 2.797-5.355 2.797-.509 0-.764-.254-.764-.763 0-2.034.764-3.814 2.549-5.34-1.53-1.018-2.549-2.289-3.314-3.815-.255-.509 0-.763.51-1.018 1.784-.762 4.079-.254 5.354 1.272.255.254.51.509 1.02 0 1.274-1.526 3.314-1.78 5.099-1.526.51 0 .51.254.255.763-.51 1.78-1.275 3.052-2.805 4.324.51.508 1.275.508 1.53 1.017 1.275 1.272 1.53 2.798 1.785 4.323 0 .255 0 .509-.51.509-1.785-.509-3.825-.763-5.354-2.543zm-.51-2.289c.51 0 1.274-.254 1.274-1.017 0-.509-.254-1.018-1.019-1.272-.51 0-1.275.509-1.275 1.272 0 .508.51.763 1.02 1.017zM110.922 64.558c-1.275 2.288-3.315 3.051-5.864 3.051-.765 0-.765-.254-.765-.762 0-2.29.765-4.324 2.804-5.85-1.785-1.017-2.804-2.543-3.569-4.324-.255-.763 0-1.017.51-1.271a5.558 5.558 0 015.864 1.271c.255.51.51.51 1.02 0 1.529-1.78 3.569-2.034 5.609-1.78.51 0 .51.509.255.763-.51 1.78-1.53 3.56-3.06 4.832.51.509 1.275.763 1.785 1.272 1.275 1.272 1.785 3.052 2.04 4.578 0 .254 0 .509-.51.509-2.295 0-4.59-.255-6.119-2.29zm-.51-2.544c.51 0 1.274-.254 1.529-1.017 0-.763-.509-1.272-1.274-1.272s-1.275.509-1.275 1.272c0 .509.255 1.017 1.02 1.017z" fill="#F192A7"/><path d="M271.036 67.355c1.02-1.272 2.04-2.289 3.06-3.56.255-.51.765-.255 1.275 0 1.275 1.017 2.294 2.543 3.569 3.814 1.02 1.272 1.53 2.798 1.53 4.578 0 1.78-.765 3.56-2.55 4.578-.51.254-1.019.254-1.784.254-.765 0-1.275-1.017-1.02-1.78.51-1.526 1.02-2.797.765-4.323 0-.51-.255-1.272-.51-1.78 0-.255-.255-.764-.51-.51-.255 0-.255.51-.255.764 0 1.271 0 2.289-.255 3.56 0 .509-.255 1.017-.51 1.526-.51.763-1.02 1.526-1.785 1.272-1.02 0-1.529-.763-2.039-1.526-.765-1.272-.765-2.543-.255-3.815.255-1.526.51-2.543 1.274-3.052z" fill="#457C30"/><path d="M267.467 25.392c-.51-1.272-1.02-2.29-1.02-3.56 0-1.273 0-2.544 1.53-3.307 1.275-.763 2.295 0 3.059.763.51.509.765.254 1.275 0 1.02-.509 2.04-.509 3.06.254.765.763 1.02 1.78.51 3.052s-1.53 2.289-2.55 3.306h3.315c1.529 0 2.804.509 3.314 2.035.255 1.526-.51 2.289-1.785 2.798-.765.254-.255.762-.255 1.017.255 2.034-1.529 3.56-3.569 2.797-2.04-.508-3.315-2.034-4.079-3.814-.255-.764-.765-.764-1.275-.255-1.275.763-2.805 1.526-4.335 2.035-1.274.254-2.549.254-3.314-.763-.765-1.017-.765-2.035 0-3.052.51-.509.255-.763-.255-1.017-1.02-.763-1.02-1.78-.51-2.798.765-1.017 1.785-1.272 3.06-1.272 1.274.255 2.549 1.018 3.824 1.78z" fill="#F5C337"/><path d="M61.46 96.857V95.33c.51-3.306 0-5.341-4.08-6.867-4.59-1.526-6.374-5.85-5.354-9.664.51-2.035 2.04-3.56 3.824-4.578 3.315-1.78 6.63-2.29 10.454-1.526 3.314 1.017 6.119 2.797 6.884 6.358.764 3.56-1.02 6.358-3.57 8.647-1.02 1.017-2.294 1.526-3.824 1.78-1.275.255-1.53.763-1.53 2.035v9.918c0 1.781-1.275 2.035-2.55 2.289-.764.255-.51-.508-.51-1.017 0-1.78 0-3.815.255-5.85-.255 0 0 0 0 0zM63.5 82.36c2.549 0 4.588-1.526 4.843-3.56 0-2.035-2.04-3.56-4.589-3.56-2.55 0-4.334 1.525-4.334 3.56-.255 2.034 1.53 3.56 4.08 3.56zm114.221 110.886c1.02.508 1.785.763 2.55 1.017.51.254.765.508.255 1.017-2.04 2.035-4.335 3.306-7.139 2.798-1.275-.255-2.295-.763-2.805-1.781-1.53-2.288-2.294-4.832-2.039-7.629.255-1.781 1.274-3.052 2.804-3.561 2.04-.763 4.334-.508 6.629-.254.765 0 .765.508.51 1.017-.255.254-.255.509-.51 1.017-1.275 1.526-1.275 1.526.765 2.289.765.255 1.785.255 2.04 1.018.255.763-.765 1.271-1.275 1.78-.51.254-1.02.509-1.785 1.272z" fill="#F192A7"/><path d="M392.397 230.631c-3.059 1.017-5.609 1.017-8.668 1.017-9.434 0-15.808-6.103-22.182-11.953-7.139-6.358-15.042-11.19-24.476-13.988 1.275-1.78 2.805-2.289 4.334-3.051 7.649-3.815 14.788-3.561 21.927 1.525 3.569 2.544 6.884 5.596 9.688 9.156 5.1 6.358 11.219 11.445 17.593 16.277.765.254 1.02.509 1.784 1.017z" fill="#B7D271"/><path d="M252.934 145.941v-4.832c0-1.017-.255-1.526-1.274-1.78-2.55-.763-4.59-2.035-6.119-4.324-2.04-3.56-1.275-7.121 2.294-9.41 3.315-2.034 6.884-2.543 10.454-1.017 3.059 1.272 4.844 3.815 4.844 6.867 0 3.306-2.295 6.612-5.354 7.629-2.04.509-2.295 1.526-2.295 3.307.255 2.797.255 5.849.255 8.647 0 1.017-.51 1.271-1.53 1.271s-1.53-.254-1.53-1.271c.255-1.781 0-3.307.255-5.087zm1.53-13.733c.51 0 1.02 0 1.53-.255 1.275-.508 2.549-1.017 2.804-2.543.255-1.526-.509-2.543-1.784-3.306-1.785-1.017-4.59-.509-5.864 1.017-1.02 1.272-1.02 2.798.255 3.815.764.763 2.039 1.272 3.059 1.272z" fill="#816CAD"/><path d="M52.026 50.824c-1.785 1.017-3.57 2.289-5.61 3.306-.51.255-2.294 0-2.549-.509-.255-.254 0-.508 0-.763.51-1.271 1.53-2.288 2.55-3.051 3.824-3.052 8.158-3.56 12.748-2.29.765.255.51.51.255 1.018-2.55 4.324-6.63 7.121-11.473 8.901-.51.255-.51.255-.765-.254-.255-1.272-.255-2.035 1.02-2.797 1.274-.764 2.294-1.78 3.569-2.798 1.02-.509 1.785-1.272 2.55-2.035-.765.255-1.53.509-2.295 1.272z" fill="#8FB22B"/><path d="M97.409 53.113c-.255-1.526-.255-3.052-.255-4.578 0-1.017-.51-1.526-1.53-1.78-3.314-.763-5.61-2.544-6.374-5.595-1.02-3.307.765-5.85 3.314-8.139 2.295-2.034 5.1-2.797 7.904-1.526 3.06 1.272 5.354 3.56 5.609 7.121.255 3.307-1.274 5.85-4.079 7.376-2.04 1.017-2.295 2.034-2.04 3.815.255 2.289.51 4.578.51 6.612v1.017c-.255.763-1.02 1.526-1.784 1.526-.765 0-.51-1.017-.51-1.526-.765-1.271-.765-2.797-.765-4.323-.255 0-.255 0 0 0zm.51-12.716c2.294-.255 3.824-1.78 3.569-3.56-.255-1.781-2.294-3.561-4.08-3.561-2.039.254-3.824 2.288-3.569 4.323 0 1.78 1.785 3.052 4.08 2.798z" fill="#816CAD"/><path d="M271.291 116.694v-14.751c0-1.526-.254-2.034-2.039-2.289-2.55-.254-4.335-1.78-5.609-3.815-2.295-3.306-2.805-6.866-3.315-10.681-.255-1.526-.255-3.052-.51-4.578 0-.509-.255-1.526.765-1.272.765 0 2.04-.508 2.295 1.018.255 1.78.255 3.306.765 5.086 1.019 4.324 2.549 5.595 6.884 6.104 1.529.254 3.314.254 4.844 0 3.059-.509 4.844-2.035 5.609-4.832.51-1.526 1.02-3.052.765-4.578-.255-2.035 1.275-2.035 2.549-2.035.765 0 .765.509.765 1.018 0 4.069 0 8.138-1.02 12.207-1.019 4.07-4.334 5.85-8.413 6.613-1.275.254-1.53.763-1.53 1.78 0 3.815-.255 7.884 0 11.699.255 2.034-.51 3.052-2.805 3.306zm107.594-24.161c1.019-.254 1.784-.254 2.549-.254.765 0 1.53.254 2.295.254-.765-1.526-1.785-3.052-1.785-4.832 1.785.254 3.06 1.272 4.589 2.035.255-1.78.765-3.307 1.785-5.087 1.785 2.798 3.315 5.595 3.06 9.156-.255 2.797-2.55 4.323-5.355 3.56-2.804-.508-4.844-2.543-7.138-4.832z" fill="#F192A7"/><path d="M382.709 114.659c2.04-1.271 3.824-2.034 5.354-3.052 3.57-2.288 7.139-2.034 10.963-1.017 3.06.763 5.355 4.578 4.845 7.376-.51 3.56-3.06 5.595-7.139 5.34-1.785 0-3.315-.254-5.099-.508-4.845-1.018-9.434-.255-13.768 1.526-1.53.508-2.04 1.017-1.785-1.018 1.02-6.103-1.02-11.699-4.079-16.785-1.53-2.543-2.04-5.087 0-7.884 3.059-3.815 8.668-3.306 11.218 1.017 2.295 3.561 1.785 7.376.51 11.445-.255.763-.765 2.034-1.02 3.56zm-56.601-7.375c-3.315 1.78-6.374 2.035-9.434 2.543-4.589.763-8.413-1.017-11.728-3.815-5.099-4.323-8.158-9.664-8.923-16.53-.51-5.341-.51-5.087 4.844-3.816 5.609 1.526 11.728 2.798 16.572 6.104 5.354 3.56 9.689 8.139 12.748 13.734-.255.254-.255.508-.51.763-8.923-4.832-17.592-9.41-26.77-14.497 1.019 4.07 3.569 6.358 9.688 9.665 4.334 2.543 8.669 3.56 13.513 5.849zm11.728-.763c.51-3.561 3.314-5.595 5.354-8.138 5.099-6.104 11.983-8.902 19.632-10.936 2.805-.763 5.354-1.78 8.159-2.29 1.02-.254 1.784 0 1.53 1.272-.765 7.376-2.55 14.242-8.669 19.329-4.079 3.561-8.669 5.595-14.278 4.069-2.295-.763-4.844-.508-7.139-2.034 8.159-4.07 18.102-5.596 22.692-15.006-3.315.51-5.354 2.29-7.649 3.561-5.864 3.052-11.473 6.104-17.082 9.41-1.02 0-1.785.254-2.55.763z" fill="#457C30"/><path d="M209.336 62.269c-1.02 1.526-1.785 2.797-2.804 4.069-.255.509-.765 1.017-1.53.763-.51-.254-.765-.763-.765-1.526v-4.07c-2.295.764-4.334 1.78-6.629 1.78.255-1.27 1.275-2.288 1.785-3.305 1.53-2.29 3.314-4.578 5.864-6.104 4.334-3.052 8.668-1.526 9.433 3.56.51 3.561-.51 7.122-1.529 10.428-.255 1.017-.765.763-1.275 0-1.275-1.526-1.785-3.56-2.55-5.595z" fill="#816CAD"/><path d="M172.367 232.92c-1.785-.254-3.824-1.272-5.354-2.289-.51-.254-1.275-.508-1.275-1.271.255-.509 1.02-.255 1.785-.255h1.53c.509 0 .764-.254.254-.508-.509-.509-.764-1.018-1.274-1.526-.255-.255-.51-.509-.255-1.018.255-.254.51-.254 1.02 0 .509.255 1.019.255 1.529.509.765.254.765 0 .765-.509v-2.289c0-.508.255-.763.765-.254 1.785 1.78 3.57 3.306 4.079 5.85.765 1.78-1.019 3.56-3.569 3.56z" fill="#3DB8BE"/><path d="M163.953 149.756h-5.354c-1.275 0-1.785.509-2.04 1.78 0 1.272.765 2.035 1.785 2.289 1.275.509 1.53-.508 1.785-1.526.255-.763.765-1.526 1.785-1.271.764.254 1.274 1.017 1.274 1.78 0 1.78-3.059 4.832-5.354 4.832-2.039 0-4.079-2.034-4.334-4.069-.51-3.052 2.295-5.341 2.804-7.63.51-2.543-1.274-5.341.51-8.138 1.53-2.289 3.825-3.306 7.394-2.798 2.295.255 5.354 3.052 5.609 4.832 0 1.526-.765 3.052-2.294 4.07-1.275 1.017-3.06.763-4.335.254-.764-.254-.764-1.017-.764-1.526 0-.763.509-1.017 1.274-1.272.765 0 1.785.255 2.04-.763 0-.508 0-1.017-.765-1.271-1.275-.254-2.04-1.78-3.569-.763-1.53 1.271-2.805 2.543-2.295 4.578.51 1.78 1.785 3.306 4.334 3.306 3.315.254 6.119-.763 7.394-3.306 1.53-3.052 2.805-6.358-.255-9.665-1.53-1.526-2.804-3.56-3.569-5.849-.255-1.017-.765-2.543.255-3.052 1.275-.763 2.039.763 2.549 1.78 2.55 4.578 6.884 5.85 11.729 6.358 3.314.255 6.628 0 10.198.255 2.55 0 4.334 1.271 6.119 3.052 1.02 1.017.765 1.78-.765 2.034-1.275 0-2.804.509-3.824-.508-1.53-1.526-3.315-1.526-5.354-1.526-3.825-.255-7.649.508-11.474-.509-1.529-.509-1.02 1.272-1.02 2.035 0 3.814-1.274 7.121-3.824 10.173-2.55 2.797-5.609 1.78-7.649 2.034z" fill="#457C30"/><path d="M332.737 93.55c-8.414 1.526-14.533-2.797-15.808-10.681-.51-3.56-.765-7.376-1.02-11.19 0-1.272-.764-2.544-1.529-3.561-1.02-1.272-2.04-1.526-3.57-1.017-1.785.763-2.804 0-2.294-2.035.509-3.052 4.079-5.086 7.393-4.832 4.59.763 6.374 4.324 7.394 7.63 2.295 9.155 6.374 17.294 9.434 25.686.255-.254 0 0 0 0zm2.294-.254c3.57-7.884 7.139-16.022 9.689-24.415 1.02-3.306 2.295-6.867 6.374-8.138 4.079-1.272 8.924 2.288 8.159 5.85-.255 1.016-.51 1.78-2.04 1.016-2.55-1.271-3.569-.763-4.589 1.78-1.02 2.035-1.02 4.324-1.02 6.613 0 3.306-.255 6.613-1.53 9.664-2.549 6.359-7.394 8.647-14.788 7.63 0 0-.255-.254-.255 0z" fill="#E31E4C"/><path d="M165.738 191.465c-1.785.763-3.569 0-4.334-1.78-1.785-3.306-.765-7.63 2.294-9.664 1.02-.509 1.785-1.018 2.805-1.526.765-.255 1.02-.255 1.275.508.255 1.272.51 2.544.765 4.07.255.508 0 1.017-.51 1.017-.51.254-1.02.254-1.53.508-3.06 1.272-3.57 4.578-.765 6.867zm-2.04 9.156c-.51-2.543 0-4.578 1.785-5.341.255-.254.51-.509.765-.254.255.254 0 .508-.255.763-.765 2.289.255 4.323 2.55 4.832a6.235 6.235 0 003.059 0c.51 0 1.02 0 1.02.763.255 1.272.51 2.543 1.02 4.069 0 .509.255.763-.51 1.017-3.315.509-7.394-.508-9.179-4.069 0-.508-.255-1.271-.255-1.78z" fill="#4C8184"/><path d="M338.601 191.974c-5.864-4.832-7.649-9.664-6.119-16.786 4.844 2.544 7.139 9.41 6.119 16.786z" fill="#B7D271"/><path d="M73.443 46.246c-1.785-3.815-2.295-7.63-1.53-11.444.765-4.578 2.294-8.902 4.08-13.225.254-.509.51-1.78 1.274-.763 3.57 4.323 7.904 8.392 10.198 13.733.765 1.526 1.275 3.306 1.275 5.85-2.804-1.78-5.609-3.052-8.159-4.832-1.53-1.018-2.04-1.018-2.804 1.017-.765 3.56-1.785 6.612-4.334 9.664z" fill="#F192A7"/><path d="M105.058 72.95c2.039 3.56 3.059 7.376 2.294 11.445-.255 2.034-.765 4.323-1.02 6.358 0 .508-.255 1.272-1.02.508-3.569-3.306-7.903-5.849-9.943-10.427-.255-.508-.51-1.271-.51-2.034 1.785.763 3.825 1.526 5.609 2.543 1.275.508 1.785.508 2.04-1.017.51-2.544 1.275-4.833 2.55-7.376z" fill="#F5C337"/><path d="M274.351 50.315c-.255 7.63-3.06 13.734-9.434 18.312-2.549 2.034-5.099 3.815-7.648 5.85-.51.254-1.02 1.016-1.53.508-.51-.254-.51-1.017-.255-1.526 1.53-6.613 2.804-13.48 8.414-18.312 2.804-2.288 5.099-5.34 8.158-7.375.765-.508 1.02-1.526 2.04-1.017 1.02.508.51 1.526.51 2.289-.255.763-.255 1.017-.255 1.271z" fill="#457C30"/><path d="M265.682 81.088c-.509-1.525.255-2.034 2.04-2.034h10.453c1.02 0 1.53.254 1.53 1.526s-.255 2.543-.51 3.815c-1.02 3.306-3.314 4.832-7.139 4.832-3.059 0-4.589-1.272-5.609-4.832-.765-1.017-.765-2.035-.765-3.306zm100.964 161.496c6.374-3.56 12.748-6.612 21.417-6.866-1.785 1.78-3.059 3.306-4.844 4.577-1.53 1.272-1.785 2.035.765 3.052 2.804 1.018 5.354 2.544 7.649 4.324-7.649 2.289-15.043.509-24.987-5.087z" fill="#F5C337"/><path d="M324.323 211.557v21.617c0 .509.255 1.018-.51 1.018s-1.275-.255-1.275-1.018v-19.328c-.255-1.526 0-2.289 1.785-2.289z" fill="#C56D3F"/><path d="M334.012 86.175c-2.805-6.104-5.355-11.699-6.629-17.548-.255-1.018-.765-2.543.51-3.306 1.274-1.018 2.294.254 3.569.508.765-.508.51-1.271 1.02-2.034 1.275-1.78 2.804-1.78 3.824 0 .51 1.271 1.02 1.78 2.55 1.271 1.785-.508 2.294.509 2.04 2.035-.255 3.052-1.53 5.85-2.55 8.647-1.275 3.56-2.805 6.612-4.334 10.427z" fill="#B7D271"/><path d="M270.272 113.896c0 3.052-.51 3.307-2.805 2.544-3.569-1.526-5.864-4.07-7.649-7.376-1.02-2.289-1.275-4.578-1.784-6.866 0-.509 0-1.018.509-1.272.51-.254 1.02 0 1.275.254 4.08 3.306 8.159 6.613 10.199 11.699.255.254.255.763.255 1.017zm17.337-11.444c-.765 5.849-3.06 10.681-8.924 13.479l-.255.254c-1.019 0-2.294 1.018-3.059.255-1.02-.763-.255-2.035 0-2.798 1.275-4.578 4.589-7.375 8.159-10.173.764-.509 1.529-1.272 2.294-1.78.51-.255.765-1.018 1.53-.763.765.254 0 1.017.255 1.526z" fill="#457C30"/><path d="M285.569 202.91c3.06-.254 5.864.509 8.414.763 1.53.254 2.04-.254 1.785-1.526-.255-2.289-.255-4.578.255-6.867 4.334 2.798 7.903 10.682 9.178 20.346-7.139-4.069-15.552-5.086-19.632-12.716zM111.177 41.923c0 3.814-.51 7.375-3.825 9.664-1.02.763-2.294 1.526-3.569 2.034-.51.255-1.275.764-1.785.51-.51-.255-.255-1.018 0-1.781.255-2.543 1.53-4.832 3.314-6.613 1.53-1.78 3.57-3.051 5.865-3.814zm-6.629 8.647c1.529-1.018 3.314-3.307 3.569-4.833-2.805 1.78-3.824 3.052-3.569 4.833z" fill="#B7D271"/><path d="M184.86 103.723c-.765 3.815-1.275 7.884-4.079 11.191-2.805 3.052-6.629 4.323-10.709 5.086-1.529.254-1.529-.763-1.274-1.78 1.274-5.595 3.824-10.427 9.178-13.225 1.53-.763 3.06-1.78 4.844-2.543 1.02-.255 2.295-.763 2.04 1.271zm-28.046 15.006c0 .763-.765 1.017-1.529.763-5.1-1.526-10.454-3.052-12.748-8.647-.765-2.035-1.53-4.324-2.55-6.613-.765-1.78 0-2.289 1.785-1.78 4.844 1.78 9.433 4.069 11.983 8.647 1.02 2.543 2.04 4.832 3.059 7.63z" fill="#457C30"/><path d="M399.536 127.63c-2.294 1.017-4.334 2.034-6.119 2.797-1.53.509-2.039 1.272-.765 2.544 1.275 1.271 2.295 2.797 2.805 4.832-7.139-1.017-11.218-5.85-16.572-10.682 7.138-.254 13.767-3.052 20.651.509z" fill="#B7D271"/><path d="M389.848 105.504c-.765-4.833 3.824-10.173 8.413-11.7 2.04-.762 4.08 0 5.61 1.781 1.529 1.78 1.529 4.07.764 5.849-.764 1.781-2.294 3.052-4.589 2.544-3.569-1.018-6.884-.509-10.198 1.526z" fill="#457C30"/><path d="M313.36 221.984c0-.509 0-.763.765-.508 3.314 1.017 5.609 2.543 6.374 6.103.255 1.272-.255 1.272-1.275 1.018-3.569-.509-5.864-3.052-5.864-6.613z" fill="#8FB22B"/><path d="M168.543 63.795c-1.53-.51-1.53-1.018 0-2.544 5.099-4.832 10.453-5.595 16.572-3.306.765.255 2.04.509.765 2.035-4.844 6.104-11.218 7.63-17.337 3.815z" fill="#B7D271"/><path d="M333.247 211.811c0 3.306-3.06 6.613-6.629 6.867-.765 0-.765-.254-.765-.763.51-3.052 3.059-6.104 6.374-6.867.765 0 1.02.255 1.02.763z" fill="#8FB22B"/><path d="M66.814 98.891c0-2.034.764-3.56 1.784-5.086 1.785-2.544 4.08-4.07 6.884-5.341.255-.254.765-.509 1.275-.254.255.254 0 .763 0 1.017-1.02 5.086-4.334 8.393-9.944 9.664z" fill="#B7D271"/><path d="M362.312 114.151c6.884 4.323 8.159 7.121 6.629 15.768-.255 1.017-.51 1.271-1.53.763-5.099-2.798-8.158-9.41-7.138-15.768.255-1.526.509-1.526 2.039-.763zm-48.187 98.932c1.784.763 3.824 1.78 4.844 3.56.765 1.018 1.02 2.035 1.53 3.307.255 1.017 0 1.017-1.02.763-3.824-.763-5.864-3.307-6.119-7.122.255-.254.255-.508.765-.508z" fill="#8FB22B"/><path d="M100.468 94.568c-8.923.254-13.003-2.543-16.572-12.97 7.394 1.27 13.513 5.086 16.572 12.97z" fill="#B7D271"/><path d="M242.226 137.04c4.079 2.035 6.884 4.832 7.904 9.156.255 1.017-.255.763-1.02.508-3.06-1.017-5.354-2.543-6.374-5.849 0-1.018-.51-2.289-.51-3.815z" fill="#8FB22B"/><path d="M178.741 165.016c0 3.306-2.805 5.849-6.119 5.849-3.315 0-6.119-2.798-5.864-5.595 0-3.052 3.059-5.85 6.374-5.85 3.569 0 5.864 2.289 5.609 5.596zm-2.805-.255c0-1.526-.764-2.289-2.294-2.289-1.785 0-2.55.763-2.55 2.289 0 1.526.765 2.289 2.295 2.289 1.53 0 2.294-.763 2.549-2.289z" fill="#89A839"/><path d="M296.533 107.284c3.314 0 5.609 2.289 5.354 5.849 0 3.052-2.805 5.85-6.119 5.596-3.06 0-5.609-2.798-5.609-5.596 0-3.306 3.059-5.849 6.374-5.849zm0 2.798c-1.53 0-2.55 1.017-2.55 2.288 0 1.526.765 2.544 2.55 2.544 1.529 0 2.549-.763 2.804-2.289 0-1.526-1.02-2.289-2.804-2.543zM86.7 46.246c3.57.509 6.884 3.56 7.394 6.613.255 1.017-.51.763-1.02.508-2.55-.508-4.589-1.78-5.609-4.069 0-1.017-.255-2.035-.765-3.052z" fill="#B7D271"/><path d="M38.258 102.452c-3.06-1.017-6.629-1.526-6.884-3.306-.255-2.29 3.06-3.307 5.1-4.578 3.059-1.78 6.628-2.543 10.198-1.272 2.55.763 3.824 2.289 3.824 4.832 0 2.544-1.53 4.069-3.824 4.578-3.315 1.017-6.374.763-8.414-.254zm1.02-2.289c2.294.509 4.334.509 5.609-1.526.765-1.272-.51-2.035-1.53-2.543-1.53-.509-5.609 1.017-5.864 2.289-.51 1.526 1.02 1.271 1.785 1.78z" fill="#4C8184"/><path d="M51.26 88.973c.256 0 .51.254.766.254 3.314 1.526 5.354 4.07 6.374 7.375.255 1.272 0 1.526-1.275 1.272-3.57-1.017-6.119-4.578-6.374-8.138 0-.255-.255-.763.51-.763z" fill="#8FB22B"/><path d="M184.605 141.618c2.55 0 4.334 1.526 4.079 3.815 0 2.797-2.804 5.34-5.354 5.34-2.804 0-5.354-2.543-5.354-5.086.51-2.289 3.315-4.069 6.629-4.069z" fill="#816CAD"/><path d="M157.324 24.12c5.1-2.798 9.944-4.578 15.553-2.289 1.53.509 1.53 1.017.255 2.035-2.04 1.526-4.334 2.797-6.884 2.543-3.06-.255-6.119-.763-8.924-2.29z" fill="#B7D271"/><path d="M169.052 71.17a4.564 4.564 0 01-4.589 4.578c-2.804 0-5.354-2.544-5.354-5.087 0-2.289 2.55-4.323 5.354-4.323 2.295.254 4.589 2.543 4.589 4.832zm-3.314-.254c-.255-1.018-.765-1.78-2.295-1.78-1.274 0-1.784.762-1.784 1.78 0 1.271.764 1.78 2.039 1.78 1.275 0 1.785-.509 2.04-1.78z" fill="#89A839"/><path d="M195.568 154.588a4.564 4.564 0 01-4.589 4.578c-2.295 0-4.589-1.78-4.589-4.069 0-2.035 2.804-4.069 5.354-4.069 2.295 0 3.824 1.271 3.824 3.56z" fill="#816CAD"/><path d="M376.08 199.095c0 2.543-2.04 4.578-4.844 4.578-2.55 0-4.845-2.035-4.845-4.324 0-2.289 2.805-4.578 5.1-4.323 3.059 0 4.589 1.526 4.589 4.069zm-4.844-1.272c-1.02.255-1.785.763-1.785 1.781 0 1.017.765 1.526 1.785 1.526s1.529-.763 1.529-1.781c.255-1.017-.509-1.526-1.529-1.526z" fill="#457C30"/><path d="M194.803 149.756c-2.039 0-3.569-1.526-3.824-3.56 0-2.544 1.53-4.07 4.334-4.07 2.55 0 4.59 1.272 4.59 3.052.255 2.035-2.55 4.578-5.1 4.578z" fill="#816CAD"/><path d="M270.527 119.237c2.549 0 4.334 1.526 4.334 3.815 0 2.543-2.295 4.832-5.099 4.832-2.295 0-4.335-1.78-4.335-4.069 0-2.289 2.295-4.578 5.1-4.578zm-.51 5.85c1.019 0 1.529-.763 1.529-1.781 0-.763-.51-1.526-1.529-1.271-1.02.254-1.53.763-1.53 1.78-.255 1.017.51 1.272 1.53 1.272zm-57.876-82.401c2.549 0 4.334 1.526 4.334 3.815 0 2.543-2.295 4.832-5.099 4.832-2.295 0-4.334-1.78-4.334-4.07.254-2.543 2.549-4.577 5.099-4.577zm-.51 5.595c1.02 0 1.53-.763 1.53-1.78 0-.763-.51-1.526-1.53-1.272s-1.53.763-1.53 1.78.765 1.272 1.53 1.272zm7.139 176.501c-2.295 0-4.335-2.035-4.335-4.324 0-2.289 2.04-4.323 4.335-4.323 2.294 0 4.334 2.034 4.334 4.323 0 2.289-2.04 4.324-4.334 4.324zm1.784-5.087c-.255-.763-.509-1.526-1.529-1.271-1.02 0-1.53.763-1.275 1.526 0 .763.51 1.526 1.53 1.271 1.019-.254 1.274-.763 1.274-1.526z" fill="#89A839"/><path d="M178.741 152.045c0 2.289-2.04 4.069-4.334 4.069-2.295 0-4.335-1.526-4.335-3.56 0-2.289 2.04-4.324 4.335-4.324 2.549 0 4.334 1.526 4.334 3.815z" fill="#816CAD"/><path d="M168.798 180.529c-.255-.508-.255-1.271-.51-1.78-.255-.763 0-1.017.765-1.272.764-.254 1.019 0 1.019.763l.765 3.815c.255.763-.255 1.018-.765 1.018-.51.254-1.019 0-1.019-.763.254-.255 0-1.018-.255-1.781zm5.354 22.889c-.255-.508-.255-1.271-.51-1.78-.255-.763 0-1.017.765-1.271.765-.255 1.019.254 1.019.763.255 1.271.51 2.288.765 3.56.255.763 0 1.017-.765 1.272-.764.254-1.019-.255-1.019-1.018 0-.254-.255-1.017-.255-1.526z" fill="#4C8184"/><path d="M328.148 16.999c2.549 0 4.334 1.78 4.334 4.323 0 2.544-2.04 4.07-4.589 4.07-2.55 0-4.335-2.035-4.08-4.578.255-2.29 2.295-3.815 4.335-3.815zm-.51 2.035c-.255 0-.765.508-1.02 1.271 0 1.017.51 1.526 1.275 1.526 1.02 0 1.784-.509 1.784-1.526 0-.763-.51-1.271-2.039-1.271z" fill="#B7D271"/><path d="M391.888 235.718c2.549 0 4.589 1.78 4.589 3.815 0 2.288-1.785 4.069-4.08 4.069-2.294 0-4.079-1.781-4.079-4.324 0-1.78 1.53-3.56 3.57-3.56zm.255 5.595c1.019 0 1.529-.509 1.529-1.272s-.255-1.271-1.02-1.526c-1.019 0-1.784.509-1.784 1.526 0 .509.51 1.017 1.275 1.272z" fill="#89A839"/><path d="M232.028 181.547c-2.295 0-4.08-2.035-4.08-4.07 0-2.034 2.04-4.069 4.08-4.069 2.294 0 4.079 1.78 3.824 4.069.255 2.544-1.53 4.07-3.824 4.07zm.255-5.341c-1.02 0-1.53.508-1.53 1.271 0 1.018.51 1.781 1.53 1.781.764 0 1.529-.509 1.529-1.272 0-1.272-.765-1.78-1.529-1.78z" fill="#B7D271"/><path d="M335.031 93.296h.51c0 4.832.255 9.41.255 14.242 0 .763.51 2.289-1.02 2.289-1.529 0-1.529-1.271-1.529-2.289V93.296h1.784z" fill="#457C30"/><path d="M165.228 173.154c-2.04 0-3.824-1.78-3.824-3.561 0-2.034 2.039-3.814 4.334-3.814 2.295 0 3.824 1.525 3.824 3.56.255 2.035-1.784 4.069-4.334 3.815zm1.53-3.815c0-.763-.51-1.272-1.275-1.272-.765 0-1.53.509-1.53 1.526 0 .763.51 1.272 1.275 1.272 1.02 0 1.53-.509 1.53-1.526z" fill="#B7D271"/><path d="M335.286 156.623c2.55 0 4.335 1.78 4.335 4.069 0 2.289-1.785 3.815-4.335 3.815-2.039 0-3.824-1.78-3.824-4.069.255-2.035 1.785-3.815 3.824-3.815zm2.04 4.069c0-1.017-.51-1.272-1.53-1.272-1.019 0-1.529.509-1.529 1.272 0 1.017.764 1.526 1.529 1.526.765 0 1.275-.763 1.53-1.526z" fill="#89A839"/><path d="M293.728 228.851c0 2.289-1.785 3.815-4.079 3.815-2.295 0-3.825-2.035-3.825-4.324 0-2.034 1.53-3.306 3.57-3.306 2.549 0 4.334 1.526 4.334 3.815zm-3.569-1.272c-.765 0-1.53.509-1.53 1.526 0 .763.51 1.272 1.275 1.272.764 0 1.274-.509 1.274-1.272.255-1.017-.255-1.526-1.019-1.526z" fill="#B7D271"/><path d="M379.649 52.604c1.53 0 3.315 1.272 3.315 3.306 0 2.035-1.785 3.815-3.824 3.815-2.295 0-4.08-2.034-4.08-4.069 0-2.289 1.53-3.052 4.589-3.052zm-.764 4.832c.764 0 1.274-.508 1.274-1.271 0-.763-.51-1.017-1.274-1.017-.765 0-1.275.508-1.275 1.271 0 .763.765 1.017 1.275 1.017z" fill="#457C30"/><path d="M85.426 42.94c0 2.035-1.785 3.56-3.825 3.56s-3.824-2.034-3.824-4.069c0-2.034 1.53-3.306 3.57-3.306 2.549 0 4.334 1.78 4.079 3.815zm-2.295-.254c0-.763-.51-1.272-1.53-1.272-.765 0-1.275.509-1.275 1.526 0 .763.51 1.272 1.275 1.272 1.02 0 1.53-.763 1.53-1.526z" fill="#89A839"/><path d="M190.724 163.49c-.255 2.034-1.53 3.051-3.569 3.306-1.785.254-3.57-1.78-3.57-3.561.255-2.034 1.785-3.052 3.825-2.797 1.784 0 3.059 1.017 3.314 3.052z" fill="#816CAD"/><path d="M378.12 44.212c2.294 0 4.334 1.78 4.079 3.56-.255 2.035-1.785 3.052-3.569 3.052-2.04 0-3.57-1.526-3.57-3.56 0-1.78 1.275-3.053 3.06-3.053zm1.784 3.56c0-.763-.255-1.271-1.019-1.271-.765 0-1.02.508-1.275 1.017 0 .508.255 1.017 1.02 1.017.764.509 1.019 0 1.274-.763z" fill="#89A839"/><path d="M178.486 156.877c.51-1.78 1.02-3.306 3.314-3.306 2.04 0 3.315 1.017 3.315 3.052 0 1.78-1.785 3.56-3.57 3.56-1.784-.254-2.804-1.526-3.059-3.306z" fill="#816CAD"/><path d="M167.523 220.458c-1.275 0-2.55-.763-2.55-2.543 0-1.78 1.02-3.052 3.06-3.052 1.784 0 3.059.763 3.314 2.543.255 1.526-1.53 3.052-3.824 3.052zm1.275-3.052c0-.508-.255-1.017-1.02-.763-.765 0-1.02.509-1.02 1.018 0 .508.51.763 1.02.763.765 0 1.02-.255 1.02-1.018z" fill="#89A839"/><path d="M201.942 246.145c-1.529-.254-2.039-1.526-1.784-3.052 0-2.035 1.529-2.543 3.314-2.543 1.785 0 2.805 1.017 2.805 2.797-.255 1.781-1.785 3.052-4.335 2.798z" fill="#B7D271"/><path d="M136.418 91.516c2.039.254 3.059 1.271 3.314 3.306 0 1.526-.51 2.798-2.55 2.798-2.039 0-3.314-.763-3.314-3.052-.255-1.526.255-3.052 2.55-3.052zm11.473 37.131c-.255 1.526-.51 2.798-2.55 2.543-2.039 0-3.059-.763-3.059-2.797 0-1.272 2.039-3.306 3.314-3.306 1.02.254 2.295 2.034 2.295 3.56zm190.71 104.527c-2.295 0-3.315-1.017-3.315-2.797 0-1.78 1.275-2.543 3.06-2.543 2.295 0 2.55 1.271 2.55 2.797 0 1.78-.765 2.798-2.295 2.543zM218.26 71.17c-.255-2.035 1.02-2.289 2.804-2.289 1.785 0 2.55 1.017 2.55 2.797 0 2.035-1.53 2.544-3.315 2.544-2.039-.254-2.039-1.526-2.039-3.052z" fill="#457C30"/><path d="M189.194 124.578c-.255 1.78-1.019 2.798-2.804 2.798-2.04 0-2.805-1.272-2.805-3.052 0-1.526 1.02-2.544 2.55-2.544 1.785 0 2.804 1.018 3.059 2.798zm-3.059 1.017c.765-.254 1.02-.763 1.02-1.271-.255-.509-.765-.763-1.275-.763-.51 0-.765.508-.765 1.017.255.763.51 1.017 1.02 1.017z" fill="#B7D271"/><path d="M40.808 91.007c-2.04 0-3.315-1.017-3.315-3.052 0-2.034 1.53-2.797 3.315-2.797 2.04 0 3.57 1.271 3.57 3.052-.256 1.526-1.53 2.797-3.57 2.797zm1.784-3.306c0-1.017-.255-1.78-1.784-1.78-1.275 0-2.295.763-2.295 2.034 0 1.272 1.275 2.035 2.55 2.035 1.53 0 1.53-1.017 1.53-2.289zm1.02-30.773c1.785 0 2.805.763 2.805 2.289 0 1.526-.765 2.543-2.295 2.543-1.53 0-2.55-.763-2.804-2.289 0-1.526.765-2.543 2.294-2.543zM272.821 39.38c-.255 1.525-1.02 2.543-2.549 2.543-1.53 0-2.805-1.018-2.805-2.544s1.02-2.288 2.55-2.288c1.784-.255 2.804.762 2.804 2.288z" fill="#89A839"/><path d="M61.97 52.096c0-1.526.764-2.544 2.549-2.544s2.804 1.018 2.804 2.544-.764 2.543-2.55 2.543c-1.529 0-2.804-.763-2.804-2.543z" fill="#B7D271"/><path d="M354.663 162.218c0 2.035-.764 3.052-2.549 3.306-1.785 0-2.04-1.271-2.04-2.289 0-1.526.51-2.797 2.55-2.543 1.275-.254 2.294.254 2.039 1.526z" fill="#457C30"/><path d="M374.55 233.937c0 1.526-.765 2.544-2.549 2.544-1.53 0-2.55-.509-2.55-2.035 0-1.526 1.02-2.543 2.55-2.543 1.529-.255 2.294.763 2.549 2.034z" fill="#B7D271"/><path d="M22.96 81.597c.765-.508 1.53-.508 2.04.255s.51 1.271-.255 1.78c-1.02.763-1.785.508-2.294-.255-.51-.762 0-1.271.51-1.78zm5.61-.254c-.765.254-1.275.763-1.785 0-.51-1.017-.51-1.78.255-2.29.765-.508 1.53-.253 2.04.51.764.763.254 1.271-.51 1.78z" fill="#457C30"/><path d="M214.435 75.493c1.275.255 2.04 1.018 2.04 2.035 0 1.272-.765 2.289-2.295 2.289-1.274 0-2.294-.509-2.039-1.78 0-1.526 1.02-2.29 2.294-2.544z" fill="#B7D271"/><path d="M151.46 133.734c-1.275 0-2.294-.509-2.039-2.035 0-1.272.255-2.543 2.039-2.543 1.785 0 2.55.763 2.55 2.289.255 1.78-1.02 2.034-2.55 2.289zM31.119 78.545c-.51-.763-.765-1.526.255-2.034.765-.509 1.275-.255 1.785.508s.51 1.526-.255 2.035c-.765.254-1.275.254-1.785-.509z" fill="#457C30"/><path d="M227.948 158.657c1.275.255 2.295.763 2.295 2.035 0 1.272-.765 2.035-2.295 2.035-1.53 0-2.294-1.018-2.294-2.289 0-1.526 1.274-1.526 2.294-1.781z" fill="#B7D271"/><path d="M334.012 58.708c-1.275 0-2.04-.763-2.04-1.78 0-1.018 1.02-1.78 2.04-1.78 1.274 0 2.294.508 2.294 1.78-.255 1.017-1.275 1.526-2.294 1.78zm-137.934 73.5c-1.275 0-2.039-.763-2.039-1.781 0-1.017 1.019-1.78 2.039-1.78 1.275 0 2.295.509 2.295 1.78-.255 1.272-1.02 1.781-2.295 1.781z" fill="#3DB8BE"/><path d="M215.71 241.821c1.275.255 2.04.763 2.04 2.035 0 1.017-.765 1.526-1.785 1.526-1.275 0-2.04-.509-2.294-1.78 0-1.272 1.019-1.781 2.039-1.781z" fill="#89A839"/><path d="M115.001 34.801c-1.53.51-.765 2.035-1.02 3.052-1.02-1.526-1.785-3.306-2.295-5.086-.254-.509-.509-1.017 0-1.272.765-.508 1.02.509 1.275.763.765.763 1.53 1.78 2.04 2.543z" fill="#B7D271"/><path d="M146.361 132.971c1.275.254 2.04.508 2.04 2.034 0 1.526-1.02 1.781-2.04 1.781-1.275 0-2.04-.509-2.04-1.781 0-1.526 1.02-1.78 2.04-2.034zm137.168 59.512c1.275.254 2.04.763 2.04 1.78 0 1.271-.765 2.034-2.295 2.034-1.274 0-2.039-.254-1.784-1.526 0-1.271.765-1.78 2.039-2.288z" fill="#457C30"/><path d="M177.976 218.678c-1.275-.254-1.785-.763-1.785-2.035 0-1.271 1.02-1.78 2.04-2.034 1.02 0 1.785.508 1.785 1.526.255 1.526-.765 2.034-2.04 2.543z" fill="#B7D271"/><path d="M291.688 197.315c-.255 1.271-1.275 1.78-2.294 1.78-1.02 0-1.785-.509-1.785-1.526 0-1.272.765-2.035 2.295-1.78.764.254 1.784.763 1.784 1.526zm107.593-114.7c0 1.017-.51 1.78-1.784 2.034-1.02 0-1.785-.508-1.785-1.526 0-1.271.765-1.78 1.785-2.034 1.02-.255 1.529.508 1.784 1.526z" fill="#89A839"/><path d="M238.912 169.848c-1.275-.255-2.04-.763-2.04-2.035 0-1.017.765-1.78 1.785-1.78 1.274 0 2.039.763 2.039 2.034 0 1.018-.51 1.781-1.784 1.781z" fill="#457C30"/><path d="M343.955 60.234c0 1.272-1.02 1.526-2.04 1.526s-1.784-.509-1.784-1.526c0-1.272.764-1.526 2.039-1.526 1.02-.254 1.785.254 1.785 1.526z" fill="#3DB8BE"/><path d="M223.869 23.866c1.275 0 1.785.763 1.785 1.78s-.765 2.034-2.04 2.034c-1.02 0-1.785-.762-1.53-1.78 0-1.017.51-1.78 1.785-2.034z" fill="#89A839"/><path d="M360.017 161.709c0 .509-.509 1.526-1.529 1.272s-2.295-.763-2.04-2.035c.255-1.017 1.02-1.526 2.295-1.526 1.02 0 1.274.763 1.274 2.289z" fill="#457C30"/><path d="M332.482 221.221c1.275.255 1.785.763 1.53 1.78-.255 1.018-.765 2.035-2.04 1.781-1.02 0-1.53-.763-1.53-1.781 0-1.017 1.02-1.78 2.04-1.78z" fill="#89A839"/><path d="M326.363 58.454c1.275 0 2.04.763 1.785 1.78 0 1.017-1.02 1.526-1.785 1.526-1.02 0-1.785-.509-1.785-1.526 0-1.272.765-1.78 1.785-1.78z" fill="#3DB8BE"/><path d="M397.497 89.736c-1.02-.255-1.53-.763-1.785-1.78 0-1.018 0-1.781 1.275-1.781 1.02 0 1.784.254 1.784 1.526.255 1.017-.254 1.526-1.274 2.035z" fill="#457C30"/><path d="M364.607 55.148c1.275 0 1.785.762 2.039 1.78 0 .763-.254 1.526-1.274 1.526s-2.295-.509-2.295-1.78c-.255-1.018.765-1.526 1.53-1.526z" fill="#B7D271"/><path d="M225.909 172.645c-1.275 0-2.04-.254-2.04-1.526 0-1.017.51-1.526 1.53-1.78 1.019 0 1.784.509 2.039 1.526 0 1.272-.765 1.526-1.529 1.78z" fill="#89A839"/><path d="M306.986 115.168c0 1.017-.51 1.526-1.785 1.526-1.02 0-1.53-.509-1.53-1.526.255-1.017.765-2.035 1.785-2.035.765 0 1.53 1.018 1.53 2.035zm-13.513 20.092c.255-1.018.765-1.526 2.04-1.781 1.02 0 1.529.763 1.529 1.272 0 1.017-.764 1.526-2.039 1.526-.765.254-1.53 0-1.53-1.017zm-70.369-54.68c0 1.017-.765 1.272-1.53 1.272-1.274 0-1.529-.51-1.529-1.526 0-1.018.509-1.526 1.529-1.272 1.02-.254 1.275.509 1.53 1.526z" fill="#457C30"/><path d="M126.984 33.021c-.765-.254-1.53-.763-1.53-1.526 0-1.017.765-1.526 1.785-1.526.765 0 1.275.51 1.275 1.272 0 .763-.51 1.526-1.53 1.78z" fill="#89A839"/><path d="M393.672 83.377c1.02 0 1.53.51 1.53 1.526 0 1.018-.255 1.526-1.275 1.526s-1.53-.508-1.53-1.271c-.254-1.018.255-1.526 1.275-1.78z" fill="#B7D271"/><path d="M153.245 122.543c0 1.018-.51 1.526-1.53 1.526s-1.529-.763-1.275-1.526c0-.763.51-1.526 1.53-1.526s1.02.763 1.275 1.526z" fill="#89A839"/><path d="M207.042 239.787c-1.02-.254-1.275-.763-1.275-1.526s.51-1.526 1.275-1.272c1.019 0 1.019 1.018 1.019 1.526 0 .763-.255 1.272-1.019 1.272zm146.857-81.13c-1.02-.254-1.275-.763-1.275-1.526 0-.762.255-1.271 1.275-1.271 1.019 0 1.529.763 1.274 1.526 0 .763-.51 1.271-1.274 1.271z" fill="#457C30"/><path d="M131.828 65.575h7.904c.255 0 .51.254.765.254-2.805.255-5.864 1.272-8.669-.254z" fill="#F3C289"/><path d="M176.956 172.391c0 1.272 0 2.289-1.529 2.289-1.53 0-2.55-.763-2.55-2.035 0-1.271 1.02-2.034 2.295-2.034 1.529-.255 2.039.763 1.784 1.78z" fill="#8FB22B"/><path d="M130.809 52.604c1.784 0 2.804 1.017 2.549 2.544 0 1.525-1.275 2.288-2.804 2.288-1.275 0-2.805-.763-2.805-2.288.255-1.78 1.785-2.29 3.06-2.544zm4.589 11.191c-1.53-.255-2.805-.51-2.805-2.29 0-1.271.765-2.288 2.295-2.543 1.785 0 2.549 1.272 2.804 2.798 0 1.526-1.019 2.035-2.294 2.035zm-6.374-5.087c1.02.254 2.294.509 2.039 2.035-.254 1.271-1.019 1.78-2.294 1.78-1.275 0-1.785-.763-1.785-1.78 0-1.526.765-2.035 2.04-2.035zm9.433-2.035c0 1.018-.765 1.526-1.784 1.526-1.02 0-1.785-.508-2.04-1.78 0-1.017.51-1.78 1.785-1.526 1.274-.254 2.039.509 2.039 1.78zm2.55 2.798c1.275 0 1.53.763 1.785 1.526 0 1.017-.255 1.78-1.275 1.78-1.275.255-1.785-.763-1.785-1.78-.255-.763.51-1.272 1.275-1.526zm-17.082-17.04c0 1.018-.51 1.526-1.53 1.526s-1.275-.763-1.275-1.78c0-.763.51-1.272 1.275-1.272 1.02 0 1.53.509 1.53 1.526z" fill="#3DB8BE"/><path d="M187.665 54.639c-.765 1.271-2.04 1.78-3.315 1.017-1.53-.508-2.04-2.034-1.275-3.306.765-1.526 2.04-2.035 3.825-1.272 1.274.763 1.274 2.035.765 3.56zM69.108 46.246c-.765 1.272-2.04 1.78-3.314 1.017-1.53-.508-2.04-2.034-1.275-3.306.765-1.526 2.04-2.034 3.824-1.271 1.275 1.017 1.275 2.288.765 3.56zm255.725 152.34c0 .763-.51 1.018-1.275 1.272-.51 0-1.02-.254-1.02-.763 0-.763.255-1.272 1.02-1.272.51-.254 1.02.255 1.275.763zM191.744 56.165c-.765-.763-1.53-1.272-1.02-2.29.51-.762 1.53-1.27 2.55-.508.765.509 1.02 1.272.765 2.035-.255 1.017-1.275 1.271-2.295.763zm129.01 144.965c-.51 0-1.02-.509-1.02-1.018 0-.508.255-.763.765-.763s1.02.255 1.02 1.018c-.255.508-.255.763-.765.763z" fill="#F5C337"/><path d="M192.764 60.997c-.51-.254-.51-1.017-.255-1.78.255-.763 1.02-1.018 2.039-.763 1.02.508 1.02 1.271.51 2.034-.255.763-.764 1.272-2.294.509z" fill="#B7D271"/><path d="M326.363 200.621c0 .509-.255.763-.765.763s-1.02 0-1.02-.763c0-.509.255-.763.51-.763.765 0 1.02.254 1.275.763z" fill="#F5C337"/><path d="M323.813 201.384c0 .509-.255.763-.765.763s-.765-.254-.765-.763.255-.763.765-.763.765.254.765.763z" fill="#B7D271"/><path d="M240.441 25.646c2.295-.255 3.57.508 3.57 2.797 0 2.035-1.785 2.544-3.57 2.544h-.255c-1.784-1.526-1.529-3.306 0-5.087l.255-.254zm-1.02 7.884c1.02-.763 1.785-1.272 3.06-.509 1.275 1.018.51 2.035 0 3.052-2.04.255-3.06-.508-3.06-2.543zm10.709-5.85c-1.02.763-2.04.255-3.06 0v-2.034s.255-.255 0-.255c1.785-1.525 2.805-.762 3.315 1.272 0 .255 0 .763-.255 1.017zm3.314 4.07c-.765 0-1.784.508-2.294-.509-.765-1.017.255-1.78 1.02-2.543 2.039.254 1.529 1.78 1.274 3.052z" fill="#3DB8BE"/><path d="M382.964 163.744c-.51 3.306-2.55 5.341-5.099 7.375-.255.255-.765.255-1.02 0-2.295-1.526-4.589-3.306-5.609-5.849-.765-2.035 0-3.561 1.784-4.324 2.805-1.271 5.355-1.271 8.159 0 1.275.509 2.04 1.526 1.785 2.798z" fill="#B7D271"/><path d="M249.62 31.495c-.255 1.526-1.275 2.035-2.55 2.035s-2.294-.763-2.039-1.78a2.282 2.282 0 012.294-2.29c1.53-.254 2.04.764 2.295 2.035zm2.804 2.544c0 1.017.765 2.289-1.019 2.543-.765 0-1.275-.254-1.785-1.017-.255-.509 0-1.018.255-1.526.765-.763 1.53-.509 2.549 0zm-5.354 4.069c-.51-.255-1.02-.255-1.529-.509-.765-.508-.765-1.017-.255-1.78.255-.509 1.019-1.017 1.529-.763.765.254 1.02 1.017 1.02 1.526l-.765 1.526z" fill="#3DB8BE"/><path d="M370.726 48.28c1.785-5.595-2.04-12.715-9.179-17.548-3.314 1.526-6.119 4.578-7.393 8.647-1.02 3.306-.765 6.358.254 9.156 8.924 2.035 15.808 1.78 16.318-.254zm-6.119-5.595c-.765-.254-1.275-1.271-1.02-2.034.255-.763 1.275-1.272 2.04-1.017.765.254 1.275 1.271 1.02 2.034-.255.763-1.275 1.272-2.04 1.017z" fill="#4C8184"/><path d="M358.998 29.206c-.51-.254-1.275-.508-1.785-1.017v-1.526c0-1.271-.765-2.289-2.04-2.797l-12.493-3.307c-.765-.254-1.784 0-2.549.509-.765.509-1.275 1.526-1.275 2.289v2.289c-5.099.508-9.944 1.78-12.748 2.797l-6.629-6.358c-.255-.254-.765-.254-1.275-.254-.51.254-.51.509-.51 1.017l.255 4.324c0 .763-.255 1.78-.765 2.289l-2.549 3.56c-.255.255-.255.763 0 1.272.255.254.765.508 1.02.508l9.433-1.525c2.55 3.306 8.924 8.138 16.318 11.444l-1.53 1.78c-.255.255-.51.763-.255 1.018 0 .508.51.763.765.763l1.02.254c.764.254 1.529.254 2.294-.254l3.57-1.526c1.529.508 3.059.763 4.334 1.271-.765-2.797-.765-6.103.255-9.155 1.02-4.324 3.824-7.63 7.139-9.665z" fill="#4C8184"/><path d="M363.842 188.159c0-.254-.255-.254-.51-.254-.51 0-4.844 0-7.139.508.255-1.526.255-4.323-1.02-6.103 0-.255-.255-.255-.51-.255-2.294.255-4.079 2.289-5.099 3.306-1.02-2.034-4.079-5.086-4.334-5.595 0 0-.255-.254-.51-.254s-.255.254-.255.254c-1.02 2.544-2.805 8.647 5.864 12.462 8.669 3.815 12.238-1.526 13.258-4.069.51.254.51.254.255 0z" fill="#C56D3F"/><path d="M346.505 179.766c.765.763 2.039 2.289 3.059 3.561l.255.254.51.255h.51c1.53-1.272 2.805-2.035 4.334-2.289.51 0 1.02.254 1.275.508.765 1.018 1.275 2.543 1.275 4.578 0 .254 0 .254.255.509l.51.254h.255c1.529-.254 3.314-.254 4.589-.254.255 0 .51-.255.51-.255 1.53-5.086-1.02-9.155-2.55-11.19l-1.784-1.78h-.255s-2.04-.254-2.55-.254c-2.55.254-7.139 1.017-9.943 5.849-.51-.254-.51 0-.255.254zm4.589-2.797c2.04-1.272 4.079-1.526 5.609-1.781.255 0 .51.255.51.509s-.255.509-.51.509c-1.275 0-3.314.508-5.099 1.526h-.51s-.255 0-.255-.255c0 0 0-.254.255-.508zm-43.343-141.15l-6.374-.509c-.51-1.78-1.02-3.815-1.02-5.595h5.609c.255 2.035 1.02 4.324 1.785 6.104zm-14.788-1.526c-.255 0-.765-.254-1.02-.254h-.255c-.255 0-.51-.255-.765-.255h-.255c-.255 0-.51-.254-.51-.254h-.254c-.255 0-.255-.254-.51-.254 0 0-.255 0-.255-.255-.255 0-.255-.254-.51-.254 0 0-.255 0-.255-.254-.255 0-.255-.255-.51-.255 0 0-.255 0-.255-.254l-.255-.254s-.255 0-.255-.255h-.255c0-2.797 0-5.595.255-8.392 0-.255 0-.255.255-.509 0 .254 0 .254.255.509v.254c0 .254.255.509.255.763v.254c.255.255.255.509.51.763 0 0 0 .255.255.255l.51.508.255.255.51.508.254.255c.255 0 .255.254.51.254 0 0 .255.254.51.254s.255.255.51.255.255.254.51.254c0 0 .255 0 .255.254v4.578c.51.509.51 1.017.51 1.526zm-.765-7.376c-.51-.254-.51-.254-.765-.508 0 0-.255 0-.255-.255-.255 0-.255-.254-.51-.254l-.255-.254-.254-.255-.255-.254-.255-.254s0-.255-.255-.255c0-.254-.255-.254-.255-.508v-.254c0-.255-.255-.51-.255-.763v-.255c0-.254 0-.254-.255-.508.51-.763 1.02-1.526 1.784-2.29.51-.254.765-.508 1.275-.762l.51 7.63zm6.884 1.526c-2.04 0-3.824-.508-5.609-1.017l-.51-6.358c2.04 1.017 4.079 1.526 6.119 1.78v5.595zm-13.258 2.544c0-2.543 0-5.087.255-7.376-1.275.763-2.295 1.78-2.804 3.306.509 1.526 1.529 2.798 2.549 4.07zm9.944 10.936h-6.374c-.255 0-.51 0-.51-.255h-.255c-.255 0-.51 0-.51-.254s0-.509-.255-.509v-.254c0-.254 0-.509-.255-.509v-6.358l.255.255h.255c.255.254.51.254.765.508.255 0 .51.255.765.255h.255c.254 0 .509.254.509.254h.255c.255 0 .51.254.51.254h.255c.255 0 .51.255.765.255h.255c.255 0 .51.254.765.254 0 .254.255.508.255.763v.254c0 .255 0 .509.255.763v.255c0 .254 0 .508.255.508v.255c0 .254.255.508.255.508v.254c0 .255.255.51.255.763 0 .255.255.51.51.763 0 0 0 .255.255.255.255.508.255.508.51.763zm4.334-6.613c-2.04 0-3.825-.254-5.864-.763-.255-2.034-.51-3.815-.765-5.85 1.785.51 3.824.764 5.609 1.018.255 2.035.51 3.815 1.02 5.595zm5.609-17.548v4.578c-1.785 0-3.314 0-5.099-.255v-2.797c1.275-1.272 3.059-1.78 5.099-1.526-.255 0 0 0 0 0zm0 10.936c-1.785 0-3.824.254-5.609 0v-5.595c1.785.254 3.569.254 5.099.254v1.272c.255 1.526.51 2.797.51 4.069zm-6.374-6.867c-2.04-.254-4.079-1.017-6.119-1.78 1.02-1.017 3.569-1.78 5.609-2.29.255 1.273.51 2.544.51 4.07zm2.805 24.924c-1.785 1.017-3.825 1.526-5.864 1.78-1.785.254-3.57-.509-4.845-1.78l-.255-.255v-.254l-.255-.254s0-.255-.255-.255c0 0-.255-.254-.255-.508l-.254-.255s0-.254-.255-.254c0-.254-.255-.508-.255-.508 0-.255-.255-.51-.255-.51 0-.253-.255-.508-.255-.762v-.255c.255 0 .51.255 1.02.255h.254c.255 0 .51 0 .765.254h6.629c0 1.526 2.04 2.798 4.335 3.56zm9.178-23.398c0 1.78-.51 3.56-1.53 5.34-1.019 0-1.784-.254-2.804 0v-5.085h2.804c.255-.254 1.02-.254 1.53-.254zm-5.354 18.057c-.255 0-.255 0-.51.254-2.804.255-5.609.255-8.414.255l-.255-.255s0-.254-.254-.254c0 0-.255-.254-.255-.509 0 0 0-.254-.255-.254 0-.254-.255-.254-.255-.509 0 0 0-.254-.255-.254 0-.254-.255-.254-.255-.509 0-.254 0-.254-.255-.508 0 0 0-.255-.255-.255 0-.254-.255-.508-.255-.763V37.6c0-.254-.255-.509-.255-.763v-.254c0-.255-.255-.509-.255-1.017.51 0 1.02.254 1.53.254h4.589s0 .254.255.254c0 .254.255.254.255.509 0 .254.255.254.255.508 0 0 .255.255.255.509s.255.254.255.509l.255.254c0 .254.255.254.255.254l.255.255.255.254.255.254c.255.255.764.509 1.274.763 0 0 .255 0 .255.255 0 0 .255 0 .51.254 1.02.763 1.02.763 1.275.763zm4.589-19.837c-.255.254-.51.508-1.019.763h-2.805v-2.798c0-.509.255-.763.765-1.017.51-.255.765-.255 1.275 0 .51.254.765.508 1.019.763.255.254.51.763.765 1.017.255.254.255.763 0 1.272zm-23.711 18.82h-.255c-.255 0-.51-.255-.765-.255-.255-.254-.765-.254-1.02-.508h-.255c-.255 0-.255-.255-.51-.255s-.255-.254-.509-.254l-.255-.254s-.255 0-.255-.255l-.255-.254s-.255 0-.255-.254l-.255-.255c-1.275-1.271-1.785-3.052-1.785-4.832.255-2.034.765-4.069 1.785-5.85v.255c.51 2.035 1.784 4.07 3.569 5.34v6.359c0 .254 0 .509.255.763v.254c.51-.508.765 0 .765.255zm11.218 2.543c1.02 1.272 2.55 2.035 4.08 2.543 1.274-.508 2.549-1.526 3.314-2.797-2.55.254-5.099.254-7.394.254z" fill="#C56D3F"/><path d="M309.026 37.09c-.255.51-.51 1.018-.765 1.272-.51.763-1.275 1.272-2.295 1.78-.255 0-.255 0-.51-.254h-.255c-.255 0-.51-.254-.765-.254s-.255-.255-.51-.255c0 0-.255 0-.255-.254-.255 0-.255-.254-.51-.254l-.254-.255-.255-.254s0-.254-.255-.254c0-.255-.255-.255-.255-.509 0 0 0-.254-.255-.254 0-.255-.255-.509-.255-.509v-.254l7.394.508zm-17.848 11.19c-.255 0-.255 0 0 0-5.099-1.27-9.178-5.34-10.453-10.427l.51.509.255.254.255.255s.255 0 .255.254l.255.254h.255c.255 0 .255.255.51.255l.255.254s.255 0 .255.254c0 0 .254 0 .254.255.255.254.51.254.765.508 0 0 .255 0 .255.255h.255c.255 0 .51.254.51.254.255 0 .255 0 .51.254.255 0 .51.255.765.255 0 .254.255.508.255.763 0 .254 0 .254.255.508 0 .255.255.509.255.509v.254s0 .255.255.255c0 .254.255.508.255.762v.255s0 .254.255.254c0 0 0 .254.255.254 0 0 0 .255.255.255 0 .254.255.254.255.508 0 0 0 .255.255.255 0 0 0 .254.255.254 0 0 0 .254.255.254l.254.255c.51.508.765.508 1.02.763zm20.142-18.31c-.51 2.034-1.275 4.577-2.295 5.595-1.019-1.78-1.529-3.815-1.784-6.104 1.275.254 2.804.254 4.079.508zm-172.098.508c0 .254 0 .509.255.763l13.003 5.087c.255 0 .51 0 .765-.255 1.275-3.56-.255-6.867-4.079-8.393l.255-.508c0-.254.509-.509.764-.255l1.02.51c.255 0 .51 0 .765-.255 0-.254 0-.509-.255-.763l-1.02-.763c-1.019-.254-1.784 0-2.294 1.017l-.255.509c-4.08-1.526-7.394 0-8.924 3.306zm2.04 11.699l.51 1.272c0 .254.255.254.255.254h.51l1.274-.509h.255c2.805.509 5.61-1.271 6.629-3.815l.765-1.78-11.983-4.832-.765 1.78c-1.02 2.544-.255 5.595 2.04 7.376.51 0 .51 0 .51.254z" fill="#C56D3F"/><path d="M195.313 163.235a8.528 8.528 0 013.06 1.272c3.314-1.017 7.139-1.272 10.963-1.017-3.824-4.07-8.923-4.578-14.023-2.798-1.274.509-1.274 2.289 0 2.543zm-5.354 22.889c2.55-2.288 5.354-2.797 8.669-1.525 3.059 1.271 7.649 2.543 12.238 3.306l-.255-.509c-1.275-2.035-3.824-7.375-2.295-12.462.765-3.052 3.06-5.341 6.119-7.121l.51-.254c-4.079-1.526-8.413-1.78-12.748-1.017-3.824.508-5.864 1.525-7.649 2.797-8.923 5.85-11.728 13.988-9.943 20.855 2.04 7.884 10.198 12.97 10.453 12.97.255 0 .51.254.765.254s2.55 0 4.08-1.78c1.274-1.526 1.784-4.069 1.274-7.121-.255-.763-1.019-1.271-1.784-1.017 0 0-2.04 1.017-4.845.763-3.059 0-5.609-1.526-7.138-4.324.255-1.017 1.019-2.543 2.549-3.815z" fill="#F5C337"/><path d="M227.438 185.362c-1.02-7.376-4.334-13.225-9.943-16.532-3.06 1.526-2.04 1.018-2.295 1.272-2.549 1.526-4.334 3.306-5.099 5.595-1.275 4.069 1.02 8.647 2.04 10.427l1.529 2.289c4.335.509 8.669.255 12.493-1.526.51-.254.765-.254 1.02-.763.255-.254.51-.508.255-.762zm-9.433-6.613c-.765 0-1.275-.509-1.275-1.272s.51-1.271 1.275-1.271c.765 0 1.275.508 1.275 1.271 0 .763-.51 1.272-1.275 1.272z" fill="#F5C337"/></svg>