<svg width="367" height="41" fill="none" xmlns="http://www.w3.org/2000/svg"><path d="M1.263 3.65c-.255-.255-.51-.51-.255-1.018 0-.508.51-.508.765-.508h13.258c.51 0 .765.254.765.508.255.509 0 .763-.255 1.018l-.51.508c-.51.509-.765 1.018-.765 1.78 0 .51.255 1.78.765 3.307l5.61 18.565c0 .255.254.255.254 0l4.844-13.733-1.274-4.07c-.51-1.525-1.02-2.543-1.785-3.56-.765-1.017-1.785-1.78-3.06-2.797-.51-.255-.51-.51-.255-1.018.255-.254.51-.508.765-.508h13.258c.51 0 .765.254.765.508.255.509 0 1.018-.765 1.526-.51.509-.765 1.018-.765 1.78 0 .763.255 1.78.765 3.307l6.12 20.346c0 .254.254.254.254 0 2.55-5.341 4.59-9.665 5.864-13.48.51-2.034.255-3.56-.765-4.577-.51-.255-.765-.509-1.274-.763-1.53-.509-2.55-1.78-3.06-3.307-.51-1.271-.255-2.797.255-3.814.765-1.272 1.785-2.035 3.06-2.544.764-.254 1.53-.254 2.04-.254 1.274 0 2.294.254 3.314 1.017 1.02.763 1.53 1.526 2.04 2.798.254.763.51 1.526.51 2.289 0 1.526-.51 3.815-1.276 6.612-3.06 9.41-6.628 17.549-11.218 24.924-.255.509-.765.763-1.275.763h-3.824c-.51 0-.765-.254-.765-.509L27.78 20.181h-.51l-6.63 18.565c-.255.255-.51.509-.765.509h-4.08c-.509 0-.764-.254-.764-.509L6.362 10.262c-.51-1.526-1.02-2.543-1.784-3.306-.765-1.272-2.04-2.29-3.315-3.306zm52.522 0c-.255-.255-.51-.51-.255-1.018s.51-.508.765-.508h13.258c.51 0 .765.254.765.508.255.509 0 .763-.255 1.018l-.51.508c-.765.763-1.53 1.78-1.785 2.798-.255.763-.51 1.526-.51 2.797v21.872c0 1.272.255 2.29.51 2.798.255 1.017 1.02 2.034 1.785 2.797l.51.509c.255.254.255.509.255 1.017-.255.509-.51.509-.765.509H54.295c-.51 0-.765-.254-.765-.509-.255-.508 0-.763.255-1.017l.51-.509c1.53-1.271 2.294-3.052 2.294-5.595V9.753c0-1.271-.255-2.034-.51-2.797-.254-1.018-1.02-2.035-1.784-2.798l-.51-.508zm17.082 0c-.255-.255-.51-.51-.255-1.018.255-.254.51-.508.765-.508h13.258c.51 0 .765.254.765.508.255.509 0 .763-.255 1.018-1.02 1.017-1.785 1.78-2.295 2.543-.51 1.017-.51 2.034-.51 3.306V35.44h3.315c1.785 0 3.06 0 4.08-.254 1.02 0 2.294-.255 3.314-.763 1.274-.509 2.294-1.017 3.314-2.035 1.02-1.017 1.785-2.289 2.55-3.56.255-.509.51-.509 1.02-.509l1.529.509c.255 0 .51.254.51.254 0 .254.255.509 0 .763l-2.804 9.664c0 .509-.255.509-.765.509h-1.02C94.579 39.509 91.519 39 88.205 39H70.611c-.51 0-.765-.255-1.02-.51 0-.508.255-1.016.765-1.525.765-.509 1.275-1.272 1.785-2.035.51-1.017.51-2.034.51-3.306V9.753c0-1.271-.255-2.289-.51-3.306.51-1.017-.255-2.034-1.275-2.797zm33.4 0c-.255-.255-.51-.51-.255-1.018s.51-.508.765-.508h16.317c.765 0 1.785.254 3.57.254 1.53.254 3.059.763 4.334 1.272 1.275.763 2.55 1.525 3.824 2.543 2.295 2.034 4.08 4.832 5.355 8.393.765 2.543 1.019 5.086 1.019 7.63-.254 5.086-2.039 9.155-5.354 12.207-3.059 2.797-7.648 4.323-13.513 4.323h-15.297c-.51 0-.765-.254-.765-.508-.255-.509 0-.763.255-1.018l.51-.508c1.53-1.272 2.294-3.052 2.294-5.596V9.245c0-2.29-.764-4.07-2.294-5.595h-.765zm11.473 31.79h2.04c6.629-.254 10.453-3.56 11.728-10.682.255-2.288 0-4.832-.51-7.63-1.02-3.56-2.55-6.357-4.589-8.392-2.04-2.035-5.099-3.052-8.414-3.306v30.01h-.255zm37.734-31.79c-.255-.255-.51-.51-.255-1.018s.51-.508 1.02-.508h7.904c.255 0 .51 0 .765.254l4.334 5.086 13.768 16.277h.255V8.99c0-2.289-.765-4.069-2.295-5.34l-.51-.51c-.255-.253-.255-.508-.255-1.016 0-.51.255-.51.765-.51h7.904c.51 0 .765.255.765.51 0 .254 0 .763-.255 1.017l-.51.509c-1.53 1.271-2.295 3.051-2.295 5.34v28.993c0 .509-.255.763-.764.763h-2.04c-.255 0-.51 0-.765-.254l-20.907-24.924h-.255v17.548c0 2.544.765 4.324 2.295 5.596l.51.508c.255.255.255.509.255 1.018 0 .508-.255.508-.765.508h-7.904c-.51 0-.765-.254-.765-.508 0-.255 0-.763.255-1.018l.51-.508c.765-.763 1.53-1.526 1.785-2.29.255-.762.51-1.78.51-3.305V9.244c0-1.272-.255-2.544-.51-3.307-.51-.763-1.02-1.526-1.785-2.034l-.765-.254zm34.93 34.588c0-.255 0-.763.255-1.018l.51-.508.51-.509c.255-.254.51-.509.764-.509.255 0 .51-.254.765-.508.255-.255.51-.509.765-1.018.255-.254.51-.762.765-1.017l.765-1.526L202.172 9.5l-2.55-.763c-.255 0-.51-.254-.51-.763 0-.254 0-.509.255-.763l8.159-6.867c.255-.254.51-.254.765-.254s.51.254.51.509l11.983 30.264c.765 1.78 1.529 3.306 2.804 4.324.255.254.765.508 1.275 1.017.51.509.765.509.765.763.255.254.255.509.255 1.017 0 .509-.255.509-.765.509H211.86c-.51 0-.765-.254-.765-.509 0-.254 0-.763.255-1.017l.51-.509c.51-.508.765-1.017.765-1.526 0-.508-.255-1.78-.765-3.306l-1.02-2.797h-12.748l-1.02 2.543c-.509 1.526-.764 2.543-.764 3.306 0 .509.255 1.017.764 1.526l.51.509c.255.254.51.508.255 1.017 0 .509-.255.509-.765.509h-7.648c-.765.763-1.02.508-1.02 0zm15.552-24.416l-4.844 12.208h9.944l-4.845-12.208h-.255c.255 0 0 0 0 0zm18.103-.762c-.51-.255-.765-.51-.51-1.018l2.804-10.427c.255-.509.51-.509.765-.509 0 0 .51 0 1.275.255.765.254 2.04.254 3.569.508 1.53.255 3.315.255 5.099.255h10.199c4.589 0 7.649-.51 9.688-1.018h.51c.255 0 .255.255.51.509l2.805 10.427c.255.509 0 .763-.51 1.018-.51 0-.765.254-1.02.254s-.51 0-.51.254c-.51 0-.765 0-1.02-.508l-.255-.764c0-.254-.255-.254-.255-.762-.255-.255-.51-.763-1.019-1.526-.51-.509-1.02-1.272-1.785-1.78-.51-.51-1.53-1.018-2.55-1.527-1.02-.508-2.039-.763-3.314-1.017-.765 0-1.53-.254-2.04-.254v25.94c0 1.272.255 2.29.51 3.307.51.763 1.02 1.526 1.785 2.289.51.509.765 1.017.765 1.272 0 .508-.255.508-.765.508h-13.258c-.51 0-.765-.254-.765-.508 0-.509.255-1.018.765-1.526.765-.763 1.275-1.526 1.784-2.29.51-1.017.51-2.034.51-3.305V5.174c-.764 0-1.274 0-2.039.255-1.275.254-2.295.508-3.315 1.017-1.02.509-1.784 1.017-2.549 1.526-.51.509-1.275 1.017-1.785 1.78-.51.509-.765 1.018-1.02 1.526-.255.255-.255.509-.255.763l-.255.763c-.255.509-.51.509-1.02.509l-1.529-.255zm37.989-9.41c-.255-.255-.51-.51-.255-1.018 0-.508.255-.508.765-.508h13.257c.51 0 .765.254.765.508.255.509 0 .763-.255 1.018l-.51.508c-1.529 1.272-2.294 3.052-2.294 5.595v15.514c0 3.56 1.02 6.104 2.804 8.139 1.785 2.034 4.08 2.797 6.629 2.543 1.02 0 2.04-.255 2.805-.763 1.02-.509 1.785-1.018 2.549-1.78a8.183 8.183 0 002.04-3.307c.51-1.526.765-3.052.765-5.086V9.499c0-2.543-.765-4.324-2.295-5.595l-.51-.509c-.255-.254-.509-.508-.254-1.017 0-.509.254-.509.764-.509h7.904c.51 0 .765.255.765.509s0 .763-.255 1.017l-.51.509c-.765.508-1.275 1.271-1.53 2.289-.51.763-.51 2.034-.51 3.306v15.514c0 4.578-1.274 8.393-3.824 11.19-2.55 2.798-6.119 4.07-10.963 4.07-4.335 0-7.649-1.527-10.454-4.324-2.804-2.798-4.079-6.613-4.079-10.936V9.499c0-2.543-.765-4.324-2.295-5.595l-1.019-.254zm36.969 0c-.255-.255-.51-.51-.255-1.018.255-.254.51-.508 1.02-.508h19.377c7.394 0 11.728 3.051 12.748 8.9.51 2.799.255 5.342-1.275 7.376-1.275 2.29-3.57 3.56-6.119 4.324l5.354 9.41c.51.763 1.275 1.78 2.04 2.797 1.02 1.018 1.784 1.78 2.549 2.29.51.254.51.508.51 1.017 0 .508-.51.763-.765.763h-6.884c-1.019 0-2.039-.255-3.059-.763a4.997 4.997 0 01-2.295-2.29l-5.354-9.155c-.51-.763-.765-1.272-1.02-1.526s-.765-.763-1.275-1.017c-.51-.255-1.274-.509-2.039-.509h-1.53v7.884c0 1.272.255 2.29.51 3.306.51.763 1.02 1.526 1.785 2.29l.51.508c.255.254.254.509.254 1.017 0 .255-.254.509-.764.509h-13.258c-.51 0-.765-.254-.765-.509 0-.508 0-.763.255-1.017l.51-.509c1.529-1.271 2.294-3.306 2.294-5.595V9.753c0-1.271-.255-2.289-.51-3.306-.764-1.017-1.529-2.034-2.549-2.797zm11.473 16.276h3.06c3.569 0 6.119-.763 7.648-2.289 1.53-1.526 1.785-3.56 1.275-6.358-.51-1.78-1.53-3.306-3.059-4.323-1.53-1.018-3.825-1.526-6.374-1.526h-2.55v14.496zM335.006 39c-.51 0-.765-.254-.765-.508-.255-.509 0-.763.255-1.017l.51-.509c1.53-1.272 2.294-3.052 2.294-5.595V9.499c0-2.289-.764-4.07-2.294-5.595l-.51-.509c-.255-.254-.51-.508-.255-1.017.255-.509.51-.509.765-.509h17.337c2.295 0 4.589-.254 6.884-.508.255 0 .51 0 1.02-.255.51 0 .765-.254 1.02-.254.51-.254 1.019 0 1.019.509l2.295 8.392c.255.509 0 1.018-.51 1.018l-1.53.508c-.51 0-.764 0-1.019-.254l-.765-1.526c-.51-.763-1.02-1.526-1.785-2.035-.765-.508-1.275-1.017-1.785-1.271-.51-.255-1.275-.509-2.294-.509-1.02-.254-1.785-.254-2.295-.254h-6.119v13.225h7.649c2.039 0 3.569-.763 4.844-2.29l.51-.508c.255-.254.51-.254.765-.254.51 0 .765.254.765.763v7.884c0 .508-.255.763-.765.763-.255 0-.51 0-.765-.255l-.51-.508a6.286 6.286 0 00-4.844-2.29h-7.649v13.226h3.569c1.785 0 3.06 0 4.08-.255 1.02 0 2.294-.254 3.314-.763 1.275-.508 2.295-1.017 3.315-2.034 1.02-1.018 1.784-2.29 2.549-3.56.255-.51.51-.51 1.02-.51l1.53.51c.51.254.765.508.51 1.017l-2.295 8.647c0 .508-.51.508-.765.508h-28.3v.255z" fill="#2C6F2F"/></svg>