<svg width="162" height="29" fill="none" xmlns="http://www.w3.org/2000/svg"><path d="M.353 18.194c0-5.738 4.303-10.042 10.041-10.042s10.042 3.945 10.042 10.042c0 5.738-4.304 10.041-10.042 10.041C4.656 28.235.353 24.29.353 18.194zm17.213 0c0-4.662-3.227-7.531-7.172-7.531s-7.172 2.868-7.172 7.53c0 4.663 3.227 7.532 7.172 7.532s7.173-2.87 7.173-7.531zM28.684 6.359v2.152h6.097v2.152h-6.097v17.213h-2.51V10.663h-3.587V8.51h3.587V6c0-3.587 2.151-5.739 5.738-5.739 1.434 0 2.869.359 3.944 1.076l-.717 1.793c-.717-.717-1.793-1.075-2.869-1.075-2.51.717-3.586 1.793-3.586 4.303zM66.34 28.235l-6.097-8.248h-8.966v8.248h-2.869V2.415h9.683c6.455 0 10.759 3.227 10.759 8.965 0 3.945-2.152 6.814-6.097 8.248l6.455 8.966H66.34v-.359zm0-17.214c0-4.303-2.87-6.455-7.89-6.455h-6.814v12.91h6.814c5.02 0 7.89-2.51 7.89-6.455zM92.519 8.51v19.366h-2.51V24.29c-1.435 2.51-3.945 3.586-7.173 3.586-5.02 0-8.248-2.869-8.248-8.248V8.152h2.51V19.27c0 4.303 2.152 6.455 5.738 6.455 3.945 0 6.814-2.51 6.814-7.173v-10.4h2.869v.359zm4.661 17.573l1.077-2.151c1.434 1.075 4.303 2.151 6.814 2.151 3.586 0 5.379-1.434 5.379-3.227 0-5.021-12.552-1.076-12.552-8.966 0-3.228 2.869-5.738 7.89-5.738 2.51 0 5.379.717 6.814 1.793l-1.076 2.152c-1.793-1.076-3.586-1.793-5.738-1.793-3.586 0-5.021 1.434-5.021 3.227 0 5.38 12.552 1.435 12.552 8.966 0 3.228-2.869 5.738-7.89 5.738-3.586 0-6.814-1.076-8.248-2.152zm17.932 0l1.076-2.151c1.435 1.075 4.304 2.151 6.814 2.151 3.586 0 5.379-1.434 5.379-3.227 0-5.021-12.552-1.076-12.552-8.966 0-3.228 2.869-5.738 7.89-5.738 2.511 0 5.38.717 6.814 1.793l-1.076 2.152c-1.793-1.076-3.586-1.793-5.738-1.793-3.586 0-5.021 1.434-5.021 3.227 0 5.38 12.552 1.435 12.552 8.966 0 3.228-2.869 5.738-7.889 5.738-3.228 0-6.456-1.076-8.249-2.152zm20.442-23.669c0-1.076.717-1.793 1.793-1.793s1.793.717 1.793 1.793-.717 1.793-1.793 1.793-1.793-.717-1.793-1.793zm.717 6.097h2.51v19.365h-2.51V8.511zm24.745 7.531v12.193h-2.51v-2.869c-1.076 2.152-3.587 3.228-6.814 3.228-4.304 0-7.173-2.152-7.173-5.738 0-2.87 1.793-5.38 7.531-5.38h6.097v-1.075c0-3.228-1.793-5.021-5.379-5.021-2.511 0-5.021.717-6.456 2.151l-1.434-2.51c1.793-1.793 5.021-2.51 7.89-2.51 5.379 0 8.248 2.51 8.248 7.53zm-2.869 6.096v-3.227h-6.097c-3.944 0-5.02 1.434-5.02 3.586s1.793 3.586 5.02 3.586c2.869 0 5.021-1.076 6.097-3.945z" fill="#2C6F2F"/></svg>