<svg width="126" height="82" fill="none" xmlns="http://www.w3.org/2000/svg"><path d="M125.164 65.476c-.382-1.197-.994-2.313-1.683-3.59-1.3-2.313-2.753-4.866-2.447-7.737.153-1.835.841-4.786 1.529-7.817 1.301-5.903 2.83-12.524 2.066-16.592-.689-3.59-2.678-9.093-5.89-14.039a31.708 31.708 0 00-6.884-7.498 23.638 23.638 0 00-10.326-4.467c-3.212-.558-6.425-.798-9.714-.798-5.583 0-10.325.798-14.073 1.357-2.524.319-4.59.717-6.12.717h-.382c-1.835-.08-2.983-.797-4.436-1.754C64.968 1.98 62.674.466 58.773.466h-.153c-5.66.08-8.567 1.755-11.09 3.27-1.301.798-2.601 1.516-4.284 2.074-2.218.718-8.873 1.117-14.533 1.197-.23-.24-.459-.559-.765-.878-1.682-1.834-3.136-2.632-4.589-2.632-1.224 0-2.371.638-3.06 1.755-.84 1.436-1.759 3.908-2.37 5.663-.612.24-1.454.559-2.295.957-3.748 1.675-4.819 2.633-5.354 3.75-.306.717-.689 1.595-.995 2.313a112.3 112.3 0 01-2.6.877C3.243 20.088 1.56 21.285.795 22.88c-1.376 3.111 1.3 6.62 4.437 10.21.153.16.306.32.382.479 1.224 1.436 3.442 1.835 10.096 2.632 2.448.32 7.496.878 8.567 1.436 2.142 1.595 6.578 3.031 13.538 4.228 1.989.319 3.901 3.19 5.507 8.136 1.454 4.387 2.6 10.53 3.519 18.586-2.065 1.515-5.43 4.147-5.66 9.572 0 .797.23 1.595.765 2.153.535.559 1.223.878 1.988.878H66.04a2.747 2.747 0 002.754-2.632c0-.16.306-3.43.688-7.419.153-2.074 2.83-9.093 5.507-15.554 1.224.797 2.677 1.595 4.207 2.074.23 2.712 1.147 4.945 1.3 5.264l.077.16c.076.16.153.319.306.478l.076.08c.306.399 1.606 1.994 3.29 3.909-3.29 2.871-3.29 6.301-3.29 6.78.077 1.595 1.3 2.792 2.754 2.792l18.816.16c1.07 0 2.065-.639 2.524-1.676 0-.08.612-1.276 1.147-2.951.612.399 1.147.718 1.759 1.037l-.994 1.994a3.848 3.848 0 00.153 3.749c.688 1.117 1.836 1.835 3.136 1.835h10.326c.306 0 .612-.08.841-.24l.23-.08c.994-.558 1.223-1.356 1.453-2.073.076-.24.229-.638.382-1.117.23-.878.612-2.154.995-3.59.994-4.227 1.223-6.86.688-8.694zm-2.524 8.136c-.306 1.356-.689 2.632-.918 3.51-.153.478-.229.877-.306 1.117-.153.558-.229.797-.612.957l-.229.08h-10.25c-1.376 0-2.218-1.516-1.606-2.792l1.836-3.75c-1.3-.558-3.519-1.595-5.354-3.43-.23 1.357-.689 2.713-1.071 3.75-.383 1.037-.688 1.675-.688 1.754-.153.32-.459.559-.842.559l-18.74-.24a.849.849 0 01-.611-.239c-.153-.16-.306-.399-.306-.638 0-.16-.077-3.909 4.283-6.381-2.447-2.632-4.666-5.345-4.742-5.504l-.076-.08-.077-.16c-.077-.159-1.224-2.95-1.224-5.982-2.447-.479-5.354-2.393-6.807-3.43-2.065 4.946-6.272 15.235-6.502 18.267-.153 1.994-.382 3.908-.459 5.184-.153 1.357-.229 2.154-.229 2.234-.076.479-.459.877-.918.877H44.011c-.536 0-.918-.398-.918-.957.153-4.467 2.906-6.54 4.972-8.056.306-.24.611-.479.84-.638-.993-8.775-2.217-15.316-3.747-20.102-1.836-5.743-4.207-8.933-6.96-9.412-6.655-1.197-10.938-2.553-12.774-3.909-.994-.797-5.89-1.356-9.408-1.755-5.736-.797-8.184-1.196-8.949-2.073-.153-.16-.23-.32-.382-.48-2.6-2.95-5.048-6.061-4.13-8.135.305-.718 1.147-1.675 4.818-3.031 1.377-.48 2.677-.878 3.29-1.117.305-.718.84-2.074 1.3-3.031.305-.559.994-1.356 4.36-2.872a60.384 60.384 0 013.059-1.276c.382-1.197 1.53-4.627 2.447-6.142.306-.559.842-.878 1.454-.878.918 0 1.912.638 3.212 2.074.535.559.994 1.117 1.224 1.436 4.436 0 13.003-.319 15.91-1.276 1.912-.638 3.288-1.436 4.665-2.234 2.448-1.436 5.048-2.951 10.25-3.03h.152c3.366 0 5.355 1.275 7.037 2.472 1.53 1.037 2.983 1.914 5.354 2.074h.46c1.606 0 3.747-.32 6.271-.718 3.748-.638 8.337-1.356 13.844-1.356 3.213 0 6.272.24 9.408.798 3.442.558 6.655 1.994 9.485 4.147a27.749 27.749 0 016.425 7.02c3.136 4.706 4.971 9.97 5.66 13.321.765 3.67-.765 10.05-1.989 15.794-.688 3.19-1.377 6.142-1.606 8.136-.306 3.51 1.377 6.541 2.754 8.934.688 1.197 1.223 2.234 1.529 3.27.459 1.197.23 3.67-.688 7.339z" fill="#457C30"/><path d="M121.646 74.09c-.842.958-1.071 2.473-1.913 3.67-.229.319-.382.798-.917.399-.383-.32 0-.638.153-.878.994-1.595.458-3.03-.383-4.387-.688-1.196-1.683-2.074-2.677-3.031-.459-.399-.918-.877-1.377-1.276-1.53-1.596-1.682-2.314-.688-4.388.612-1.355.382-2.791.229-4.147-.229-2.234.536-3.51 2.448-4.388.306-.16.688-.478.765.16.306 2.792 2.065 4.786 3.289 7.1.994 1.914 1.835 3.828 1.988 6.062.23 1.595-.153 3.27-.917 5.105zm-1.071-4.466c-.612-3.43-3.213-5.983-3.748-9.812-.689 1.915-.153 3.27.459 4.627.841 1.755 2.218 3.19 2.753 5.105.153.877.23 1.675.383 2.553.382-.798.535-1.596.153-2.473z" fill="#457C30"/><path d="M91.28 71.299c-.535.08-.841.399-1.147.797-.383.4-.612.878-.842 1.356-.076.16-.076.32-.23.479-.152-1.117-.076-2.074.69-2.872.458-.398.917-.718 1.453-1.116.688-.479 1.223-1.037 1.3-2.074.535.399.918.877.994 1.595.077.32.077.718 0 1.037-.076.558-.459.718-.918.558-.153-.08-.382-.16-.535.08-.153.16-.076.32 0 .559.076.239.23.478.153.718-.153.478-.459.558-.765.239-.153-.16-.306-.08-.459 0-.23.24-.535.478-.765.718-.076.08-.153.239-.306.16-.153-.08-.076-.24 0-.32.153-.558.536-1.037.995-1.436.076-.08.23-.319.382-.478z" fill="#BACF1E"/><path d="M44.852 77.44a241.132 241.132 0 002.142-3.43c.382-.637.841-1.355 1.07-2.153.154-.399.23-.399.536-.08.612.718.535 1.516.153 2.314.535.08.994-.08 1.53 0 .612.08.688.319.382.877-.23.32-.688.558-.765.877 0 .4.612.4.842.718.076.24.23.4.306.638.076.24.23.559.076.798-.153.16-.382-.08-.612-.16a18.89 18.89 0 00-5.2-.478c-.23.08-.307.08-.46.08zm4.742-.398c-.918-.718-2.141-.877-2.83-.32.918.08 1.912.08 2.83.32z" fill="#2EB9CD"/><path d="M86.308 48.406c2.524-.479 4.972-3.191 5.048-5.744a17.47 17.47 0 00-.229-3.988c-.076-.319-.306-.798.153-.877.459-.08.841.239.918.797.23 1.516.306 2.952 0 4.467-.077.24-.306.559.153.638.306.08.306-.319.306-.558.306-1.356.306-2.712.153-4.068 0-.24-.23-.638.23-.638.382 0 .611.24.611.638 0 1.516.23 3.11-.153 4.626 0 .16-.23.4.077.479.23.08.306-.24.382-.399.383-1.276.383-2.632.383-3.988 0-.24-.23-.718.229-.718s.612.24.612.718c.076 5.105-1.377 9.572-5.125 13.161-.459.4-.612.639.077.958.382.16.612.478.535.877-.076.479.153.558.612.558 1.224-.08 2.295 0 2.677 1.436.077.32.383.08.536.08.917-.24 1.835-.32 2.83 0 .382.16.459.319.153.638-3.136 3.27-9.485 4.866-13.539.24a5.82 5.82 0 01-1.07-1.915c-.154-.479-.383-.638-.842-.718-.918-.08-1.836-.24-2.677-.638-.688-.24-1.224-.638-1.606-1.356-.23-.559-.842-.559-1.3-.718-.536-.16-.995-.32-1.607-.558.612-.479 1.3-.559 1.836-.718.535-.16.918-.4 1.224-.798.765-1.037 1.912-1.196 3.06-1.276.611-.08 1.453.16 1.682-.24.23-.478-.535-.957-.841-1.435-.765-1.356-1.071-2.792-.383-4.308 1.147-2.472 2.754-4.546 4.59-6.62.535.877.535 1.675.152 2.552-.076.24-.382.399-.076.638.918.638.612 1.436.23 2.234-.23.478-.46.718.229.957.612.24.535.877.382 1.356-.076.32-.306.638-.459.798-.459.478-.459.718 0 1.276.765.798.23 1.436-.153 2.154zm-5.507 3.43c0-.479-.23-.718-.688-.718-.46 0-.765.16-.765.638s.23.797.765.797c.382 0 .612-.239.688-.717z" fill="#3DB8BE"/><path d="M19.764 19.37c.077.4.077.798-.23 1.117-.076.08-.076.16 0 .24.154.159.307.319.307.558.076.478-.153.877-.689 1.037a1.29 1.29 0 01-1.3-.24c-.459-.319-.306-.319-.688 0l-.46.24c-.305.16-.688 0-.917-.24-.23-.239-.23-.638-.077-.957.077-.16.153-.319.383-.398.153-.08.153-.24 0-.32-.46-.478-.536-1.037-.23-1.435.306-.4.765-.559 1.224-.559.46 0 .765.24 1.071.638.153.08.23.08.306 0 .306-.239.612-.319.918-.08.153.08.23.32.382.4zm-1.988 1.516c.382 0 .611-.24.611-.558 0-.32-.229-.559-.535-.559-.382 0-.688.24-.688.638 0 .24.23.559.611.479zm50.175 41.16c.153.558.153 1.117-.306 1.515-.152.16-.076.24 0 .32.23.239.383.478.46.797.076.638-.307 1.197-.919 1.436-.688.24-1.3.08-1.835-.32-.612-.398-.46-.398-.995 0-.229.16-.458.24-.688.4-.382.16-.918 0-1.224-.4-.306-.398-.306-.956-.076-1.275.153-.24.23-.4.535-.559.23-.16.23-.319 0-.478-.612-.718-.765-1.436-.382-1.995.382-.558 1.07-.718 1.759-.718.688 0 1.147.4 1.53.878.153.16.306.08.459-.08.382-.399.841-.399 1.3-.16.153.24.23.48.382.639zM65.198 64.2c.535 0 .918-.32.918-.798 0-.479-.306-.798-.842-.798-.612 0-.918.32-.918.878 0 .398.306.797.842.718z" fill="#E31E4C"/><path d="M27.49 22.561c.917-.24 1.835-.399 2.753-.638.383-.08.459 0 .383.32-.077.797 0 .877-.842 1.116-1.606.399-3.289.797-4.972.638-.994-.08-1.147-.399-.917-1.356.152-.479 0-.638-.46-.638-.84-.08-1.606-.24-2.37-.479-.46-.16-.689-.399-.765-.877-.153-.638-.23-1.356-.077-1.994.23-.958.612-1.277 1.606-1.037.612.08 1.148.239 1.76.399.153 0 .306.08.382-.08.076-.08-.076-.24-.076-.32-.153-.318-.383-.558-.46-.877-.076-.319 0-.399.307-.478 1.147-.24 2.141.08 3.136.638 1.07.558 1.988 1.515 2.83 2.393.23.239 0 1.116-.306 1.196-.153.08-.23-.08-.306-.16-.918-.717-1.836-1.595-2.907-2.153-.23-.08-.459-.24-.765-.32.383.719 1.148.958 1.53 1.437.459.558 1.07.797 1.53 1.515-1.224-.239-2.448-.399-3.672-.638-.611-.24-1.223-.24-1.835-.319.535.399 1.07.638 1.759.798.765.319 1.606.399 2.371.558.535.08 1.07.16 1.683.32-.383.398-.842.478-1.224.637a8.747 8.747 0 00-1.836.718c.536 0 1.148-.08 1.76-.319z" fill="#457C30"/><path d="M80.878 46.172v.32c-.077.239-.23.318-.46.318-.152 0-.152 0-.152.16 0 .319-.153.478-.46.558h-.688c-.229-.08-.305-.24-.305-.478 0-.16 0-.24-.153-.24-.306 0-.46-.239-.536-.478 0-.24 0-.4.077-.639.076-.239.306-.319.535-.239.153 0 .153 0 .153-.16 0-.398.306-.558.612-.558.23 0 .535 0 .688.24.077.16.077.239.077.398 0 .08 0 .08.076.08.306-.08.536.08.612.4-.076.159-.076.238-.076.318zm-1.377.16c.153 0 .306-.08.306-.24 0-.16-.153-.239-.306-.239s-.306.16-.306.24c0 .08.153.239.306.239zM58.008 30.139v.32c-.077.238-.23.318-.459.318-.153 0-.153 0-.153.16 0 .319-.153.478-.459.558h-.688c-.23-.08-.306-.24-.306-.479 0-.16 0-.239-.153-.239-.306 0-.46-.24-.536-.479 0-.239 0-.398.077-.638.076-.239.306-.319.535-.239.153 0 .153 0 .153-.16 0-.398.306-.558.612-.558.23 0 .536 0 .689.24.076.159.076.239.076.398 0 .08 0 .08.076.08.306-.08.536.08.612.399-.076.08-.076.16-.076.319zm-1.3.08c.153 0 .306-.08.306-.24 0-.16-.153-.239-.306-.239s-.306.16-.306.24c0 .159.153.239.306.239zm-33.043 2.313v.32c-.153.238-.23.318-.535.318-.153 0-.153 0-.153.16 0 .319-.153.478-.46.558h-.688c-.229-.08-.306-.24-.306-.478 0-.16 0-.24-.152-.24-.306 0-.46-.24-.536-.478 0-.24 0-.4.077-.639.076-.239.306-.319.535-.239.153 0 .153 0 .153-.16 0-.398.306-.558.612-.558.23 0 .535 0 .688.24.077.16.077.239.077.398 0 .08 0 .08.076.08.306-.08.536.08.612.399v.32zm-1.377.16c.153 0 .306-.08.306-.24 0-.16-.153-.239-.306-.239s-.306.16-.306.24c0 .08.153.239.306.239z" fill="#E31E4C"/><path d="M61.526 66.672c-1.835 2.393-3.747 4.786-5.2 7.419.84-.32 1.376-.958 1.911-1.516 1.683-1.595 3.29-3.27 4.896-4.866.153-.16.306-.399.535-.319.23.08.23.399.23.558.382 1.915.306 3.75-.918 5.425-.689.957-1.606 1.356-2.83 1.116-.383-.08-.536 0-.612.4a4.038 4.038 0 01-.306.877c-.536 1.037-1.377 1.196-2.295.478-.382-.239-.535-.24-.765.08-.764 1.117-1.912 1.755-3.136 2.154-.459.16-.612-.08-.612-.479 0-1.276.536-2.313 1.377-3.19.306-.4.46-.559 0-.958-.382-.319-.382-.718-.076-1.196a6.564 6.564 0 011.759-1.835c.382-.24.535-.478.23-.957-.46-.718-.383-1.356.229-1.994 1.224-1.356 2.753-1.436 4.436-1.356.306-.16.765-.16 1.148.16z" fill="#457C30"/><path d="M34.756 11.314c.382.479.765.638 1.377.16.535-.4 1.223-.4 1.835.08 1.606 1.196 3.136 2.632 4.742 3.908.612.479 1.224.957 1.913 1.356.765.479.994.399 1.376-.479.689-1.675 1.071-3.43 1.607-5.105.076-.319.23-.638.306-1.037.382-1.116.459-1.196 1.453-.478.153.239.076.399 0 .638-.383 1.356-.842 2.712-1.224 4.068-.306.957-.765 1.835-.994 3.031 1.759-2.074 2.218-4.467 3.136-6.78.765.479.918 1.037.535 1.755-.23.478-.382 1.037-.535 1.515-.23.16-.077.479-.153.638-.306.08-.306.32-.46.559-.305.638-.611 1.276-1.07 1.914v-.08c.459.16.688-.16.918-.478a8.42 8.42 0 002.065-3.59c.688.4.918 1.197.535 1.755-1.988 3.35-4.283 6.382-8.03 7.897-3.825 1.675-8.338 0-9.944-3.51-.918-1.914-.765-3.828.153-5.663.23-.399.306-.718.153-1.117.076-.319-.153-.718.306-.957zm5.048 9.652c.841.478 1.683.16 2.6.16-.076 0-.152-.08-.229-.08.536-.08.994-.24 1.53-.32.23-.08.535-.08.306-.478-.918-1.595-1.912-3.111-3.672-3.829-.917-.399-1.835-.08-2.37.798-.995 1.595-.23 3.11 1.835 3.749zm-1.76-7.339c0-.638-.535-1.196-1.07-1.196-.612 0-1.147.558-1.07 1.276 0 .638.534 1.196 1.146 1.117.612 0 1.071-.479.995-1.197z" fill="#F5C337"/><path d="M71.852 23.678h2.754c.382 0 .765 0 .688.558 0 .4.23.957-.535 1.037-.153 0-.46-.08-.46.16-.076.24.154.399.307.558.612.479 1.147.957 1.759 1.436 1.147 1.037 1.53 2.313 1.147 3.829-.765 2.871-2.753 4.945-4.818 7.02-.23.238-.46.238-.689 0-2.141-1.676-4.207-3.43-5.2-6.063-.842-2.313-.383-3.988 1.452-5.344.383-.32.765-.559 1.148-.878.23-.16.535-.319.459-.638-.23-.24-.536-.16-.765-.16-.536 0-.842-.08-.842-.717 0-.639.153-.958.842-.878.917.08 1.835.08 2.753.08zm-2.983 8.455c-.153-.558-.153-1.196-.153-1.755.077-.558.153-1.196.23-1.755 0-.16.076-.319-.077-.478-.23-.16-.382 0-.535.16-.689.637-.918 2.791-.23 3.51.23.159.383.398.765.318z" fill="#C56D3F"/><path d="M12.498 22.72l-.306-.318a.442.442 0 01-.23-.4c0-.159 0-.318.154-.478a.47.47 0 01.458 0c.153.08.306.16.383.32.076.079.076.159.23.159 0-.16.076-.32.076-.479.076-.16.153-.319.306-.399.306-.08.535.08.535.479 0 .24-.076.479-.153.718.153-.08.306-.08.46-.16.152-.08.382 0 .534 0 .23.08.383.24.383.479.076.24-.076.399-.306.558a.849.849 0 01-.612.24c-.153 0-.153.08-.076.16.153.159.23.318.306.558.076.239.076.398-.153.558-.153.16-.383.08-.536 0-.23-.16-.382-.32-.535-.558-.077.159-.23.319-.306.478-.077.16-.23.24-.306.24-.306.08-.536-.08-.536-.4 0-.239.077-.478.23-.717-.077 0-.153 0-.23.08-.229.08-.382 0-.535-.08-.306-.24-.23-.559 0-.718.153-.24.459-.24.765-.32zm.918-.239c-.23 0-.46.24-.46.479 0 .24.23.479.46.479s.459-.24.459-.479c0-.24-.23-.479-.46-.479z" fill="#F5C337"/><path d="M35.215 33.968c-.153-.32-.306-.638-.536-.957-.765-1.356-1.224-2.872-.994-4.467.306-2.393-.23-4.387-1.836-6.142-.076-.08-.076-.16-.076-.24.612-.16 1.147.16 1.683.32 2.218.637 4.206 1.595 5.507 3.669a6.59 6.59 0 01.84 2.712c0 1.276 0 2.552-.152 3.828-.153 1.596.382 2.872 1.606 3.91.23.159.46.238.612.637-1.224.4-2.524.559-3.824.718-2.371.32-4.742.08-7.037-.478-2.371-.559-4.436-1.755-5.737-3.909a6.607 6.607 0 01-.994-3.909c1.606 1.436 3.442 1.596 5.278 1.915 1.835.24 3.365 1.116 4.895 2.153.23.16.459.4.765.4.076.08.153.08.153.159.076 0 .076 0 .153.08 0-.08 0-.08-.077-.16-.153-.08-.153-.16-.23-.24zm1.3-7.658c0 .24.077.559.077.798.229 1.196.382 2.393-.077 3.67-.535-1.118-.918-2.155-1.606-3.191-.46 3.03.459 5.344 3.136 6.94-.077-1.357-.077-2.633.076-3.91.077-1.595-.153-3.19-1.606-4.307zm-6.272 6.62c.382.56.994.639 1.224 1.277-.918-.16-1.836-.319-2.754-.399 1.912 1.835 4.054 2.393 6.502 1.915-.918-1.436-3.366-2.792-4.972-2.792z" fill="#4C8184"/><path d="M74.453 15.462c0 .24 0 .399-.077.638-.076.24-.153.32-.459.32-.153 0-.229.079-.229.159a.598.598 0 01-.383.558 1.43 1.43 0 01-1.147 0c-.23-.08-.382-.24-.382-.558 0-.16 0-.24-.23-.16-.23.08-.382 0-.459-.319a1.617 1.617 0 010-1.196c.077-.24.23-.32.536-.24.153 0 .23.08.153-.16-.077-.398.076-.558.459-.637.306-.08.612-.08.918 0 .382.08.535.239.459.638 0 .08-.077.16.076.16.382-.08.535 0 .612.398a.53.53 0 01.153.399zm-1.683-.32c-.23 0-.382.16-.382.32s.153.319.382.319c.153 0 .383-.16.383-.319 0-.16-.153-.32-.383-.32zM43.093 25.991c0 .24 0 .399-.077.558-.076.24-.23.32-.459.32-.153 0-.153.08-.153.16 0 .238-.153.398-.382.478-.382.16-.688.08-1.07 0-.23-.08-.383-.24-.383-.479 0-.16 0-.24-.153-.16-.23.08-.383 0-.46-.239a1.617 1.617 0 010-1.196c.077-.24.23-.32.46-.24.153 0 .23.08.153-.159-.077-.32.076-.558.459-.638.306-.08.612-.08.918 0 .382.08.459.24.459.638 0 .08-.077.16.076.16.382-.08.535 0 .612.398v.4zm-1.53-.319c-.23 0-.382.16-.382.32 0 .159.153.318.382.318.153 0 .306-.16.306-.319 0-.16-.153-.319-.306-.319z" fill="#816CAD"/><path d="M63.898 46.172c-.077-.16-.077-.16-.153-.16-2.601-.956-3.366-3.11-3.595-5.583-.153-1.675-.153-1.675 1.53-1.516 2.218.16 3.67 1.516 4.742 3.35.23.32.382.639.688 1.117.306-1.834 1.453-2.871 2.83-3.828.535-.32.689-.32.841.319.23 1.356.842 2.552 1.071 3.908.23 1.356-.076 2.473-1.3 3.27-.688.48-.688.798-.077 1.277.612.558 1.148 1.276 1.76 1.834.306.32.23.48-.153.559-.46.08-.765.08-1.148-.24-.535-.637-1.147-1.196-1.682-1.754-.23-.24-.383-.32-.689 0-1.912 2.472-3.136 2.233-5.736 1.276-.765-.32-1.53-.718-2.371-.798-.765-.08-.536-.399-.23-.718.918-1.196 2.065-2.153 3.672-2.313z" fill="#8FB22B"/><path d="M92.886 16.499c-.23-.32-.23-.718-.153-1.117.23-.638.765-.877 1.453-.877-.229-.4-.535-.559-.917-.4-.306.08-.23-.079-.23-.238.153-.718.918-1.117 1.683-.958.306.08.535.24.765.32.076-.559-.383-.718-.765-.878.306-.399.612-.479 1.07-.399.766.16 1.072.638 1.148 1.436.459-.32.383-.638.306-1.117.994.08 1.53 1.197.994 1.994-.076.08-.23.16-.076.24.076.08.23 0 .306 0 .306-.08.382-.4.535-.559.383.32.306.718.306 1.117-.153.718-.612 1.117-1.377 1.197.23.398.46.478 1.071.239.077.319-.076.558-.306.798-.535.398-1.07.558-1.683.239-.076-.08-.152-.16-.305-.08-.077.08 0 .24 0 .32.076.318.382.398.612.558-.306.398-.765.478-1.224.319-.46-.08-.689-.4-.842-.878-.076-.16 0-.478-.153-.478-.23 0-.382.319-.382.638v.08c-.077.159.153.319 0 .398-.153.08-.382 0-.535-.08-.689-.398-.842-1.276-.383-1.834.077-.08.23-.16.153-.32-.076-.159-.23-.079-.382-.079-.23.08-.46.16-.536.479 0 .16-.076 0-.153-.08zm3.213-2.074c-.536 0-.918.319-.918.798 0 .478.382.877.918.877.459 0 .765-.399.765-.877 0-.479-.306-.798-.765-.798z" fill="#F5C337"/><path d="M94.11 64.758a.88.88 0 01.23-.558c.229-.24.152-.4-.077-.559a1.594 1.594 0 01-.459-.319c-.459-.399-.459-.957.153-1.196.383-.16.383-.32.153-.718-.23-.32-.153-.639.076-.958.23-.319.612-.398.995-.319.076 0 .076 0 .153.08.23.08.382.32.612.24.306 0 .23-.32.382-.559.383-.479 1.3-.479 1.53.16.153.319.306.319.535.16.23-.08.383-.16.612-.16.306-.08.536 0 .689.16.153.159.305.398.153.717-.077.24-.153.479-.383.718-.153.16-.23.319.077.319.076 0 .23.08.306.08.306.08.535.24.611.558 0 .32-.153.638-.459.798-.305.16-.458.319-.152.638.153.16.229.399.229.638.077.638-.382 1.037-.994.877a1.802 1.802 0 01-.842-.478c-.153-.16-.23-.16-.23.08-.076.398-.229.718-.688.797-.458.08-.764-.16-.994-.558-.306-.399-.306-.399-.765-.16l-.459.24c-.612.24-.994 0-.994-.718zm2.906-3.35h-.535c-.535 0-.841.319-.841.877v.798c0 .319.153.478.306.718.382.398.841.239 1.3.239.765 0 1.377-.399 1.3-1.356-.076-1.037-.306-1.356-1.53-1.276z" fill="#E31E4C"/><path d="M60.685 4.055c1.989.24 2.754 2.234 1.606 4.228.842.24 1.224 0 1.607-1.037 1.53 1.356.611 3.35-1.836 4.307.535.718.918.798 1.989.32.229 1.754-1.913 2.632-4.284 1.675-.23.957.306 1.355 1.147 1.675-.535.717-1.223.877-2.065.717-1.377-.319-1.759-1.355-1.912-2.632-.841.559-.994 1.037-.688 2.074-.918.16-1.53-.24-1.989-.957-.535-.798-.459-1.595 0-2.473.153-.24.612-.479.383-.797-.383-.32-.842 0-1.224.159-.306.16-.46.479-.612.877-.765-.558-.918-1.356-.689-2.233.306-1.276 1.3-1.675 2.524-1.835-.382-.797-.84-.957-2.065-.638-.076-.877.306-1.515 1.071-1.994 1.224-.718 2.448-.479 3.595.32.077-.878-.23-1.277-1.453-1.676.535-.798 1.3-.877 2.065-.718 1.53.32 2.142 1.276 2.295 2.553.764-.32.841-.639.535-1.915zM59.92 9.48c0-.877-.535-1.435-1.377-1.356-.917 0-1.606.638-1.606 1.516 0 .877.765 1.595 1.683 1.595.765-.16 1.3-.877 1.3-1.755z" fill="#B7D271"/><path d="M74.606 19.929c-.077.319-.153.558-.23.798-.23.717-.612 1.356-1.453 1.435-.841.08-1.76-.398-2.065-1.196-.23-.559-.383-.559-.842-.32-.382.24-.84.4-1.3.56-.459.159-.994.238-1.376-.16-.46-.479-.536-1.037-.306-1.675.152-.48.382-.798.688-1.197.23-.32.23-.399-.153-.558a8.983 8.983 0 01-1.224-.639c-.994-.717-.918-1.834.153-2.472.306-.16.612-.32.994-.479-.459-.558-.994-1.117-.917-1.835.076-.398.153-.797.535-1.116 1.3-1.197 2.371-.08 3.518.478.46-1.595.995-2.074 2.219-2.153.994 0 1.453.319 1.988 1.595.995-.24 2.142-1.117 2.983.08.918 1.276-.306 2.153-.918 3.19.46.08.842.16 1.224.32 1.377.478 1.606 1.515.536 2.472-.306.32-.995.4-1.071.798 0 .399.459.718.688 1.196.306.559.612 1.197.077 1.835-.536.638-1.3.638-2.066.399-.688-.24-1.147-.798-1.682-1.356zm-4.972-4.148c-.153 2.154.689 3.031 2.83 3.031.306 0 .689 0 .994-.08 1.836-.239 2.525-1.116 2.372-2.951 0-.399-.077-.798-.077-1.117-.153-1.037-.765-1.595-1.76-1.595h-2.6c-.918.08-1.606.718-1.682 1.675-.077.32-.077.638-.077 1.037z" fill="#F192A7"/><path d="M101.3 48.804c-1.606-.16-2.677-.957-3.06-2.552-.764-3.031-.535-5.983 1.377-8.615 1.453-1.994 4.13-2.074 5.89-.319 2.065 2.074 2.906 6.78 1.682 9.492-.459.957-1.223 1.675-2.371 1.675-.153 0-.306.08-.459.16v-.08c0-.08-.076-.24-.153-.16-.076.718 0 1.436 0 2.075h.153v-.08c.23.718.459 1.515.153 2.233-.918.32-.994.32-.994-.718 0-1.515 0-3.11-.076-4.626 0-.718.152-1.117.917-1.197.765-.16 1.377-.478 1.683-1.276-.688.32-1.3.558-1.989.718-.382.08-.688.08-.764-.399-.077-.399-.306-.877.382-1.037.535-.08 1.071-.24 1.3-.797.077 0 .153-.08.077-.16 0 .08-.077.08-.077.16-.382.08-.765.239-1.147.319-.23.08-.688.398-.765-.16 0-.399-.535-.957.306-1.197.306-.08.688-.159.765-.717-.153 0-.306.08-.383.08-.688.319-.917.08-.917-.639 0-.478.076-1.037-.306-1.515-.306.478-.153.957-.077 1.435.077.958.077.958-.918.798-.459-.08-.306.08-.229.32 0 .159 0 .239.153.318.918.479.918.479.459 1.356-.536-.08-.995-.239-1.53-.319.153.559.535.638.918.798.076.16.229.24.382.24.383 0 .536.079.536.478 0 .478-.383.478-.689.478h-.841c-.382-.08-.765-.239-1.147-.319h-.077.077c-.077.24.076.4.23.479.535.479 1.146.638 1.758.638.536 0 .765.24.765.878.23 1.116-.076 1.595-.994 1.754z" fill="#8FB22B"/><path d="M87.303 19.45c.153-.08.153-.319.153-.478 0-.639 0-1.277-.077-1.915 0-.319.46-.718.765-.558.153.08.076.24.153.319 0 .638.077 1.276.077 1.914 0 .16 0 .32.153.479.229-.638.152-1.197.229-1.835 0-.16-.153-.558.153-.558s.535.16.612.558c.153.957.306 1.835.23 2.792-.077.798-.536 1.436-1.301 1.755-.306.16-.459.32-.383.638v.24c.077.159-.076.478.154.558.229.08.382-.16.535-.32 1.07-.957 1.606-2.073 1.606-3.509v-2.233c0-.32.077-.4.306-.48.153-.079.306 0 .23.16 0 1.516.076 2.952-.306 4.388-.306 1.116-.918 1.914-1.836 2.552-.459.32-.535.559-.459 1.037 0 .16.23.479-.153.558-.459.08-.918-.239-.841-.558.076-.558-.153-.797-.612-1.037-1.53-.798-2.218-2.233-2.371-3.908-.077-1.117 0-2.234.076-3.35 0-.08 0-.32.153-.24.153 0 .382 0 .382.24v3.428c0 1.436.918 2.393 1.99 3.191.229.16.305.08.305-.16 0-.159-.076-.319 0-.478.077-.399-.153-.638-.535-.798-.842-.399-1.071-1.116-1.148-1.914-.076-.957.153-1.835.23-2.712 0-.16.153-.32.306-.24.23.08.535-.08.612.32.076.638.23 1.196.382 1.834.077.08.077.24.23.32z" fill="#3DB8BE"/><path d="M108.184 45.295c.918-.878 2.447-.798 3.365.08.306.319.459.239.612-.08.23-.4.535-.798.841-1.197.459-.558.536-.558.995.08.306.479.535.957.841 1.436.994-1.276 2.218-1.037 3.442-.479 0 .24-.229.32-.382.4-.842.717-1.071 1.674-.765 2.711.459 1.276.841 2.553.841 3.988 0 2.234-1.224 3.51-3.442 3.83-.841.08-1.683.08-2.524 0-2.142-.32-3.365-2.075-3.136-4.388.077-1.117.306-2.154.612-3.19.306-1.357.076-1.995-1.071-2.792 0-.24-.153-.32-.229-.4zm8.413 6.142c0-.798-.153-1.197-.918-1.516-1.453-.638-2.906-.638-4.359-.08-1.148.4-1.454 1.596-.918 2.713.229.398.459.718.841.957a44.5 44.5 0 011.989 1.436c.306.239.459.239.765 0 .535-.479 1.071-.878 1.53-1.357.611-.558 1.07-1.196 1.07-2.153zm-4.742-4.068c0-.4 0-.559-.153-.718-.229-.479-.612-.638-1.071-.479-.535.24-.459.718-.153 1.117.077.16.23.399.383.558.153.16.229.559.535.479.306-.08.306-.399.383-.718.076-.16.076-.24.076-.24zm2.142-.32c0-.478-.153-.957-.689-.957-.612 0-.841.479-.535 1.197.153.399.306 1.037.688.957.459-.08.536-.718.536-1.196zm2.065-.239c0-.319 0-.638-.459-.638-.382 0-.765.08-.841.479-.077.558.153 1.116.382 1.595.077.08.153.08.23 0 .382-.399.688-.797.688-1.436 0 .08 0 0 0 0z" fill="#816CAD"/><path d="M63.439 27.188c0 .08.076.16.076.239-.688.638-.841 1.515-1.224 2.313-.841 1.516-1.53 3.031-2.294 4.547.076 0 .153.08.153.08 1.147-1.436 2.294-2.872 3.442-4.228.306-.399.535-1.117.994-.957.459.16.459.877.535 1.436.077.478 0 .957-.23 1.435-.152.32-.382.639-.382 1.037-1.3 1.835-3.06 3.27-5.124 4.228-.306.16-.536.24-.842.32-.382.159-.688 0-.688-.4.077-2.712-.076-5.504 1.53-7.897.306-.478.23-.718-.306-.877-2.295-.957-4.207-2.393-5.89-4.228-.535-.558-.459-.638.23-.957 1.453-.638 2.83-1.276 4.36-1.675.535 0 .994 0 1.53.08 2.217.319 3.518 1.196 3.977 3.11.23.878.076.958-.765.798-1.836-.398-3.672-.877-5.507-1.116-.077 0-.077-.08-.153 0h.153c.076.239.23.319.459.398.764.32 1.53.718 2.37 1.037 1.224.32 2.372.958 3.596 1.277zm28.453-2.314c.382.16.688.4 1.07.559.077 0 .077.08.154.08.459.239.459.398.076.717-.306.24-.612.479-1.07.479-.153 0-.23 0-.153-.16.076-.16 0-.239-.153-.16-.23.08-.46.08-.689 0-.153 0-.153-.079-.076-.238.076-.16.23-.24.23-.4-.077-.159-.23-.159-.383-.318-.306-.32-.612-.638-.842-1.037-.153-.24-.076-.32.153-.4.306-.159.612-.159.918-.238.23 0 .23-.08.23-.32 0-.159-.153-.478.076-.558.23-.08.459.08.688.16.153.08.306.16.46.319.152.08.305.16.382-.08.076-.24.23-.16.382 0 .383.399.46.878.46 1.356 0 .798 0 .638-.613.558-.306-.08-.688-.16-.994-.239-.23-.16-.23-.16-.306-.08 0-.08 0-.08 0 0z" fill="#457C30"/><path d="M97.934 47.927c-.611.399-.917.877-1.07 1.436-.383 1.276-1.148 2.154-2.219 2.792l-.152.16c.306 0 .535-.08.764-.08.689-.08 1.3 0 1.913.398.764.479 1.606.878 2.524.32-.306 1.834-1.53 3.11-3.366 2.313-.382-.16-.765-.4-1.224-.559-.764-.399-1.53-.797-2.37-.16-.077-.558 0-1.036.076-1.515.306-1.675.918-3.11 1.989-4.307.84-1.037 1.835-1.276 3.135-.798zm-3.977 5.584c.765.16 1.377.638 2.142.797.535.16 1.07.32 1.682.16.23-.08.536-.08.689-.399-.918-.16-1.76-.24-2.524-.638.459-.08.918-.08 1.377-.24-1.3-.638-2.295-.717-3.366.32zm1.606-4.068c-.994.478-1.453 1.276-1.682 2.313 0 .08-.077.16 0 .24.076.079.153 0 .23-.08.458-.32.917-.639 1.3-1.117.076-.16.229-.24.229-.479-.23-.08-.306.32-.612.24.153-.4.306-.718.535-1.117z" fill="#4C8184"/><path d="M66.804 36.042c.382-.16.688-.24.994-.24.306 0 .536.16.689.48.076.318 0 .478-.306.797-.23.16-.46.24-.765.319-.23 0-.23.08-.077.24.153.159.306.398.383.717.076.24 0 .399-.153.558-.23.16-.383.16-.612 0-.23-.16-.459-.319-.612-.558-.076-.16-.153-.16-.23 0-.076.16-.229.399-.382.558-.23.24-.459.32-.688.16-.306-.16-.306-.399-.306-.638 0-.24.153-.399.23-.638-.23 0-.46.16-.69.08-.305-.08-.458-.24-.534-.559 0-.319.229-.399.458-.558.23-.08.46-.08.765-.16-.153-.16-.306-.24-.382-.399a.739.739 0 01-.23-.558.498.498 0 01.689-.558c.306.08.535.398.841.558 0-.16.077-.399.077-.558.076-.4.306-.559.612-.559.305.08.382.32.382.718.077.32 0 .479-.153.798zm-.076.797c0-.319-.306-.558-.536-.558-.306 0-.535.32-.535.559 0 .318.306.558.535.558.306.08.536-.24.536-.559z" fill="#F192A7"/><path d="M116.674 24.236v-5.105c.535.479.841 1.037 1.3 1.436.612.558.765 1.197.536 1.914 0 .08 0 .24-.077.32-.229 1.356-.612 2.712-1.836 3.35-2.906 1.595-7.036-.24-6.731-4.228 0-.32-.076-.479-.382-.558-.382-.16-.765-.24-1.071-.559.383-.08.765-.16 1.071-.16.459 0 .688-.159.841-.558.306-.718.765-.957 1.53-.718.306.08.612.32.841.48.689.557 1.301 1.275 1.836 1.913.612.798 1.3 1.596 1.912 2.393.153.16.153.08.23.08zm-3.672-2.712c-.382-.319-.764-.16-.917.399-.306.877.076 1.914.917 2.234.842.398 1.836.478 2.907.398-1.071-1.116-1.912-2.153-2.907-3.03z" fill="#816CAD"/><path d="M9.744 28.942c0 1.277-.917 2.154-2.065 1.915-1.07-.16-1.759-.877-2.141-1.915-.23-.638-.536-1.276-1.148-1.675-.23-.16-.382-.398-.535-.638-.918-1.276-.459-2.712.994-3.27.46-.16.995-.24 1.606-.16-.84.878-1.835 1.596-1.376 3.191v-.16c.382-1.515 1.453-2.313 2.677-2.871.765-.32 1.453-.798 1.53-1.835.458.479.611 1.037.305 1.595-.229.48-.688.878-1.07 1.197-.612.399-1.148.798-1.76 1.276-.458.32-.84.798-.994 1.436 0 .399.077.559.459.559.765.08 1.453-.08 2.065-.48.612-.398 1.224-.877 1.836-1.196.841-.478 1.377-.319 1.76.479-.995-.08-1.53.479-2.143 1.197-.611.717-1.53.877-2.37 1.037-.23.08-.46.08-.842.159 1.07 1.117 2.142.558 3.212.16z" fill="#B7D271"/><path d="M46.152 24.396c.765.16 1.683.24 2.295.957.306.399.612.399 1.07.08.46-.32.919-.638 1.454-.798 1.53-.558 2.83.24 3.213 1.915.459 1.754-.383 3.03-1.3 4.307a22.461 22.461 0 01-2.907 3.19c-.306.32-.536.639-.536 1.038.077 1.515-.23 2.951 0 4.467.077.319 0 .718-.535.718s-.841-.32-.841-.878c.153-1.276 0-2.473.076-3.749.077-.798-.306-1.356-.765-1.835-1.224-1.276-2.447-2.472-3.442-3.988-.841-1.197-.765-2.473-.459-3.75.306-1.036 1.377-1.674 2.677-1.674zm.46 4.866c0 .16 0 .319.076.478.382 1.197 1.377 2.074 2.142 3.031.153.16.305.16.458-.08.612-1.116 1.53-1.914 2.066-3.11.229-.559.153-.957-.23-1.197-.382-.319-.918-.558-1.377-.16-.535.48-.917.4-1.453 0-.765-.478-1.683.16-1.683 1.038z" fill="#E31E4C"/><path d="M96.558 37.956c-.383.638-.918.878-1.607.878-.152 0-.229-.08-.229-.24 0-.638.23-1.196.765-1.675-.46-.319-.765-.718-.994-1.196-.077-.16 0-.24.153-.32a1.382 1.382 0 011.606.4c.076.08.153.159.306 0 .382-.48.994-.559 1.53-.48.152 0 .152.08.076.24-.153.558-.383.957-.841 1.356.153.16.382.16.459.32.382.398.458.877.535 1.355 0 .08 0 .16-.153.16-.535-.16-1.147-.24-1.606-.798zm-.153-.718c.153 0 .382-.08.382-.319 0-.16-.076-.319-.306-.399-.153 0-.382.16-.382.4 0 .159.153.238.306.318zM33.532 20.647c-.382.718-.994.957-1.76.957-.229 0-.229-.08-.229-.24 0-.717.23-1.355.842-1.834-.536-.319-.842-.798-1.071-1.356-.077-.24 0-.32.153-.399.612-.24 1.3-.08 1.759.399.077.16.153.16.306 0 .459-.558 1.07-.638 1.683-.558.153 0 .153.16.076.239-.153.558-.459 1.117-.918 1.515.153.16.383.24.536.4.382.398.535.957.612 1.435 0 .08 0 .16-.153.16-.689 0-1.377-.08-1.836-.718zm-.153-.798c.153 0 .382-.08.459-.319 0-.24-.153-.399-.383-.399-.229 0-.382.16-.382.399 0 .16.077.32.306.32z" fill="#F192A7"/><path d="M81.566 21.524c.306-.399.612-.718.918-1.117.076-.16.23-.08.382 0 .383.32.689.798 1.071 1.197.306.399.46.877.46 1.436 0 .558-.23 1.117-.766 1.436-.153.08-.306.08-.535.08-.23 0-.383-.32-.306-.559.153-.479.306-.878.23-1.356 0-.16-.077-.399-.154-.558 0-.08-.076-.24-.153-.16-.076 0-.076.16-.076.24 0 .398 0 .717-.077 1.116 0 .16-.076.32-.153.479-.153.239-.305.478-.535.399-.306 0-.459-.24-.612-.48-.23-.398-.23-.797-.076-1.196.076-.478.153-.797.382-.957z" fill="#457C30"/><path d="M80.495 8.363c-.153-.4-.306-.718-.306-1.117s0-.798.46-1.037c.382-.24.688 0 .917.24.153.159.23.08.382 0 .306-.16.612-.16.918.08.23.238.306.557.153.956-.153.4-.459.718-.765 1.037h.995c.459 0 .841.16.994.638.077.479-.153.718-.535.878-.23.08-.077.24-.077.319.077.638-.459 1.117-1.07.877-.613-.16-.995-.638-1.224-1.196-.077-.24-.23-.24-.383-.08-.382.24-.841.479-1.3.638-.383.08-.765.08-.995-.24-.229-.318-.229-.637 0-.956.153-.16.077-.24-.076-.32-.306-.239-.306-.558-.153-.877.23-.319.535-.399.918-.399.382.08.765.32 1.147.559z" fill="#F5C337"/><path d="M18.693 30.777V30.3c.153-1.037 0-1.675-1.223-2.154-1.377-.479-1.913-1.835-1.607-3.031.153-.638.612-1.117 1.148-1.436.994-.558 1.988-.718 3.136-.479.994.32 1.835.878 2.065 1.994.23 1.117-.306 1.995-1.071 2.713-.306.319-.688.478-1.147.558-.383.08-.46.24-.46.638v3.111c0 .558-.382.638-.764.718-.23.08-.153-.16-.153-.32 0-.557 0-1.196.076-1.834-.076 0 0 0 0 0zm.612-4.547c.765 0 1.377-.478 1.454-1.116 0-.638-.612-1.117-1.377-1.117s-1.3.479-1.3 1.117c-.077.638.458 1.116 1.223 1.116zm34.267 34.779c.306.16.535.24.765.319.153.08.23.16.076.319-.612.638-1.3 1.037-2.141.877-.383-.08-.689-.239-.842-.558-.459-.718-.688-1.516-.612-2.393.077-.558.383-.957.842-1.117.612-.239 1.3-.16 1.988-.08.23 0 .23.16.153.32-.076.08-.076.16-.153.319-.382.478-.382.478.23.718.23.08.535.08.612.319.076.239-.23.398-.383.558-.153.08-.306.16-.535.399z" fill="#F192A7"/><path d="M117.974 72.734c-.918.32-1.683.32-2.6.32-2.83 0-4.743-1.915-6.655-3.75-2.142-1.994-4.513-3.51-7.343-4.387.383-.558.842-.718 1.301-.957 2.294-1.196 4.436-1.117 6.578.479a14.41 14.41 0 012.906 2.871c1.53 1.995 3.366 3.59 5.278 5.105.229.08.306.16.535.32z" fill="#B7D271"/><path d="M76.135 46.172v-1.515c0-.32-.076-.479-.382-.559-.765-.24-1.377-.638-1.836-1.356-.612-1.117-.382-2.233.689-2.951.994-.638 2.065-.798 3.136-.32.918.4 1.453 1.197 1.453 2.154 0 1.037-.688 2.074-1.606 2.393-.612.16-.689.479-.689 1.037.077.878.077 1.835.077 2.712 0 .32-.153.4-.459.4-.306 0-.459-.08-.459-.4.076-.558 0-1.037.076-1.595zm.46-4.307c.152 0 .305 0 .458-.08.383-.16.765-.32.842-.798.076-.478-.153-.797-.536-1.037-.535-.319-1.376-.16-1.759.32-.306.398-.306.877.077 1.196.23.24.611.399.917.399z" fill="#816CAD"/><path d="M15.863 16.34c-.535.318-1.07.717-1.682 1.036-.153.08-.689 0-.765-.16-.077-.079 0-.159 0-.239.153-.398.459-.717.765-.957 1.147-.957 2.447-1.117 3.824-.718.23.08.153.16.077.32-.765 1.355-1.99 2.233-3.442 2.791-.153.08-.153.08-.23-.08-.076-.398-.076-.638.306-.877.383-.24.689-.558 1.07-.877.307-.16.536-.4.766-.639-.23.08-.46.16-.689.4z" fill="#8FB22B"/><path d="M29.478 17.057c-.076-.478-.076-.957-.076-1.436 0-.319-.153-.478-.46-.558-.994-.24-1.682-.798-1.912-1.755-.305-1.037.23-1.834.995-2.552.688-.639 1.53-.878 2.371-.479.918.399 1.606 1.117 1.683 2.234.076 1.037-.383 1.834-1.224 2.313-.612.319-.689.638-.612 1.196.077.718.153 1.436.153 2.074v.32c-.076.239-.306.478-.535.478-.23 0-.153-.32-.153-.479-.23-.399-.23-.877-.23-1.356-.076 0-.076 0 0 0zm.153-3.988c.689-.08 1.147-.559 1.07-1.117-.076-.558-.688-1.117-1.223-1.117-.612.08-1.147.718-1.07 1.356 0 .559.535.958 1.223.878z" fill="#816CAD"/><path d="M81.643 36.999v-4.627c0-.478-.077-.638-.612-.717-.765-.08-1.3-.559-1.683-1.197-.688-1.037-.841-2.154-.994-3.35-.077-.479-.077-.957-.153-1.436 0-.16-.077-.479.23-.399.229 0 .611-.16.688.32.076.558.076 1.036.229 1.595.306 1.356.765 1.755 2.065 1.914.459.08.995.08 1.453 0 .918-.16 1.454-.638 1.683-1.515.153-.48.306-.958.23-1.436-.077-.639.382-.639.764-.639.23 0 .23.16.23.32 0 1.276 0 2.552-.306 3.828-.306 1.277-1.3 1.835-2.524 2.074-.383.08-.46.24-.46.559 0 1.196-.076 2.473 0 3.669.077.638-.152.957-.84 1.037zm32.277-7.578c.306-.08.536-.08.765-.08.23 0 .459.08.689.08-.23-.479-.536-.957-.536-1.515.536.08.918.398 1.377.638a4.364 4.364 0 01.535-1.596c.536.878.995 1.755.918 2.872-.076.877-.765 1.356-1.606 1.117-.841-.16-1.453-.798-2.142-1.516z" fill="#F192A7"/><path d="M115.068 36.36c.611-.398 1.147-.637 1.606-.956 1.071-.718 2.141-.639 3.289-.32.918.24 1.606 1.436 1.453 2.314-.153 1.117-.918 1.755-2.142 1.675-.535 0-.994-.08-1.529-.16-1.454-.319-2.83-.08-4.131.479-.459.16-.612.32-.535-.32.306-1.914-.306-3.668-1.224-5.264-.459-.797-.612-1.595 0-2.473.918-1.196 2.601-1.036 3.366.32.688 1.116.535 2.313.153 3.59-.077.238-.23.637-.306 1.116zm-16.98-2.312c-.995.558-1.913.638-2.83.797-1.377.24-2.525-.319-3.519-1.196-1.53-1.356-2.448-3.031-2.677-5.185-.153-1.675-.153-1.595 1.453-1.197 1.683.479 3.519.878 4.972 1.915 1.606 1.117 2.906 2.552 3.824 4.307-.076.08-.076.16-.153.24-2.677-1.516-5.277-2.952-8.03-4.547.305 1.276 1.07 1.994 2.906 3.03 1.3.799 2.6 1.118 4.053 1.836zm3.518-.24c.153-1.117.994-1.755 1.606-2.552 1.53-1.915 3.595-2.792 5.89-3.43.841-.24 1.606-.559 2.447-.718.306-.08.536 0 .459.399-.229 2.313-.765 4.467-2.6 6.062-1.224 1.117-2.601 1.755-4.284 1.276-.688-.24-1.453-.16-2.141-.638 2.447-1.276 5.43-1.755 6.807-4.706-.994.16-1.606.718-2.295 1.117a108.359 108.359 0 00-5.124 2.951c-.306 0-.536.08-.765.24z" fill="#457C30"/><path d="M63.056 19.929c-.306.479-.535.877-.841 1.276-.077.16-.23.32-.46.24-.152-.08-.229-.24-.229-.48V19.69c-.688.239-1.3.558-1.988.558.076-.399.382-.718.535-1.037.46-.718.995-1.436 1.76-1.914 1.3-.958 2.6-.48 2.83 1.116.152 1.117-.154 2.234-.46 3.27-.076.32-.229.24-.382 0-.382-.478-.535-1.116-.765-1.754z" fill="#816CAD"/><path d="M51.965 73.453c-.535-.08-1.147-.4-1.606-.718-.153-.08-.382-.16-.382-.4.076-.159.306-.079.535-.079h.46c.152 0 .229-.08.076-.16-.153-.16-.23-.319-.383-.478-.076-.08-.153-.16-.076-.32.076-.079.153-.079.306 0 .153.08.306.08.459.16.229.08.229 0 .229-.16v-.717c0-.16.077-.24.23-.08.535.558 1.07 1.037 1.223 1.835.23.558-.306 1.117-1.07 1.117z" fill="#3DB8BE"/><path d="M49.441 47.369h-1.606c-.382 0-.535.16-.612.558 0 .399.23.638.536.718.382.16.459-.16.535-.479.077-.239.23-.478.536-.398.229.08.382.319.382.558 0 .558-.918 1.516-1.606 1.516-.612 0-1.224-.639-1.3-1.277-.154-.957.688-1.675.84-2.393.154-.797-.382-1.675.154-2.552.459-.718 1.147-1.037 2.218-.878.688.08 1.606.957 1.683 1.516 0 .478-.23.957-.689 1.276-.382.32-.918.24-1.3.08-.23-.08-.23-.32-.23-.479 0-.24.153-.319.383-.399.23 0 .535.08.612-.239 0-.16 0-.319-.23-.399-.382-.08-.612-.558-1.07-.239-.46.399-.842.798-.689 1.436.153.558.535 1.037 1.3 1.037.995.08 1.836-.24 2.219-1.037.458-.957.84-1.994-.077-3.031a4.774 4.774 0 01-1.07-1.835c-.077-.32-.23-.798.076-.957.382-.24.612.24.765.558.764 1.436 2.065 1.835 3.518 1.994.994.08 1.989 0 3.06.08.764 0 1.3.399 1.835.957.306.32.23.559-.23.638-.382 0-.84.16-1.147-.16-.459-.478-.994-.478-1.606-.478-1.147-.08-2.294.16-3.442-.16-.459-.159-.306.4-.306.639 0 1.196-.382 2.233-1.147 3.19-.765.878-1.683.559-2.295.639z" fill="#457C30"/><path d="M100.076 29.74c-2.524.479-4.36-.877-4.742-3.35-.153-1.117-.23-2.313-.306-3.51 0-.399-.23-.797-.459-1.116-.306-.4-.612-.48-1.07-.32-.536.24-.842 0-.69-.638.154-.957 1.225-1.595 2.219-1.515 1.377.239 1.912 1.356 2.218 2.393.688 2.871 1.912 5.424 2.83 8.056.077-.08 0 0 0 0zm.689-.08c1.07-2.472 2.141-5.025 2.906-7.657.306-1.037.688-2.154 1.912-2.553 1.224-.398 2.677.718 2.448 1.835-.077.319-.153.558-.612.319-.765-.399-1.071-.24-1.377.558-.306.639-.306 1.356-.306 2.074 0 1.037-.076 2.074-.459 3.031-.765 1.995-2.218 2.713-4.436 2.393 0 0-.076-.08-.076 0z" fill="#E31E4C"/><path d="M49.977 60.45c-.536.24-1.071 0-1.3-.558-.536-1.037-.23-2.393.688-3.031.306-.16.535-.32.841-.479.23-.08.306-.08.383.16.076.399.153.797.23 1.276.076.16 0 .32-.154.32-.153.079-.306.079-.459.159-.918.399-1.07 1.436-.23 2.153zm-.612 2.872c-.153-.798 0-1.436.535-1.675.077-.08.153-.16.23-.08.076.08 0 .16-.077.24-.23.717.077 1.355.765 1.515.306.08.612.08.918 0 .153 0 .306 0 .306.24.076.398.153.797.306 1.276 0 .16.076.239-.153.319-.994.16-2.218-.16-2.754-1.277 0-.16-.076-.399-.076-.558z" fill="#4C8184"/><path d="M101.835 60.61c-1.759-1.516-2.294-3.031-1.835-5.265 1.453.798 2.141 2.952 1.835 5.265z" fill="#B7D271"/><path d="M22.288 14.903c-.535-1.196-.688-2.393-.459-3.589.23-1.436.689-2.792 1.224-4.148.077-.16.153-.558.383-.24 1.07 1.357 2.37 2.633 3.06 4.308.229.479.382 1.037.382 1.835-.842-.559-1.683-.957-2.448-1.516-.459-.319-.612-.319-.841.32-.23 1.116-.536 2.073-1.3 3.03z" fill="#F192A7"/><path d="M31.773 23.28c.612 1.116.918 2.312.688 3.589-.076.638-.23 1.356-.306 1.994 0 .16-.076.399-.306.16-1.07-1.038-2.37-1.835-2.983-3.271a1.554 1.554 0 01-.153-.638c.536.239 1.148.478 1.683.797.382.16.535.16.612-.319a9.116 9.116 0 01.765-2.313z" fill="#F5C337"/><path d="M82.56 16.18c-.076 2.393-.917 4.307-2.83 5.743-.764.638-1.53 1.197-2.294 1.835-.153.08-.306.319-.46.16-.152-.08-.152-.32-.076-.48.46-2.073.842-4.227 2.524-5.743.842-.718 1.53-1.675 2.448-2.313.23-.16.306-.478.612-.319.306.16.153.479.153.718-.077.24-.077.32-.077.399z" fill="#457C30"/><path d="M79.96 25.832c-.153-.479.076-.639.612-.639h3.136c.306 0 .459.08.459.48 0 .398-.077.797-.153 1.196-.306 1.037-.995 1.515-2.142 1.515-.918 0-1.377-.399-1.683-1.515-.23-.32-.23-.639-.23-1.037zm30.289 50.652c1.912-1.117 3.824-2.074 6.425-2.154-.536.558-.918 1.037-1.453 1.436-.459.398-.536.638.229.957.841.319 1.606.797 2.295 1.356-2.295.718-4.513.16-7.496-1.595z" fill="#F5C337"/><path d="M97.552 66.752v6.78c0 .16.076.32-.153.32-.23 0-.382-.08-.382-.32V67.47c-.077-.479 0-.718.535-.718z" fill="#C56D3F"/><path d="M100.459 27.427c-.842-1.914-1.607-3.67-1.99-5.504-.076-.319-.229-.798.154-1.037.382-.319.688.08 1.07.16.23-.16.154-.4.307-.639.382-.558.841-.558 1.147 0 .153.4.306.559.765.4.535-.16.688.159.612.638-.077.957-.459 1.834-.765 2.712-.383 1.116-.842 2.073-1.3 3.27z" fill="#B7D271"/><path d="M81.337 36.121c0 .958-.153 1.037-.842.798-1.07-.478-1.759-1.276-2.294-2.313-.306-.718-.383-1.436-.536-2.154 0-.16 0-.319.153-.399.153-.08.306 0 .383.08 1.224 1.037 2.447 2.074 3.06 3.67.076.08.076.239.076.319zm5.201-3.589c-.23 1.835-.918 3.35-2.677 4.228l-.077.08c-.306 0-.688.318-.918.08-.305-.24-.076-.639 0-.878.383-1.436 1.377-2.314 2.448-3.19.23-.16.459-.4.688-.56.153-.079.23-.318.46-.239.229.08 0 .32.076.479z" fill="#457C30"/><path d="M85.926 64.04c.918-.08 1.76.16 2.524.24.459.079.612-.08.535-.48-.076-.717-.076-1.435.077-2.153 1.3.877 2.371 3.35 2.753 6.381-2.141-1.276-4.665-1.595-5.89-3.988zM33.608 13.547c0 1.197-.152 2.314-1.147 3.032a4.864 4.864 0 01-1.07.638c-.154.08-.383.24-.536.16-.153-.08-.077-.32 0-.559.076-.798.459-1.516.994-2.074a3.928 3.928 0 011.76-1.197zM31.62 16.26c.459-.32.994-1.037 1.07-1.516-.84.558-1.147.957-1.07 1.516z" fill="#B7D271"/><path d="M55.713 32.93c-.23 1.197-.382 2.474-1.224 3.51-.84.958-1.988 1.357-3.212 1.596-.459.08-.459-.24-.382-.558.382-1.755 1.147-3.27 2.753-4.148.46-.24.918-.559 1.453-.798.306-.08.689-.24.612.399zM47.3 37.637c0 .24-.23.32-.46.24-1.529-.48-3.135-.958-3.824-2.713-.229-.638-.459-1.356-.764-2.074-.23-.558 0-.718.535-.558 1.453.558 2.83 1.276 3.595 2.712.306.798.612 1.516.918 2.393z" fill="#457C30"/><path d="M120.116 40.429c-.689.32-1.301.638-1.836.877-.459.16-.612.4-.229.798.382.399.688.877.841 1.516-2.142-.32-3.365-1.835-4.972-3.35 2.142-.08 4.131-.958 6.196.159z" fill="#B7D271"/><path d="M117.209 33.49c-.229-1.516 1.148-3.191 2.524-3.67.612-.24 1.224 0 1.683.558.459.559.459 1.277.23 1.835-.23.558-.689.957-1.377.798-1.071-.32-2.065-.16-3.06.478z" fill="#457C30"/><path d="M94.263 70.022c0-.159 0-.239.23-.159.994.319 1.682.798 1.912 1.914.076.4-.077.4-.383.32-1.07-.16-1.759-.958-1.759-2.075z" fill="#8FB22B"/><path d="M50.818 20.407c-.459-.159-.459-.319 0-.797 1.53-1.516 3.136-1.755 4.972-1.037.23.08.612.16.23.638-1.454 1.914-3.366 2.393-5.202 1.197z" fill="#B7D271"/><path d="M100.229 66.832c0 1.037-.918 2.074-1.989 2.154-.229 0-.229-.08-.229-.24.153-.957.918-1.914 1.912-2.153.23 0 .306.08.306.239z" fill="#8FB22B"/><path d="M20.3 31.415c0-.638.23-1.116.535-1.595.535-.798 1.224-1.276 2.065-1.675.077-.08.23-.16.383-.08.076.08 0 .24 0 .32-.306 1.595-1.3 2.631-2.983 3.03z" fill="#B7D271"/><path d="M108.949 36.201c2.065 1.356 2.447 2.234 1.988 4.946-.076.319-.153.399-.459.24-1.529-.878-2.447-2.952-2.141-4.946.076-.479.153-.479.612-.24zM94.493 67.23c.535.24 1.147.559 1.453 1.117.23.32.306.639.459 1.037.076.32 0 .32-.306.24-1.148-.24-1.76-1.037-1.836-2.234.076-.08.077-.16.23-.16z" fill="#8FB22B"/><path d="M30.396 30.06c-2.677.079-3.9-.798-4.972-4.069 2.218.399 4.054 1.596 4.972 4.068z" fill="#B7D271"/><path d="M72.923 43.38c1.224.639 2.065 1.516 2.371 2.872.077.32-.076.24-.306.16-.918-.32-1.606-.798-1.912-1.835 0-.32-.153-.718-.153-1.197z" fill="#8FB22B"/><path d="M53.878 52.155a1.832 1.832 0 01-1.836 1.834c-.994 0-1.836-.877-1.76-1.755 0-.957.919-1.834 1.913-1.834 1.07 0 1.76.718 1.683 1.755zm-.842-.08c0-.479-.23-.718-.688-.718-.535 0-.765.24-.765.718s.23.718.689.718c.458 0 .688-.24.764-.718z" fill="#89A839"/><path d="M89.215 34.048c.994 0 1.683.718 1.606 1.834 0 .957-.841 1.835-1.835 1.755-.918 0-1.683-.877-1.683-1.755 0-1.037.918-1.834 1.912-1.834zm0 .877c-.459 0-.765.32-.765.718 0 .478.23.798.765.798.459 0 .765-.24.841-.718 0-.479-.306-.718-.841-.798zM26.266 14.904c1.07.16 2.065 1.116 2.218 2.073.076.32-.153.24-.306.16-.765-.16-1.377-.558-1.683-1.276 0-.32-.076-.638-.23-.957z" fill="#B7D271"/><path d="M11.733 32.532c-.918-.32-1.989-.479-2.065-1.037-.077-.718.918-1.037 1.53-1.436.918-.558 1.988-.797 3.06-.399.764.24 1.146.718 1.146 1.516s-.459 1.276-1.147 1.436c-.994.319-1.912.24-2.524-.08zm.306-.718c.688.16 1.3.16 1.683-.479.23-.398-.153-.638-.46-.797-.458-.16-1.682.319-1.758.718-.153.478.306.399.535.558z" fill="#4C8184"/><path d="M15.634 28.304c.076 0 .153.08.23.08.994.479 1.606 1.276 1.912 2.313.076.4 0 .479-.383.4-1.07-.32-1.836-1.437-1.912-2.553 0-.08-.076-.24.153-.24z" fill="#8FB22B"/><path d="M55.637 44.816c.765 0 1.3.479 1.224 1.197 0 .877-.842 1.675-1.607 1.675-.84 0-1.606-.798-1.606-1.596.153-.718.994-1.276 1.989-1.276z" fill="#816CAD"/><path d="M47.453 7.964c1.53-.878 2.983-1.436 4.665-.718.46.16.46.319.077.638-.612.479-1.3.877-2.065.798-.918-.08-1.836-.24-2.677-.718z" fill="#B7D271"/><path d="M50.971 22.72c0 .798-.612 1.437-1.377 1.437-.841 0-1.606-.798-1.606-1.596 0-.718.765-1.356 1.606-1.356.689.08 1.377.798 1.377 1.516zm-.994-.08c-.077-.318-.23-.558-.689-.558-.382 0-.535.24-.535.559 0 .399.23.558.612.558s.535-.16.612-.558z" fill="#89A839"/><path d="M58.926 48.884c0 .798-.612 1.436-1.377 1.436-.688 0-1.377-.558-1.377-1.276 0-.638.842-1.276 1.607-1.276.688 0 1.147.398 1.147 1.116z" fill="#816CAD"/><path d="M113.079 62.843c0 .798-.612 1.436-1.453 1.436-.765 0-1.454-.638-1.454-1.356 0-.718.842-1.436 1.53-1.356.918 0 1.377.479 1.377 1.276zm-1.453-.398c-.306.08-.536.239-.536.558 0 .319.23.479.536.479.306 0 .459-.24.459-.559.076-.319-.153-.478-.459-.478z" fill="#457C30"/><path d="M58.696 47.369c-.611 0-1.07-.479-1.147-1.117 0-.798.459-1.276 1.3-1.276.765 0 1.377.398 1.377.957.077.638-.765 1.436-1.53 1.436z" fill="#816CAD"/><path d="M81.413 37.797c.765 0 1.3.478 1.3 1.196 0 .798-.688 1.516-1.53 1.516-.688 0-1.3-.559-1.3-1.276 0-.718.689-1.436 1.53-1.436zm-.153 1.834c.306 0 .46-.239.46-.558 0-.24-.154-.479-.46-.399-.306.08-.459.24-.459.559-.076.319.153.398.46.398zM63.898 13.787c.764 0 1.3.478 1.3 1.196 0 .798-.689 1.516-1.53 1.516-.688 0-1.3-.558-1.3-1.276.076-.798.765-1.436 1.53-1.436zm-.153 1.755c.306 0 .459-.24.459-.559 0-.239-.153-.478-.46-.399-.305.08-.458.24-.458.559 0 .319.23.399.459.399zM65.886 70.9c-.688 0-1.3-.638-1.3-1.356 0-.718.612-1.356 1.3-1.356.689 0 1.3.638 1.3 1.356 0 .718-.611 1.356-1.3 1.356zm.536-1.595c-.077-.24-.153-.479-.46-.4-.305 0-.458.24-.382.48 0 .239.153.478.46.398.305-.08.382-.24.382-.478z" fill="#89A839"/><path d="M53.878 48.087c0 .717-.612 1.276-1.3 1.276-.689 0-1.3-.479-1.3-1.117 0-.718.611-1.356 1.3-1.356.764 0 1.3.479 1.3 1.197z" fill="#816CAD"/><path d="M50.895 57.02c-.077-.16-.077-.398-.153-.558-.077-.24 0-.319.23-.399.229-.08.305 0 .305.24l.23 1.196c.076.24-.077.32-.23.32-.153.079-.306 0-.306-.24.077-.08 0-.32-.076-.559zM52.5 64.2c-.076-.16-.076-.4-.152-.559-.077-.24 0-.319.23-.399.229-.08.305.08.305.24.077.398.153.718.23 1.116.076.24 0 .32-.23.4-.23.079-.306-.08-.306-.32 0-.08-.076-.319-.076-.478z" fill="#4C8184"/><path d="M98.7 5.73c.764 0 1.3.559 1.3 1.356 0 .798-.612 1.277-1.377 1.277s-1.3-.639-1.224-1.436a1.334 1.334 0 011.3-1.197zm-.154.638c-.076 0-.23.16-.306.4 0 .318.153.478.383.478.306 0 .535-.16.535-.479 0-.239-.153-.399-.612-.399z" fill="#B7D271"/><path d="M117.821 74.33c.765 0 1.377.558 1.377 1.196 0 .718-.535 1.277-1.224 1.277-.688 0-1.224-.559-1.224-1.356 0-.559.459-1.117 1.071-1.117zm.077 1.755c.306 0 .459-.16.459-.4 0-.238-.077-.398-.306-.478-.306 0-.536.16-.536.479 0 .16.153.319.383.399z" fill="#89A839"/><path d="M69.864 57.34c-.689 0-1.224-.639-1.224-1.277 0-.638.612-1.276 1.224-1.276.688 0 1.223.558 1.147 1.276.076.798-.459 1.276-1.147 1.276zm.076-1.676c-.306 0-.459.16-.459.4 0 .318.153.558.46.558.228 0 .458-.16.458-.4 0-.398-.23-.558-.459-.558z" fill="#B7D271"/><path d="M100.764 29.66h.153c0 1.516.077 2.952.077 4.467 0 .24.153.718-.306.718-.459 0-.459-.399-.459-.718V29.66h.535z" fill="#457C30"/><path d="M49.824 54.707c-.612 0-1.148-.558-1.148-1.117 0-.638.612-1.196 1.3-1.196.69 0 1.148.479 1.148 1.117.077.638-.535 1.276-1.3 1.196zm.459-1.196c0-.24-.153-.4-.383-.4s-.459.16-.459.48c0 .239.153.398.383.398.306 0 .459-.16.459-.478z" fill="#B7D271"/><path d="M100.841 49.522c.765 0 1.3.559 1.3 1.277 0 .718-.535 1.196-1.3 1.196-.612 0-1.147-.558-1.147-1.276.076-.638.535-1.197 1.147-1.197zm.612 1.277c0-.32-.153-.4-.459-.4-.306 0-.459.16-.459.4 0 .319.229.478.459.478.229 0 .382-.24.459-.478z" fill="#89A839"/><path d="M88.374 72.176c0 .718-.536 1.197-1.224 1.197-.689 0-1.148-.639-1.148-1.356 0-.639.46-1.037 1.071-1.037.765 0 1.3.478 1.3 1.196zm-1.071-.399a.45.45 0 00-.46.479c0 .24.154.399.383.399.23 0 .383-.16.383-.4.076-.318-.077-.478-.306-.478z" fill="#B7D271"/><path d="M114.15 16.898c.459 0 .994.399.994 1.037 0 .638-.535 1.196-1.147 1.196-.689 0-1.224-.638-1.224-1.276 0-.718.459-.957 1.377-.957zm-.23 1.515c.23 0 .383-.16.383-.398 0-.24-.153-.32-.383-.32-.229 0-.382.16-.382.4 0 .239.229.318.382.318z" fill="#457C30"/><path d="M25.883 13.867c0 .638-.535 1.116-1.147 1.116s-1.147-.638-1.147-1.276.459-1.037 1.07-1.037c.765 0 1.3.558 1.224 1.197zm-.688-.08c0-.24-.153-.399-.46-.399-.229 0-.381.16-.381.479 0 .239.152.398.382.398.306 0 .459-.239.459-.478z" fill="#89A839"/><path d="M57.473 51.676c-.077.638-.46.957-1.071 1.037-.536.08-1.071-.558-1.071-1.117.076-.638.535-.957 1.147-.877.536 0 .918.319.995.957z" fill="#816CAD"/><path d="M113.691 14.265c.688 0 1.3.559 1.224 1.117-.077.638-.536.957-1.071.957-.612 0-1.071-.478-1.071-1.116 0-.559.382-.958.918-.958zm.535 1.117c0-.24-.076-.399-.306-.399-.229 0-.306.16-.382.32 0 .159.076.318.306.318.229.16.306 0 .382-.239z" fill="#89A839"/><path d="M53.801 49.602c.153-.558.306-1.037.994-1.037.612 0 .995.32.995.957 0 .559-.536 1.117-1.071 1.117-.535-.08-.841-.479-.918-1.037z" fill="#816CAD"/><path d="M50.512 69.544c-.382 0-.765-.24-.765-.798s.306-.957.918-.957c.536 0 .918.24.995.798.076.478-.46.957-1.148.957zm.383-.957c0-.16-.077-.32-.306-.24-.23 0-.306.16-.306.32 0 .159.153.239.306.239.23 0 .306-.08.306-.32z" fill="#89A839"/><path d="M60.838 77.6c-.459-.08-.612-.478-.535-.957 0-.638.459-.798.994-.798.535 0 .841.32.841.878-.076.558-.535.957-1.3.877z" fill="#B7D271"/><path d="M41.18 29.102c.613.08.919.399.995 1.037 0 .479-.153.878-.765.878s-.994-.24-.994-.958c-.077-.478.076-.957.765-.957zm3.443 11.646c-.077.479-.153.878-.765.798-.612 0-.918-.24-.918-.878 0-.399.612-1.037.994-1.037.306.08.689.638.689 1.117zm57.212 32.784c-.688 0-.994-.319-.994-.877 0-.559.382-.798.918-.798.688 0 .765.399.765.877 0 .559-.23.878-.689.798zM65.733 22.72c-.076-.637.306-.717.842-.717.535 0 .764.319.764.877 0 .638-.458.798-.994.798-.612-.08-.612-.479-.612-.957z" fill="#457C30"/><path d="M57.014 39.472c-.077.558-.306.877-.842.877-.612 0-.841-.399-.841-.957 0-.479.306-.798.765-.798.535 0 .841.32.918.878zm-.918.319c.23-.08.306-.24.306-.399a.419.419 0 00-.383-.24c-.153 0-.23.16-.23.32.077.24.154.319.307.319z" fill="#B7D271"/><path d="M12.498 28.942c-.612 0-.994-.319-.994-.957 0-.638.459-.877.994-.877.612 0 1.07.399 1.07.957-.076.479-.458.877-1.07.877zm.535-1.036c0-.32-.076-.559-.535-.559-.383 0-.688.24-.688.638 0 .4.382.639.764.639.46 0 .46-.32.46-.718zm.307-9.652c.535 0 .84.24.84.718s-.229.797-.688.797c-.459 0-.765-.239-.841-.717 0-.48.23-.798.688-.798zm68.762-5.504c-.077.478-.306.797-.765.797-.46 0-.842-.319-.842-.797 0-.479.306-.718.765-.718.535-.08.841.24.841.718z" fill="#89A839"/><path d="M18.846 16.738c0-.478.23-.797.765-.797.536 0 .842.319.842.797 0 .479-.23.798-.765.798-.46 0-.842-.24-.842-.798z" fill="#B7D271"/><path d="M106.654 51.277c0 .638-.229.957-.765 1.037-.535 0-.612-.399-.612-.718 0-.478.153-.877.765-.797.383-.08.688.08.612.478z" fill="#457C30"/><path d="M112.62 73.772c0 .478-.229.797-.765.797-.459 0-.765-.16-.765-.638 0-.479.306-.798.765-.798.459-.08.689.24.765.639z" fill="#B7D271"/><path d="M7.144 25.991c.23-.16.459-.16.612.08.153.24.153.399-.077.558-.306.24-.535.16-.688-.08-.153-.239 0-.398.153-.558zm1.682-.08c-.229.08-.382.24-.535 0-.153-.319-.153-.558.077-.718.229-.159.458-.08.611.16.23.24.077.399-.153.558z" fill="#457C30"/><path d="M64.586 24.077c.382.08.612.319.612.638 0 .399-.23.718-.689.718-.382 0-.688-.16-.611-.559 0-.478.306-.717.688-.797z" fill="#B7D271"/><path d="M45.694 42.343c-.383 0-.689-.16-.612-.638 0-.399.076-.797.611-.797.536 0 .765.239.765.717.077.559-.306.639-.764.718zM9.591 25.034c-.153-.24-.23-.479.077-.638.23-.16.382-.08.535.16.153.239.153.478-.076.637-.23.08-.383.08-.536-.159z" fill="#457C30"/><path d="M68.64 50.16c.382.08.688.24.688.639 0 .398-.23.638-.688.638-.46 0-.689-.32-.689-.718 0-.479.383-.479.689-.558z" fill="#B7D271"/><path d="M100.458 18.812c-.382 0-.611-.24-.611-.558 0-.32.306-.559.611-.559.383 0 .689.16.689.559-.077.319-.383.478-.689.558zM59.079 41.865c-.383 0-.612-.24-.612-.559 0-.319.306-.558.612-.558.382 0 .688.16.688.558-.076.4-.306.559-.688.559z" fill="#3DB8BE"/><path d="M64.968 76.244c.383.08.612.24.612.638 0 .32-.23.48-.535.48-.383 0-.612-.16-.689-.56 0-.398.306-.558.612-.558z" fill="#89A839"/><path d="M34.756 11.314c-.46.16-.23.638-.306.957a5.883 5.883 0 01-.689-1.595c-.076-.16-.153-.32 0-.399.23-.16.306.16.383.24.23.239.459.558.612.797z" fill="#B7D271"/><path d="M44.164 42.104c.382.08.612.16.612.638 0 .479-.306.559-.612.559-.383 0-.612-.16-.612-.559 0-.478.306-.558.612-.638zm41.15 18.666c.383.08.612.239.612.558 0 .399-.23.638-.688.638-.383 0-.612-.08-.536-.479 0-.398.23-.558.612-.718z" fill="#457C30"/><path d="M53.648 68.986c-.382-.08-.535-.24-.535-.639 0-.398.306-.558.612-.638.306 0 .535.16.535.479.077.478-.23.638-.612.797z" fill="#B7D271"/><path d="M87.762 62.285c-.077.399-.383.558-.689.558-.306 0-.535-.16-.535-.478 0-.399.23-.638.688-.559.23.08.536.24.536.48zm32.277-35.975c0 .32-.153.559-.535.638-.306 0-.535-.16-.535-.478 0-.399.229-.559.535-.638.306-.08.459.16.535.478z" fill="#89A839"/><path d="M71.929 53.67c-.383-.08-.612-.239-.612-.638 0-.319.23-.558.535-.558.383 0 .612.24.612.638 0 .319-.153.558-.535.558z" fill="#457C30"/><path d="M103.442 19.29c0 .4-.306.48-.612.48s-.536-.16-.536-.48c0-.398.23-.478.612-.478.306-.08.536.08.536.479z" fill="#3DB8BE"/><path d="M67.416 7.884c.382 0 .535.24.535.558 0 .32-.23.639-.611.639-.306 0-.536-.24-.46-.559 0-.319.154-.558.536-.638z" fill="#89A839"/><path d="M108.26 51.118c0 .16-.153.478-.459.398-.306-.08-.688-.239-.612-.638.077-.319.306-.478.689-.478.306 0 .382.24.382.718z" fill="#457C30"/><path d="M100 69.783c.382.08.535.24.459.558-.077.32-.23.639-.612.559-.306 0-.46-.24-.46-.559 0-.319.307-.558.613-.558z" fill="#89A839"/><path d="M98.164 18.732c.382 0 .612.24.535.559 0 .319-.306.478-.535.478-.306 0-.535-.16-.535-.478 0-.4.229-.559.535-.559z" fill="#3DB8BE"/><path d="M119.504 28.544c-.306-.08-.459-.24-.535-.559 0-.319 0-.558.382-.558.306 0 .535.08.535.479.077.319-.076.478-.382.638z" fill="#457C30"/><path d="M109.637 17.695c.382 0 .535.24.612.559 0 .24-.077.478-.382.478-.306 0-.689-.16-.689-.558-.076-.319.23-.479.459-.479z" fill="#B7D271"/><path d="M68.028 54.548c-.383 0-.612-.08-.612-.479 0-.319.153-.479.459-.558.306 0 .535.16.612.478 0 .4-.23.479-.46.559z" fill="#89A839"/><path d="M92.35 36.52c0 .32-.152.479-.534.479-.306 0-.46-.16-.46-.479.077-.319.23-.638.536-.638.23 0 .459.32.459.638zm-4.053 6.302c.077-.32.23-.479.612-.558.306 0 .459.239.459.398 0 .32-.23.479-.612.479-.23.08-.459 0-.459-.32zm-21.111-17.15c0 .32-.229.399-.458.399-.383 0-.46-.16-.46-.479 0-.319.154-.478.46-.398.306-.08.382.159.459.478z" fill="#457C30"/><path d="M38.35 10.756c-.229-.08-.458-.24-.458-.479 0-.319.23-.479.535-.479.23 0 .383.16.383.4 0 .239-.153.478-.46.558z" fill="#89A839"/><path d="M118.357 26.55c.306 0 .459.159.459.478 0 .32-.077.479-.383.479s-.459-.16-.459-.4c-.076-.318.077-.478.383-.558z" fill="#B7D271"/><path d="M46.229 38.834c0 .319-.153.478-.459.478-.306 0-.459-.24-.383-.478 0-.24.154-.479.46-.479.305 0 .305.24.382.479z" fill="#89A839"/><path d="M62.368 75.606c-.306-.08-.383-.24-.383-.478 0-.24.153-.479.383-.4.306 0 .306.32.306.48 0 .239-.077.398-.306.398zm44.057-25.446c-.306-.08-.383-.239-.383-.478 0-.24.077-.399.383-.399s.458.24.382.479c0 .239-.153.398-.382.398z" fill="#457C30"/><path d="M39.804 20.966h2.371c.077 0 .153.08.23.08-.842.08-1.76.399-2.601-.08z" fill="#F3C289"/><path d="M53.342 54.468c0 .399 0 .718-.459.718s-.765-.24-.765-.638c0-.4.306-.638.689-.638.459-.08.612.239.535.558z" fill="#8FB22B"/><path d="M39.498 16.898c.535 0 .841.319.765.797 0 .479-.383.718-.841.718-.383 0-.842-.239-.842-.718.077-.558.536-.718.918-.797zm1.377 3.509c-.46-.08-.842-.16-.842-.717 0-.4.23-.718.689-.798.535 0 .765.399.841.877 0 .479-.306.639-.688.639zm-1.912-1.595c.306.08.688.16.611.638-.076.4-.305.559-.688.559-.382 0-.535-.24-.535-.559 0-.478.23-.638.612-.638zm2.83-.638c0 .32-.23.479-.536.479-.306 0-.535-.16-.612-.559 0-.319.153-.558.536-.478.382-.08.612.16.612.558zm.764.877c.383 0 .46.24.536.479 0 .32-.077.558-.383.558-.382.08-.535-.239-.535-.558-.076-.24.153-.399.383-.479zm-5.124-5.344c0 .32-.153.479-.46.479-.305 0-.382-.24-.382-.559 0-.239.153-.399.383-.399.306 0 .459.16.459.479z" fill="#3DB8BE"/><path d="M56.555 17.536c-.23.399-.612.558-.995.319-.459-.16-.611-.638-.382-1.037.23-.479.612-.638 1.147-.399.383.24.383.638.23 1.117zm-35.567-2.632c-.23.398-.612.558-.994.319-.46-.16-.612-.639-.383-1.037.23-.479.612-.639 1.148-.4.382.32.382.719.23 1.118zm76.717 47.78c0 .24-.153.319-.382.399-.153 0-.306-.08-.306-.24 0-.239.076-.398.306-.398.153-.08.306.08.382.239zM57.779 18.015c-.23-.24-.46-.4-.306-.718.153-.24.459-.4.764-.16.23.16.306.399.23.638-.076.32-.383.399-.688.24zm38.702 45.467c-.153 0-.306-.16-.306-.32 0-.159.077-.239.23-.239.153 0 .306.08.306.32-.077.159-.077.239-.23.239z" fill="#F5C337"/><path d="M58.084 19.53c-.153-.08-.153-.319-.076-.558.076-.24.306-.32.612-.24.306.16.306.4.153.639-.077.239-.23.398-.689.16z" fill="#B7D271"/><path d="M98.164 63.322c0 .16-.076.24-.23.24-.153 0-.305 0-.305-.24 0-.16.076-.24.152-.24.23 0 .306.08.383.24z" fill="#F5C337"/><path d="M97.399 63.561c0 .16-.076.24-.23.24-.152 0-.229-.08-.229-.24 0-.16.077-.239.23-.239.153 0 .229.08.229.24z" fill="#B7D271"/><path d="M72.388 8.442c.688-.08 1.07.16 1.07.878 0 .638-.535.797-1.07.797h-.077c-.535-.478-.459-1.036 0-1.595l.077-.08zm-.306 2.473c.306-.24.535-.399.918-.16.382.32.153.639 0 .958-.612.08-.918-.16-.918-.798zm3.212-1.835c-.306.24-.612.08-.918 0v-.638s.077-.08 0-.08c.536-.478.842-.239.995.4 0 .08 0 .239-.077.319zm.994 1.277c-.229 0-.535.16-.688-.16-.23-.319.077-.558.306-.797.612.08.459.558.382.957z" fill="#3DB8BE"/><path d="M115.144 51.756c-.153 1.037-.765 1.675-1.53 2.313-.076.08-.229.08-.306 0-.688-.479-1.376-1.037-1.682-1.835-.23-.638 0-1.116.535-1.356.841-.398 1.606-.398 2.448 0 .382.16.612.479.535.878z" fill="#B7D271"/><path d="M75.141 10.277c-.076.479-.382.638-.765.638-.382 0-.688-.24-.612-.558a.7.7 0 01.689-.718c.459-.08.612.24.688.638zm.842.798c0 .319.229.718-.306.797-.23 0-.383-.08-.536-.319-.076-.16 0-.319.077-.478.23-.24.459-.16.764 0zm-1.607 1.276c-.153-.08-.306-.08-.459-.16-.23-.16-.23-.319-.076-.558.076-.16.306-.319.459-.24.23.08.306.32.306.48l-.23.478z" fill="#3DB8BE"/><path d="M111.473 15.542c.535-1.755-.612-3.989-2.754-5.504-.994.478-1.836 1.436-2.218 2.712a4.575 4.575 0 00.077 2.871c2.677.639 4.742.559 4.895-.08zm-1.836-1.755c-.229-.08-.382-.399-.306-.638.077-.24.383-.4.612-.32.229.08.382.4.306.639-.077.24-.383.399-.612.319z" fill="#4C8184"/><path d="M107.954 9.56c-.153-.08-.382-.16-.535-.32v-.479c0-.398-.23-.717-.612-.877l-3.748-1.037c-.229-.08-.535 0-.765.16a.964.964 0 00-.382.717v.718c-1.53.16-2.983.559-3.825.878L96.1 7.326c-.077-.08-.23-.08-.383-.08-.153.08-.153.16-.153.319l.077 1.356c0 .24-.077.558-.23.718l-.764 1.117c-.077.08-.077.239 0 .399.076.08.229.159.305.159l2.83-.479c.765 1.037 2.678 2.553 4.896 3.59l-.459.558c-.077.08-.153.24-.077.32 0 .159.153.239.23.239l.306.08c.229.08.459.08.688-.08l1.071-.479c.459.16.918.24 1.3.399a5.26 5.26 0 01.077-2.872 4.88 4.88 0 012.141-3.03z" fill="#4C8184"/><path d="M109.408 59.413c0-.08-.077-.08-.153-.08-.153 0-1.454 0-2.142.16.076-.478.076-1.356-.306-1.914 0-.08-.077-.08-.153-.08-.688.08-1.224.718-1.53 1.037-.306-.638-1.224-1.595-1.3-1.755 0 0-.077-.08-.153-.08-.077 0-.077.08-.077.08-.305.798-.841 2.712 1.76 3.909 2.6 1.196 3.671-.479 3.977-1.276.153.08.153.08.077 0z" fill="#C56D3F"/><path d="M104.206 56.781c.23.24.612.718.918 1.117l.077.08.153.08h.153c.459-.4.841-.639 1.3-.718a.57.57 0 01.382.16c.23.318.383.797.383 1.435 0 .08 0 .08.076.16l.153.08h.077c.459-.08.994-.08 1.377-.08.076 0 .153-.08.153-.08.458-1.596-.306-2.872-.765-3.51l-.536-.558h-.076s-.612-.08-.765-.08c-.765.08-2.142.319-2.983 1.835-.153-.08-.153 0-.077.08zm1.377-.877c.612-.399 1.224-.479 1.683-.559.076 0 .153.08.153.16s-.077.16-.153.16c-.383 0-.994.16-1.53.478h-.153s-.076 0-.076-.08c0 0 0-.08.076-.16zM92.58 11.633l-1.912-.16c-.153-.558-.306-1.196-.306-1.754h1.683c.076.638.306 1.356.535 1.914zm-4.436-.478c-.076 0-.23-.08-.306-.08h-.076c-.077 0-.153-.08-.23-.08h-.076c-.077 0-.153-.08-.153-.08h-.077c-.076 0-.076-.08-.153-.08 0 0-.076 0-.076-.08-.077 0-.077-.08-.153-.08 0 0-.077 0-.077-.079-.076 0-.076-.08-.153-.08 0 0-.076 0-.076-.08l-.077-.08s-.076 0-.076-.079h-.077c0-.877 0-1.755.077-2.632 0-.08 0-.08.076-.16 0 .08 0 .08.077.16v.08c0 .08.076.16.076.239v.08c.077.08.077.16.153.239 0 0 0 .08.077.08l.153.16.076.079.153.16.077.08c.076 0 .076.08.153.08 0 0 .076.079.153.079.076 0 .076.08.153.08.076 0 .076.08.153.08 0 0 .076 0 .076.08v1.434c.153.16.153.319.153.479zm-.229-2.314c-.153-.08-.153-.08-.23-.16 0 0-.076 0-.076-.079-.077 0-.077-.08-.153-.08l-.077-.08-.076-.08-.077-.08-.076-.079s0-.08-.077-.08c0-.08-.076-.08-.076-.16v-.079c0-.08-.077-.16-.077-.24v-.079c0-.08 0-.08-.076-.16.153-.239.306-.478.535-.717.153-.08.23-.16.383-.24l.153 2.393zm2.065.479c-.612 0-1.148-.16-1.683-.32l-.153-1.993a5.4 5.4 0 001.836.558V9.32zm-3.978.797c0-.797 0-1.595.077-2.313-.383.24-.689.559-.842 1.037.153.479.46.878.765 1.277zm2.983 3.43h-1.912c-.076 0-.153 0-.153-.08h-.076c-.077 0-.153 0-.153-.079 0-.08 0-.16-.077-.16v-.08c0-.08 0-.159-.076-.159v-1.994l.076.08h.077c.076.08.153.08.23.16.076 0 .152.08.229.08h.076c.077 0 .153.079.153.079h.077c.076 0 .153.08.153.08h.076c.076 0 .153.08.23.08h.076c.076 0 .153.08.23.08 0 .079.076.159.076.238v.08c0 .08 0 .16.076.24v.08c0 .079 0 .159.077.159v.08c0 .08.076.16.076.16v.079c0 .08.077.16.077.24 0 .079.076.159.153.239 0 0 0 .08.076.08.077.159.077.159.153.239zm1.301-2.073c-.612 0-1.148-.08-1.76-.24-.076-.638-.152-1.196-.229-1.834.535.16 1.147.239 1.683.319.076.638.153 1.196.306 1.755zm1.682-5.504v1.436c-.535 0-.994 0-1.53-.08v-.878c.383-.399.918-.558 1.53-.478-.076 0 0 0 0 0zm0 3.43c-.535 0-1.147.08-1.682 0V7.645c.535.08 1.07.08 1.53.08v.398c.076.479.152.878.152 1.277zm-1.912-2.154c-.612-.08-1.224-.32-1.835-.558.305-.32 1.07-.559 1.682-.718.077.399.153.797.153 1.276zm.842 7.817c-.536.32-1.148.479-1.76.558-.535.08-1.07-.16-1.453-.558l-.076-.08v-.08l-.077-.08s0-.079-.076-.079c0 0-.077-.08-.077-.16l-.076-.08s0-.08-.077-.08c0-.079-.076-.159-.076-.159 0-.08-.077-.16-.077-.16 0-.079-.076-.159-.076-.239v-.08c.076 0 .153.08.306.08h.076c.077 0 .153 0 .23.08h1.988c0 .479.612.878 1.3 1.117zm2.753-7.339c0 .559-.153 1.117-.459 1.676-.306 0-.535-.08-.841 0V7.804h.841c.077-.08.306-.08.46-.08zm-1.606 5.664c-.077 0-.077 0-.153.08-.841.08-1.683.08-2.524.08l-.077-.08s0-.08-.076-.08c0 0-.077-.08-.077-.16 0 0 0-.08-.076-.08 0-.08-.077-.08-.077-.159 0 0 0-.08-.076-.08 0-.08-.077-.08-.077-.16 0-.079 0-.079-.076-.159 0 0 0-.08-.077-.08 0-.08-.076-.159-.076-.239v-.08c0-.08-.077-.159-.077-.239v-.08c0-.08-.076-.16-.076-.319.153 0 .306.08.459.08h1.377s0 .08.076.08c0 .08.077.08.077.16s.076.08.076.159c0 0 .077.08.077.16s.076.08.076.159l.077.08c0 .08.076.08.076.08l.076.08.077.08.076.079c.077.08.23.16.383.24 0 0 .076 0 .076.079 0 0 .077 0 .153.08.306.239.306.239.383.239zm1.377-6.222c-.077.08-.153.16-.306.24h-.842v-.878c0-.16.077-.24.23-.319.153-.08.23-.08.382 0 .153.08.23.16.306.24.077.079.153.239.23.318.076.08.076.24 0 .4zm-7.114 5.903h-.076c-.077 0-.153-.08-.23-.08-.076-.08-.23-.08-.306-.16h-.076c-.077 0-.077-.08-.153-.08s-.076-.079-.153-.079l-.076-.08s-.077 0-.077-.08l-.076-.08s-.077 0-.077-.079l-.076-.08c-.383-.399-.536-.957-.536-1.515.077-.638.23-1.277.535-1.835v.08c.154.638.536 1.276 1.071 1.675v1.994c0 .079 0 .159.077.238v.08c.153-.16.23 0 .23.08zm3.366.798c.306.398.765.638 1.223.797a2.14 2.14 0 00.995-.877c-.765.08-1.53.08-2.218.08z" fill="#C56D3F"/><path d="M92.963 12.032c-.077.16-.153.319-.23.399-.153.239-.382.399-.688.558-.077 0-.077 0-.153-.08h-.076c-.077 0-.154-.08-.23-.08-.076 0-.076-.08-.153-.08 0 0-.077 0-.077-.079-.076 0-.076-.08-.152-.08l-.077-.08-.076-.08s0-.079-.077-.079c0-.08-.076-.08-.076-.16 0 0 0-.08-.077-.08 0-.08-.076-.159-.076-.159v-.08l2.218.16zm-5.355 3.51c-.077 0-.077 0 0 0-1.53-.4-2.754-1.675-3.136-3.27l.153.159.076.08.077.08s.076 0 .076.08l.077.079h.076c.077 0 .077.08.153.08l.077.08s.076 0 .076.08c0 0 .077 0 .077.079.076.08.153.08.23.16 0 0 .076 0 .076.08h.076c.077 0 .153.079.153.079.077 0 .077 0 .153.08.077 0 .153.08.23.08 0 .08.076.16.076.239 0 .08 0 .08.077.16 0 .08.076.159.076.159v.08s0 .08.077.08c0 .08.076.159.076.239v.08s0 .08.076.08c0 0 0 .079.077.079 0 0 0 .08.076.08 0 .08.077.08.077.16 0 0 0 .08.077.08 0 0 0 .079.076.079 0 0 0 .08.076.08l.077.08c.153.159.23.159.306.239zm6.043-5.743c-.153.638-.382 1.435-.688 1.754-.306-.558-.46-1.196-.536-1.914.383.08.842.08 1.224.16zm-51.629.159c0 .08 0 .16.077.24l3.9 1.595c.077 0 .153 0 .23-.08.382-1.117-.077-2.154-1.224-2.632l.077-.16c0-.08.153-.16.23-.08l.305.16c.077 0 .153 0 .23-.08 0-.08 0-.16-.077-.24l-.306-.239c-.306-.08-.535 0-.688.32l-.077.159c-1.224-.479-2.218 0-2.677 1.037zm.612 3.669l.153.4c0 .079.077.079.077.079h.153l.382-.16h.076c.842.16 1.683-.399 1.99-1.196l.228-.559-3.594-1.515-.23.558a2.058 2.058 0 00.612 2.313c.153 0 .153 0 .153.08z" fill="#C56D3F"/><path d="M58.85 51.596c.382.08.688.24.917.399.994-.32 2.142-.399 3.29-.32-1.148-1.275-2.678-1.435-4.208-.877-.382.16-.382.718 0 .798zm-1.607 7.179c.765-.718 1.606-.877 2.6-.478.918.399 2.295.797 3.672 1.037l-.076-.16c-.383-.638-1.148-2.313-.689-3.908.23-.958.918-1.676 1.836-2.234l.153-.08c-1.224-.478-2.524-.558-3.825-.319-1.147.16-1.759.479-2.294.878-2.677 1.834-3.519 4.387-2.983 6.54.612 2.473 3.06 4.069 3.136 4.069.076 0 .153.08.23.08.076 0 .764 0 1.223-.559.383-.479.535-1.276.383-2.233-.077-.24-.306-.4-.536-.32 0 0-.612.32-1.453.24-.918 0-1.683-.479-2.142-1.356.077-.32.306-.798.765-1.197z" fill="#F5C337"/><path d="M68.487 58.536c-.306-2.313-1.3-4.148-2.983-5.185-.918.479-.612.32-.689.399-.764.478-1.3 1.037-1.53 1.755-.382 1.276.307 2.712.613 3.27l.458.718c1.3.16 2.601.08 3.748-.479.153-.08.23-.08.306-.239.077-.08.153-.16.077-.24zm-2.83-2.074c-.23 0-.383-.16-.383-.399 0-.24.153-.399.383-.399s.382.16.382.4c0 .238-.153.398-.382.398z" fill="#F5C337"/></svg>