<svg width="111" height="14" fill="none" xmlns="http://www.w3.org/2000/svg"><path d="M.735 1.694c-.077-.08-.153-.16-.077-.319 0-.16.153-.16.23-.16h3.977c.153 0 .23.08.23.16.076.16 0 .24-.077.32l-.153.159a.739.739 0 00-.23.558c0 .16.077.558.23 1.037l1.683 5.823c0 .08.076.08.076 0l1.453-4.307-.382-1.277c-.153-.478-.306-.797-.536-1.116-.229-.32-.535-.559-.917-.878-.153-.08-.153-.16-.077-.319.077-.08.153-.16.23-.16h3.977c.153 0 .23.08.23.16.076.16 0 .32-.23.479a.74.74 0 00-.23.558c0 .24.077.558.23 1.037l1.836 6.381c0 .08.076.08.076 0 .765-1.675 1.377-3.03 1.76-4.227.152-.638.076-1.117-.23-1.436-.153-.08-.23-.16-.383-.24-.458-.159-.764-.558-.917-1.036-.153-.4-.077-.878.076-1.197.23-.399.536-.638.918-.798.23-.08.459-.08.612-.08.382 0 .688.08.994.32.306.239.46.478.612.877.076.24.153.479.153.718 0 .479-.153 1.197-.382 2.074-.918 2.951-1.99 5.504-3.366 7.817a.418.418 0 01-.382.24H10.6c-.153 0-.23-.08-.23-.16L8.69 6.879h-.153l-1.988 5.823c-.077.08-.153.16-.23.16H5.094c-.153 0-.23-.08-.23-.16l-2.6-8.934c-.153-.479-.306-.798-.535-1.037-.23-.399-.612-.718-.994-1.037zm15.756 0c-.076-.08-.153-.16-.076-.319.076-.16.152-.16.229-.16h3.977c.153 0 .23.08.23.16.076.16 0 .24-.077.32l-.153.159c-.23.239-.459.558-.535.877-.077.24-.153.479-.153.877v6.86c0 .4.076.718.153.878.076.319.306.638.535.877l.153.16c.077.08.077.16.077.319-.077.16-.153.16-.23.16h-3.977c-.153 0-.23-.08-.23-.16-.076-.16 0-.24.077-.32l.153-.159c.459-.399.688-.957.688-1.755v-6.86c0-.398-.076-.638-.153-.877-.076-.319-.306-.638-.535-.877l-.153-.16zm5.125 0c-.077-.08-.153-.16-.077-.319.077-.08.153-.16.23-.16h3.977c.153 0 .23.08.23.16.076.16 0 .24-.077.32-.306.318-.536.557-.689.797-.152.319-.152.638-.152 1.037v8.136h.994c.535 0 .918 0 1.224-.08.306 0 .688-.08.994-.24.382-.159.688-.318.994-.637.306-.32.536-.718.765-1.117.077-.16.153-.16.306-.16l.46.16c.076 0 .152.08.152.08 0 .08.076.16 0 .239l-.841 3.031c0 .16-.077.16-.23.16h-.306c-.841-.16-1.759-.32-2.753-.32h-5.278c-.153 0-.23-.08-.306-.159 0-.16.077-.319.23-.479.23-.159.382-.398.535-.638.153-.319.153-.638.153-1.037v-6.86c0-.398-.076-.717-.153-1.037.153-.319-.076-.638-.382-.877zm10.02 0c-.077-.08-.153-.16-.077-.319.076-.16.153-.16.23-.16h4.895c.23 0 .535.08 1.07.08.46.08.918.24 1.3.4.383.238.766.478 1.148.797.689.638 1.224 1.515 1.606 2.632.23.798.306 1.595.306 2.393-.076 1.595-.612 2.872-1.606 3.829-.918.877-2.295 1.356-4.054 1.356h-4.589c-.153 0-.23-.08-.23-.16-.076-.16 0-.239.077-.319l.153-.16c.459-.398.688-.957.688-1.754v-6.86c0-.718-.23-1.276-.688-1.755h-.23zm3.442 9.97h.611c1.989-.079 3.136-1.116 3.519-3.35.076-.717 0-1.515-.153-2.392-.306-1.117-.765-1.994-1.377-2.633-.612-.638-1.53-.957-2.524-1.037v9.413h-.077zm11.32-9.97c-.077-.08-.153-.16-.077-.319.077-.16.153-.16.306-.16h2.371c.077 0 .153 0 .23.08l1.3 1.596 4.13 5.105h.077V3.369c0-.718-.23-1.276-.689-1.675l-.153-.16c-.076-.08-.076-.159-.076-.319s.076-.16.23-.16h2.37c.153 0 .23.08.23.16s0 .24-.077.32l-.153.16c-.459.398-.688.956-.688 1.674v9.094c0 .16-.076.239-.23.239h-.611c-.077 0-.153 0-.23-.08l-6.272-7.817h-.076v5.504c0 .798.23 1.356.688 1.755l.153.16c.077.079.077.159.077.318 0 .16-.077.16-.23.16h-2.37c-.154 0-.23-.08-.23-.16s0-.239.076-.319l.153-.16c.23-.239.459-.478.535-.717.077-.24.154-.559.154-1.037v-6.86c0-.399-.077-.798-.154-1.037-.152-.24-.306-.479-.535-.638l-.23-.08zm10.478 10.848c0-.08 0-.239.077-.319l.153-.16.153-.159c.076-.08.153-.16.23-.16.076 0 .152-.08.229-.159.076-.08.153-.16.23-.319.076-.08.152-.24.229-.319l.23-.479 2.6-6.94-.765-.239c-.077 0-.153-.08-.153-.239 0-.08 0-.16.076-.24L62.613.658c.076-.08.153-.08.23-.08.076 0 .152.08.152.16l3.595 9.492c.23.559.46 1.037.842 1.356.076.08.23.16.382.32.153.159.23.159.23.239.076.08.076.16.076.319 0 .16-.077.16-.23.16h-3.977c-.153 0-.23-.08-.23-.16s0-.24.077-.32l.153-.159c.153-.16.23-.32.23-.479 0-.16-.077-.558-.23-1.037l-.306-.877h-3.824l-.306.798c-.153.478-.23.797-.23 1.037 0 .16.077.319.23.478l.153.16c.076.08.153.16.076.319 0 .16-.076.16-.23.16h-2.294c-.23.239-.306.159-.306 0zm4.666-7.657L60.09 8.714h2.983l-1.453-3.83h-.077c.077 0 0 0 0 0zm5.431-.24c-.153-.08-.23-.16-.153-.319l.841-3.27c.076-.16.153-.16.23-.16 0 0 .152 0 .382.08s.612.08 1.07.16c.46.08.995.08 1.53.08h3.06c1.377 0 2.295-.16 2.906-.32h.154c.076 0 .076.08.153.16l.84 3.27c.077.16 0 .24-.152.32-.153 0-.23.08-.306.08-.077 0-.153 0-.153.079-.153 0-.23 0-.306-.16l-.076-.239c0-.08-.077-.08-.077-.24-.076-.079-.153-.239-.306-.478-.153-.16-.306-.399-.535-.558-.153-.16-.46-.32-.765-.479-.306-.16-.612-.24-.995-.319-.229 0-.459-.08-.611-.08v8.137c0 .398.076.718.153 1.037.153.239.305.478.535.717.153.16.23.32.23.4 0 .159-.077.159-.23.159h-3.977c-.153 0-.23-.08-.23-.16 0-.16.077-.319.23-.478.23-.24.382-.479.535-.718.153-.32.153-.638.153-1.037V2.173c-.23 0-.382 0-.612.08-.382.08-.688.159-.994.318-.306.16-.536.32-.765.479-.153.16-.383.32-.535.558-.154.16-.23.32-.306.479-.077.08-.077.16-.077.24l-.076.239c-.077.16-.153.16-.306.16l-.46-.08zM78.37 1.694c-.077-.08-.154-.16-.077-.319 0-.16.076-.16.23-.16H82.5c.153 0 .23.08.23.16.076.16 0 .24-.077.32l-.153.159c-.46.398-.689.957-.689 1.754v4.866c0 1.117.306 1.915.842 2.553.535.638 1.223.877 1.988.797.306 0 .612-.08.842-.239.306-.16.535-.319.764-.558.23-.24.46-.559.612-1.037.153-.479.23-.957.23-1.596V3.53c0-.798-.23-1.356-.689-1.755l-.153-.16c-.076-.08-.153-.16-.076-.319 0-.16.076-.16.23-.16h2.37c.153 0 .23.08.23.16s0 .24-.077.32l-.152.159c-.23.16-.383.399-.46.718-.152.239-.152.638-.152 1.037v4.865c0 1.436-.383 2.633-1.148 3.51-.764.878-1.835 1.277-3.289 1.277-1.3 0-2.294-.48-3.136-1.357-.84-.877-1.223-2.073-1.223-3.43V3.53c0-.798-.23-1.356-.689-1.755l-.306-.08zm11.09 0c-.076-.08-.153-.16-.076-.319.076-.08.153-.16.305-.16h5.814c2.218 0 3.518.958 3.824 2.792.153.878.076 1.675-.383 2.314-.382.717-1.07 1.116-1.835 1.356l1.606 2.95c.153.24.382.56.612.878.306.32.535.559.765.718.153.08.153.16.153.32 0 .159-.153.239-.23.239H97.95a1.97 1.97 0 01-.918-.24 1.535 1.535 0 01-.688-.718l-1.606-2.871c-.153-.24-.23-.399-.306-.479-.077-.08-.23-.24-.383-.319a1.394 1.394 0 00-.612-.16h-.459v2.473c0 .4.077.718.153 1.037a4.3 4.3 0 00.536.718l.153.16c.076.08.076.16.076.319 0 .08-.076.16-.23.16H89.69c-.152 0-.229-.08-.229-.16 0-.16 0-.24.077-.32l.152-.159c.46-.399.689-1.037.689-1.755v-6.86c0-.398-.077-.717-.153-1.037-.23-.319-.46-.638-.765-.877zM92.902 6.8h.918c1.07 0 1.836-.24 2.294-.718.46-.478.536-1.117.383-1.994-.153-.558-.46-1.037-.918-1.356-.459-.319-1.147-.479-1.912-.479h-.765V6.8zm7.955 5.982c-.153 0-.23-.08-.23-.16-.076-.16 0-.24.077-.319l.153-.16c.459-.398.688-.957.688-1.754v-6.86c0-.718-.229-1.276-.688-1.755l-.153-.16c-.077-.08-.153-.16-.077-.319.077-.16.153-.16.23-.16h5.201c.688 0 1.377-.079 2.065-.159.076 0 .153 0 .306-.08.153 0 .229-.08.306-.08.153-.08.306 0 .306.16l.688 2.633c.077.16 0 .319-.153.319l-.459.16c-.153 0-.229 0-.306-.08l-.229-.48c-.153-.239-.306-.478-.536-.637-.229-.16-.382-.32-.535-.4a1.474 1.474 0 00-.688-.159 2.535 2.535 0 00-.689-.08h-1.835V6.4h2.294c.612 0 1.071-.239 1.453-.718l.153-.16c.077-.079.153-.079.23-.079.153 0 .229.08.229.24v2.472c0 .16-.076.24-.229.24-.077 0-.153 0-.23-.08l-.153-.16a1.852 1.852 0 00-1.453-.718h-2.294v4.148h1.07c.536 0 .918 0 1.224-.08.306 0 .689-.08.995-.239.382-.16.688-.319.994-.638.306-.319.535-.718.765-1.117.076-.16.153-.16.306-.16l.459.16c.153.08.229.16.153.32l-.689 2.711c0 .16-.153.16-.229.16h-8.49v.08z" fill="#2C6F2F"/></svg>