<svg width="49" height="10" fill="none" xmlns="http://www.w3.org/2000/svg"><path d="M.361 6.112c0-1.8 1.291-3.15 3.013-3.15 1.72 0 3.012 1.238 3.012 3.15 0 1.8-1.291 3.15-3.012 3.15C1.652 9.262.36 8.024.36 6.112zm5.164 0c0-1.462-.968-2.362-2.151-2.362-1.184 0-2.152.9-2.152 2.362 0 1.463.968 2.362 2.152 2.362 1.183 0 2.151-.9 2.151-2.362zM8.86 2.4v.675h1.83v.675H8.86v5.4h-.753v-5.4H7.031v-.675h1.076v-.787c0-1.125.646-1.8 1.722-1.8.43 0 .86.113 1.183.338l-.215.562c-.215-.225-.538-.337-.86-.337-.754.225-1.077.562-1.077 1.35zm11.297 6.862l-1.829-2.587h-2.69v2.587h-.86V1.163h2.905c1.936 0 3.227 1.013 3.227 2.812 0 1.237-.645 2.137-1.829 2.587l1.937 2.812h-.861v-.112zm0-5.4c0-1.349-.86-2.024-2.367-2.024h-2.044v4.05h2.044c1.506 0 2.367-.788 2.367-2.025zm7.853-.787V9.15h-.752V8.024c-.43.788-1.184 1.125-2.152 1.125-1.506 0-2.475-.9-2.475-2.587v-3.6h.754V6.45c0 1.35.645 2.024 1.721 2.024 1.183 0 2.044-.787 2.044-2.25v-3.26h.86v.112zm1.4 5.512l.322-.675c.43.337 1.291.675 2.044.675 1.076 0 1.614-.45 1.614-1.012 0-1.575-3.765-.338-3.765-2.812 0-1.013.86-1.8 2.366-1.8.754 0 1.614.225 2.045.562l-.323.675c-.538-.337-1.076-.562-1.722-.562-1.075 0-1.506.45-1.506 1.012 0 1.687 3.766.45 3.766 2.812 0 1.012-.86 1.8-2.367 1.8-1.076 0-2.044-.338-2.475-.675zm5.379 0l.322-.675c.43.337 1.292.675 2.045.675 1.075 0 1.613-.45 1.613-1.012 0-1.575-3.765-.338-3.765-2.812 0-1.013.86-1.8 2.367-1.8.753 0 1.614.225 2.044.562l-.323.675c-.538-.337-1.076-.562-1.721-.562-1.076 0-1.506.45-1.506 1.012 0 1.687 3.765.45 3.765 2.812 0 1.012-.86 1.8-2.367 1.8-.968 0-1.936-.338-2.474-.675zm6.132-7.424c0-.337.215-.562.538-.562.323 0 .538.225.538.562 0 .338-.215.563-.538.563-.323 0-.538-.225-.538-.563zm.215 1.912h.753V9.15h-.753V3.075zm7.424 2.362v3.825h-.753v-.9c-.323.675-1.076 1.012-2.044 1.012-1.291 0-2.152-.675-2.152-1.8 0-.9.538-1.687 2.26-1.687h1.828V5.55c0-1.012-.538-1.575-1.614-1.575-.753 0-1.506.225-1.936.675l-.43-.787c.537-.563 1.506-.788 2.366-.788 1.614 0 2.475.788 2.475 2.362zM47.7 7.35V6.337h-1.83c-1.183 0-1.506.45-1.506 1.125s.538 1.125 1.506 1.125c.86 0 1.506-.338 1.83-1.237z" fill="#2C6F2F"/></svg>